<svg width="44" height="42" viewBox="0 0 44 42" fill="none" xmlns="http://www.w3.org/2000/svg">
<path d="M22.9849 20.3551C22.8135 19.6696 22.7135 19.1126 22.5278 18.5698C20.6711 13.0853 17.686 8.20057 14.2867 3.5587C13.8868 3.01596 13.3869 2.50178 12.8299 2.159C12.5299 1.97332 11.9301 2.00189 11.5873 2.18756C11.3302 2.33039 11.1445 2.88741 11.2016 3.20163C11.3016 3.80151 11.5159 4.41566 11.8158 4.95841C13.7868 8.54336 15.7721 12.114 17.786 15.6704C18.5429 16.9987 19.3428 18.3127 20.1283 19.6267C20.3854 20.0695 20.6711 20.498 20.971 20.8979C21.2995 21.3549 21.7994 21.6263 22.2993 21.3264C22.6278 21.1264 22.9849 20.9836 22.9849 20.3551Z" fill="#CD4631"/>
<path d="M2.76039 41.6223C3.44596 41.5081 4.2458 41.4224 5.01706 41.251C8.05927 40.5654 11.1015 39.8799 14.1294 39.1657C14.7864 39.0086 15.4291 38.7372 16.0147 38.423C16.8003 38.0088 17.0716 37.4232 16.9431 36.7805C16.8146 36.1378 16.3004 35.7379 15.4006 35.7236C14.7864 35.7093 14.1294 35.7236 13.5438 35.8664C9.70178 36.8376 5.85974 37.8374 2.03198 38.8515C1.6035 38.9658 1.16073 39.1657 0.832232 39.4514C0.00383568 40.1512 0.260925 41.251 1.31784 41.5224C1.73204 41.6223 2.20337 41.5795 2.76039 41.6223Z" fill="#CD4631"/>
<path d="M42.8947 3.32986C42.8376 2.65858 42.6948 1.98729 42.5234 1.33029C42.3663 0.744697 41.9664 0.330499 41.3236 0.273368C40.7809 0.23052 40.1953 0.773263 40.1096 1.4874C39.9953 2.44434 39.8954 3.41556 39.9382 4.3725C40.0668 7.2576 40.2524 10.157 40.4524 13.0421C40.5238 13.999 40.6523 14.956 40.8095 15.9129C40.8666 16.2414 40.9808 16.5842 41.1665 16.8413C41.6664 17.5697 42.5805 17.5126 42.9376 16.727C43.1375 16.2843 43.2232 15.7415 43.2232 15.2559C43.2946 13.6562 43.0804 5.70079 42.8947 3.32986Z" fill="#CD4631"/>
</svg>
