<svg width="101" height="105" viewBox="0 0 101 105" fill="none" xmlns="http://www.w3.org/2000/svg">
<path d="M35.8351 3.34681C36.7644 -0.480418 42.3253 -0.102887 42.7287 3.81482L45.1937 27.7519C45.4669 30.4052 48.4855 31.7934 50.6777 30.274L75.5182 13.0566C78.6312 10.8989 82.4795 14.527 80.5088 17.7616L68.4741 37.5143C67.2389 39.5416 68.3337 42.1846 70.6406 42.7447L98.01 49.3901C101.375 50.2071 101.644 54.8893 98.3945 56.0861L70.1266 66.4975C67.9533 67.2979 67.1398 69.9486 68.4899 71.8304L79.0703 86.5777C81.2967 89.6809 77.6596 93.602 74.3981 91.6148L55.2343 79.9389C53.207 78.7037 50.5639 79.7985 50.0038 82.1054L45.2486 101.69C44.3262 105.489 38.8174 105.156 38.3606 101.273L34.9643 72.4045C34.6404 69.6511 31.3994 68.3455 29.2574 70.1056L10.7236 85.3344C7.60112 87.9001 3.33242 84.0175 5.59144 80.6664L22.8741 55.029C24.4913 52.63 22.6703 49.4153 19.7812 49.569L4.06856 50.405C-0.115874 50.6276 -1.09395 44.6495 2.94326 43.5271L16.3342 39.8039C18.799 39.1186 19.7233 36.1093 18.0682 34.1585L6.21965 20.1942C3.64452 17.1593 7.3175 12.8617 10.7165 14.9326L26.0495 24.2745C28.0768 25.5097 30.7198 24.4149 31.2799 22.108L35.8351 3.34681Z" fill="black"/>
</svg>
