<svg width="86" height="84" viewBox="0 0 86 84" fill="none" xmlns="http://www.w3.org/2000/svg">
<path d="M40.5801 40.983C40.9229 39.6119 41.1228 38.4978 41.4942 37.4123C45.2077 26.4432 51.1778 16.6739 57.9764 7.39011C58.7762 6.30462 59.776 5.27627 60.8901 4.5907C61.4899 4.21935 62.6897 4.27648 63.3753 4.64783C63.8894 4.93349 64.2608 6.04753 64.1465 6.67597C63.9466 7.87572 63.5181 9.10403 62.9182 10.1895C58.9762 17.3594 55.0056 24.5008 50.9779 31.6136C49.4639 34.2701 47.8643 36.8981 46.2932 39.5262C45.779 40.4117 45.2077 41.2686 44.6078 42.0685C43.9508 42.9826 42.951 43.5253 41.9512 42.9254C41.2942 42.5255 40.5801 42.2399 40.5801 40.983Z" fill="#CD4631"/>
<path d="M81.0285 83.5176C79.6574 83.2891 78.0577 83.1177 76.5152 82.7749C70.4308 81.4038 64.3463 80.0327 58.2905 78.6044C56.9765 78.2902 55.691 77.7474 54.5199 77.119C52.9488 76.2906 52.406 75.1194 52.6631 73.834C52.9202 72.5485 53.9485 71.7487 55.7482 71.7202C56.9765 71.6916 58.2905 71.7201 59.4617 72.0058C67.1458 73.9482 74.8298 75.9478 82.4854 77.976C83.3423 78.2045 84.2278 78.6044 84.8849 79.1757C86.5416 80.5754 86.0275 82.7749 83.9136 83.3177C83.0852 83.5176 82.1426 83.4319 81.0285 83.5176Z" fill="#CD4631"/>
<path d="M0.759864 6.93365C0.874126 5.59108 1.15978 4.24851 1.50256 2.9345C1.81678 1.76332 2.61661 0.934924 3.90206 0.820662C4.98754 0.734966 6.15872 1.82045 6.33011 3.24872C6.55863 5.1626 6.75859 7.10505 6.6729 9.01893C6.41581 14.7891 6.04446 20.5879 5.64454 26.3581C5.50172 28.272 5.24463 30.1859 4.93041 32.0998C4.81615 32.7568 4.58762 33.4423 4.21627 33.9565C3.21649 35.4133 1.3883 35.2991 0.674169 33.728C0.274254 32.8425 0.102862 31.757 0.102862 30.7857C-0.0399649 27.5864 0.388514 11.6755 0.759864 6.93365Z" fill="#CD4631"/>
</svg>
