<svg width="43" height="43" viewBox="0 0 43 43" fill="none" xmlns="http://www.w3.org/2000/svg">
<path d="M20.2646 20.9069C20.436 20.2213 20.536 19.6643 20.7217 19.1216C22.5784 13.637 25.5635 8.75233 28.9628 4.11046C29.3627 3.56772 29.8626 3.05354 30.4196 2.71075C30.7196 2.52508 31.3195 2.55365 31.6622 2.73932C31.9193 2.88215 32.105 3.43917 32.0479 3.75339C31.9479 4.35326 31.7337 4.96742 31.4337 5.51016C29.4627 9.09512 27.4774 12.6658 25.4636 16.2222C24.7066 17.5505 23.9067 18.8645 23.1212 20.1785C22.8641 20.6212 22.5784 21.0497 22.2785 21.4496C21.95 21.9067 21.4501 22.1781 20.9502 21.8781C20.6217 21.6782 20.2646 21.5353 20.2646 20.9069Z" fill="#CD4631"/>
<path d="M40.4886 42.1746C39.8031 42.0603 39.0032 41.9746 38.232 41.8032C35.1897 41.1177 32.1475 40.4321 29.1196 39.718C28.4626 39.5609 27.8199 39.2895 27.2343 38.9753C26.4487 38.5611 26.1774 37.9755 26.3059 37.3328C26.4345 36.69 26.9486 36.2901 27.8484 36.2758C28.4626 36.2616 29.1196 36.2758 29.7052 36.4187C33.5472 37.3899 37.3893 38.3897 41.217 39.4038C41.6455 39.518 42.0883 39.718 42.4168 40.0036C43.2452 40.7035 42.9881 41.8032 41.9312 42.0746C41.517 42.1746 41.0456 42.1317 40.4886 42.1746Z" fill="#CD4631"/>
<path d="M0.354785 3.88211C0.411916 3.21082 0.554743 2.53954 0.726135 1.88253C0.883245 1.29694 1.28316 0.882745 1.92588 0.825614C2.46862 0.782766 3.05421 1.32551 3.13991 2.03964C3.25417 2.99658 3.35415 3.96781 3.3113 4.92475C3.18276 7.80985 2.99708 10.7092 2.79712 13.5943C2.72571 14.5513 2.59717 15.5082 2.44006 16.4652C2.38293 16.7937 2.26866 17.1364 2.08299 17.3935C1.5831 18.122 0.669005 18.0648 0.311938 17.2793C0.11198 16.8365 0.0262845 16.2938 0.0262845 15.8082C-0.0451289 14.2085 0.169111 6.25304 0.354785 3.88211Z" fill="#CD4631"/>
</svg>
