<svg width="18" height="17" viewBox="0 0 18 17" fill="none" xmlns="http://www.w3.org/2000/svg">
<path d="M8.15869 5.3999V7.89323V8.8898V11.3831H10.2154V8.8898V7.89323V5.3999H8.15869Z" fill="black"/>
<path d="M1.9886 8.85999C2.55669 8.85999 3.01723 8.39946 3.01723 7.83136C3.01723 7.26326 2.55669 6.80273 1.9886 6.80273C1.4205 6.80273 0.959961 7.26326 0.959961 7.83136C0.959961 8.39946 1.4205 8.85999 1.9886 8.85999Z" fill="black"/>
<path d="M1.9886 9.98109C2.55669 9.98109 3.01723 9.52056 3.01723 8.95246C3.01723 8.38436 2.55669 7.92383 1.9886 7.92383C1.4205 7.92383 0.959961 8.38436 0.959961 8.95246C0.959961 9.52056 1.4205 9.98109 1.9886 9.98109Z" fill="black"/>
<path d="M3.01723 7.83105H0.959961V8.95319H3.01723V7.83105Z" fill="black"/>
<path d="M16.3856 9.98109C16.9537 9.98109 17.4142 9.52056 17.4142 8.95246C17.4142 8.38436 16.9537 7.92383 16.3856 7.92383C15.8175 7.92383 15.3569 8.38436 15.3569 8.95246C15.3569 9.52056 15.8175 9.98109 16.3856 9.98109Z" fill="black"/>
<path d="M16.3856 8.85999C16.9537 8.85999 17.4142 8.39946 17.4142 7.83136C17.4142 7.26326 16.9537 6.80273 16.3856 6.80273C15.8175 6.80273 15.3569 7.26326 15.3569 7.83136C15.3569 8.39946 15.8175 8.85999 16.3856 8.85999Z" fill="black"/>
<path d="M15.3569 8.95319H17.4142V7.83105H15.3569V8.95319Z" fill="black"/>
<path d="M5.54084 12.2252C6.10892 12.2252 6.56946 11.7647 6.56946 11.1966C6.56946 10.6285 6.10892 10.168 5.54084 10.168C4.97274 10.168 4.51221 10.6285 4.51221 11.1966C4.51221 11.7647 4.97274 12.2252 5.54084 12.2252Z" fill="black"/>
<path d="M5.54084 13.3473C6.10892 13.3473 6.56946 12.8868 6.56946 12.3187C6.56946 11.7506 6.10892 11.29 5.54084 11.29C4.97274 11.29 4.51221 11.7506 4.51221 12.3187C4.51221 12.8868 4.97274 13.3473 5.54084 13.3473Z" fill="black"/>
<path d="M6.56946 11.1968H4.51221V12.3189H6.56946V11.1968Z" fill="black"/>
<path d="M5.54084 5.49425C6.10892 5.49425 6.56946 5.03372 6.56946 4.46564C6.56946 3.89755 6.10892 3.43701 5.54084 3.43701C4.97274 3.43701 4.51221 3.89755 4.51221 4.46564C4.51221 5.03372 4.97274 5.49425 5.54084 5.49425Z" fill="black"/>
<path d="M5.54084 9.13929C6.10892 9.13929 6.56946 8.67876 6.56946 8.11066C6.56946 7.54256 6.10892 7.08203 5.54084 7.08203C4.97274 7.08203 4.51221 7.54256 4.51221 8.11066C4.51221 8.67876 4.97274 9.13929 5.54084 9.13929Z" fill="black"/>
<path d="M6.56892 4.46533H4.51221V8.13473H6.56892V4.46533Z" fill="black"/>
<path d="M12.8328 6.61634C13.4009 6.61634 13.8614 6.15581 13.8614 5.58771C13.8614 5.01961 13.4009 4.55908 12.8328 4.55908C12.2647 4.55908 11.8042 5.01961 11.8042 5.58771C11.8042 6.15581 12.2647 6.61634 12.8328 6.61634Z" fill="black"/>
<path d="M12.8328 5.49425C13.4009 5.49425 13.8614 5.03372 13.8614 4.46564C13.8614 3.89755 13.4009 3.43701 12.8328 3.43701C12.2647 3.43701 11.8042 3.89755 11.8042 4.46564C11.8042 5.03372 12.2647 5.49425 12.8328 5.49425Z" fill="black"/>
<path d="M11.8042 5.58746H13.8615V4.46533H11.8042V5.58746Z" fill="black"/>
<path d="M9.18732 3.34388C9.75544 3.34388 10.216 2.88335 10.216 2.31525C10.216 1.74715 9.75544 1.28662 9.18732 1.28662C8.61923 1.28662 8.15869 1.74715 8.15869 2.31525C8.15869 2.88335 8.61923 3.34388 9.18732 3.34388Z" fill="black"/>
<path d="M9.18731 2.22229C9.75544 2.22229 10.216 1.76176 10.216 1.19367C10.216 0.625572 9.75544 0.165039 9.18731 0.165039C8.61923 0.165039 8.15869 0.625572 8.15869 1.19367C8.15869 1.76176 8.61923 2.22229 9.18731 2.22229Z" fill="black"/>
<path d="M8.15869 2.3155H10.216V1.19336H8.15869V2.3155Z" fill="black"/>
<path d="M9.18732 16.6193C9.75544 16.6193 10.216 16.1587 10.216 15.5906C10.216 15.0225 9.75544 14.562 9.18732 14.562C8.61923 14.562 8.15869 15.0225 8.15869 15.5906C8.15869 16.1587 8.61923 16.6193 9.18732 16.6193Z" fill="black"/>
<path d="M9.18732 15.4977C9.75544 15.4977 10.216 15.0372 10.216 14.4691C10.216 13.901 9.75544 13.4404 9.18732 13.4404C8.61923 13.4404 8.15869 13.901 8.15869 14.4691C8.15869 15.0372 8.61923 15.4977 9.18732 15.4977Z" fill="black"/>
<path d="M8.15869 15.5914H10.216V14.4692H8.15869V15.5914Z" fill="black"/>
<path d="M12.8328 13.3473C13.4009 13.3473 13.8614 12.8868 13.8614 12.3187C13.8614 11.7506 13.4009 11.29 12.8328 11.29C12.2647 11.29 11.8042 11.7506 11.8042 12.3187C11.8042 12.8868 12.2647 13.3473 12.8328 13.3473Z" fill="black"/>
<path d="M12.8328 9.70227C13.4009 9.70227 13.8614 9.24174 13.8614 8.67365C13.8614 8.10555 13.4009 7.64502 12.8328 7.64502C12.2647 7.64502 11.8042 8.10555 11.8042 8.67365C11.8042 9.24174 12.2647 9.70227 12.8328 9.70227Z" fill="black"/>
<path d="M11.8042 12.3184H13.861V8.67236H11.8042V12.3184Z" fill="black"/>
<path d="M9.18732 6.42886C9.75544 6.42886 10.216 5.96829 10.216 5.40023C10.216 4.83213 9.75544 4.37158 9.18732 4.37158C8.61923 4.37158 8.15869 4.83213 8.15869 5.40023C8.15869 5.96829 8.61923 6.42886 9.18732 6.42886Z" fill="black"/>
<path d="M9.18732 12.4127C9.75544 12.4127 10.216 11.9522 10.216 11.3841C10.216 10.816 9.75544 10.3555 9.18732 10.3555C8.61923 10.3555 8.15869 10.816 8.15869 11.3841C8.15869 11.9522 8.61923 12.4127 9.18732 12.4127Z" fill="black"/>
</svg>
