<svg width="17" height="17" viewBox="0 0 17 17" fill="none" xmlns="http://www.w3.org/2000/svg">
<path d="M8.35186 0.164062C6.72472 0.164062 5.13414 0.646552 3.78123 1.55051C2.42837 2.45451 1.37392 3.73938 0.751215 5.24261C0.128556 6.74588 -0.0343592 8.40003 0.283096 9.99585C0.600504 11.5917 1.38402 13.0576 2.53457 14.2081C3.68513 15.3587 5.15103 16.1422 6.74688 16.4596C8.34272 16.7771 9.99685 16.6142 11.5001 15.9915C13.0034 15.3688 14.2882 14.3144 15.1922 12.9615C16.0962 11.6086 16.5787 10.018 16.5787 8.3909C16.5787 6.20899 15.7119 4.11648 14.1691 2.57366C12.6262 1.0308 10.5337 0.164062 8.35186 0.164062ZM12.1271 12.0283C12.0921 12.0864 12.0459 12.137 11.9912 12.1771C11.9364 12.2173 11.8743 12.2461 11.8083 12.262C11.7423 12.2779 11.6738 12.2805 11.6068 12.2696C11.5398 12.2588 11.4756 12.2348 11.418 12.199C9.48772 11.0172 7.0584 10.7545 4.19575 11.4046C4.13061 11.4201 4.06308 11.4226 3.99699 11.4117C3.93094 11.401 3.86762 11.3772 3.81086 11.3418C3.75405 11.3064 3.70484 11.26 3.66608 11.2054C3.62731 11.1508 3.59984 11.0891 3.58515 11.0237C3.5695 10.9582 3.56701 10.8903 3.57768 10.8237C3.5884 10.7572 3.61209 10.6935 3.64746 10.6361C3.68283 10.5788 3.72921 10.529 3.78381 10.4896C3.83847 10.4502 3.90035 10.422 3.96592 10.4066C7.09778 9.69088 9.78972 9.99948 11.9564 11.3258C12.072 11.3964 12.1549 11.5101 12.1869 11.6417C12.2189 11.7734 12.1974 11.9124 12.1271 12.0283ZM13.1317 9.78937C13.0399 9.93053 12.8975 10.031 12.7337 10.0701C12.57 10.1092 12.3975 10.0839 12.2519 9.99948C9.75545 8.6069 6.80833 8.26215 4.05786 9.04087C3.97229 9.08862 3.87709 9.11657 3.77932 9.1227C3.68149 9.12883 3.58357 9.113 3.49268 9.07635C3.4018 9.03971 3.32029 8.98323 3.2541 8.91096C3.18791 8.83873 3.13871 8.75255 3.11014 8.65885C3.08156 8.56509 3.07434 8.46617 3.08898 8.36928C3.10363 8.27238 3.13976 8.18003 3.19475 8.09892C3.24974 8.01781 3.32221 7.95008 3.40678 7.9006C3.49139 7.85116 3.58596 7.82123 3.6836 7.81312C5.2188 7.37118 6.82685 7.24049 8.41326 7.42882C9.99968 7.61711 11.5325 8.12055 12.9216 8.9096C13.0627 9.00133 13.1632 9.1438 13.2023 9.30751C13.2414 9.47127 13.2161 9.64376 13.1317 9.78937ZM13.217 7.45856C10.5907 5.88277 6.19831 5.73832 3.66393 6.50652C3.4689 6.56576 3.25831 6.54505 3.07855 6.44898C2.89879 6.35295 2.76454 6.18943 2.70534 5.99439C2.64614 5.7994 2.66681 5.58881 2.76287 5.40902C2.85887 5.22928 3.02241 5.09502 3.21744 5.03583C6.12608 4.15602 10.9519 4.32673 14.0049 6.13227C14.1619 6.24462 14.2708 6.4119 14.31 6.60091C14.3492 6.78987 14.3159 6.98669 14.2166 7.15224C14.1173 7.31774 13.9593 7.43978 13.7741 7.49409C13.5889 7.54846 13.39 7.53108 13.217 7.44543V7.45856Z" fill="black"/>
</svg>
