<svg width="15" height="11" viewBox="0 0 15 11" fill="none" xmlns="http://www.w3.org/2000/svg">
<path fill-rule="evenodd" clip-rule="evenodd" d="M2.34651 0.409214C1.32818 0.459665 0.510166 1.25703 0.444079 2.27447C0.380762 3.24926 0.318359 4.4487 0.318359 5.38981C0.318359 6.33093 0.380762 7.53037 0.444079 8.50515C0.510166 9.5226 1.32818 10.32 2.34651 10.3704C3.82113 10.4435 5.92879 10.5316 7.51683 10.5316C9.10488 10.5316 11.2125 10.4435 12.6872 10.3704C13.7055 10.32 14.5235 9.5226 14.5896 8.50516C14.6529 7.53037 14.7153 6.33093 14.7153 5.38981C14.7153 4.4487 14.6529 3.24926 14.5896 2.27447C14.5235 1.25703 13.7055 0.459665 12.6872 0.409214C11.2125 0.336157 9.10488 0.248047 7.51683 0.248047C5.92879 0.248047 3.82113 0.336157 2.34651 0.409214ZM10.0876 5.38998L5.97415 7.44669V3.33327L10.0876 5.38998Z" fill="black"/>
</svg>
