<svg width="12" height="12" viewBox="0 0 12 12" fill="none" xmlns="http://www.w3.org/2000/svg">
<path d="M5.30566 3.89917V5.56138V6.22577V7.88795H6.67683V6.22577V5.56138V3.89917H5.30566Z" fill="#FAB908"/>
<path d="M1.19241 6.20513C1.57105 6.20513 1.87799 5.89819 1.87799 5.51956C1.87799 5.14092 1.57105 4.83398 1.19241 4.83398C0.813779 4.83398 0.506836 5.14092 0.506836 5.51956C0.506836 5.89819 0.813779 6.20513 1.19241 6.20513Z" fill="#0066D9"/>
<path d="M1.19241 6.95318C1.57105 6.95318 1.87799 6.64624 1.87799 6.2676C1.87799 5.88897 1.57105 5.58203 1.19241 5.58203C0.813779 5.58203 0.506836 5.88897 0.506836 6.2676C0.506836 6.64624 0.813779 6.95318 1.19241 6.95318Z" fill="#0066D9"/>
<path d="M1.87799 5.51978H0.506836V6.26767H1.87799V5.51978Z" fill="#0066D9"/>
<path d="M10.7906 6.95318C11.1692 6.95318 11.4761 6.64624 11.4761 6.2676C11.4761 5.88897 11.1692 5.58203 10.7906 5.58203C10.4119 5.58203 10.105 5.88897 10.105 6.2676C10.105 6.64624 10.4119 6.95318 10.7906 6.95318Z" fill="#4285F4"/>
<path d="M10.7906 6.20513C11.1692 6.20513 11.4761 5.89819 11.4761 5.51956C11.4761 5.14092 11.1692 4.83398 10.7906 4.83398C10.4119 4.83398 10.105 5.14092 10.105 5.51956C10.105 5.89819 10.4119 6.20513 10.7906 6.20513Z" fill="#4285F4"/>
<path d="M10.105 6.26767H11.4761V5.51978H10.105V6.26767Z" fill="#4285F4"/>
<path d="M3.56057 8.44878C3.93919 8.44878 4.24614 8.14184 4.24614 7.76321C4.24614 7.38458 3.93919 7.07764 3.56057 7.07764C3.18194 7.07764 2.875 7.38458 2.875 7.76321C2.875 8.14184 3.18194 8.44878 3.56057 8.44878Z" fill="#EA4335"/>
<path d="M3.56057 9.19686C3.93919 9.19686 4.24614 8.88992 4.24614 8.51129C4.24614 8.13265 3.93919 7.82568 3.56057 7.82568C3.18194 7.82568 2.875 8.13265 2.875 8.51129C2.875 8.88992 3.18194 9.19686 3.56057 9.19686Z" fill="#EA4335"/>
<path d="M4.24614 7.76343H2.875V8.51133H4.24614V7.76343Z" fill="#EA4335"/>
<path d="M3.56057 3.96146C3.93919 3.96146 4.24614 3.65453 4.24614 3.2759C4.24614 2.89727 3.93919 2.59033 3.56057 2.59033C3.18194 2.59033 2.875 2.89727 2.875 3.2759C2.875 3.65453 3.18194 3.96146 3.56057 3.96146Z" fill="#EA4335"/>
<path d="M3.56057 6.39214C3.93919 6.39214 4.24614 6.0852 4.24614 5.70657C4.24614 5.32793 3.93919 5.021 3.56057 5.021C3.18194 5.021 2.875 5.32793 2.875 5.70657C2.875 6.0852 3.18194 6.39214 3.56057 6.39214Z" fill="#EA4335"/>
<path d="M4.2465 3.27563H2.875V5.72254H4.2465V3.27563Z" fill="#EA4335"/>
<path d="M8.42239 4.70953C8.80101 4.70953 9.10796 4.40259 9.10796 4.02395C9.10796 3.64532 8.80101 3.33838 8.42239 3.33838C8.04376 3.33838 7.73682 3.64532 7.73682 4.02395C7.73682 4.40259 8.04376 4.70953 8.42239 4.70953Z" fill="#34A853"/>
<path d="M8.42239 3.96146C8.80101 3.96146 9.10796 3.65453 9.10796 3.2759C9.10796 2.89727 8.80101 2.59033 8.42239 2.59033C8.04376 2.59033 7.73682 2.89727 7.73682 3.2759C7.73682 3.65453 8.04376 3.96146 8.42239 3.96146Z" fill="#34A853"/>
<path d="M7.73682 4.02377H9.10799V3.27588H7.73682V4.02377Z" fill="#34A853"/>
<path d="M5.99123 2.52788C6.36988 2.52788 6.67683 2.22094 6.67683 1.84231C6.67683 1.46368 6.36988 1.15674 5.99123 1.15674C5.61261 1.15674 5.30566 1.46368 5.30566 1.84231C5.30566 2.22094 5.61261 2.52788 5.99123 2.52788Z" fill="#FAB908"/>
<path d="M5.99123 1.78032C6.36988 1.78032 6.67683 1.47338 6.67683 1.09475C6.67683 0.716121 6.36988 0.40918 5.99123 0.40918C5.61261 0.40918 5.30566 0.716121 5.30566 1.09475C5.30566 1.47338 5.61261 1.78032 5.99123 1.78032Z" fill="#FAB908"/>
<path d="M5.30566 1.84263H6.67683V1.09473H5.30566V1.84263Z" fill="#FAB908"/>
<path d="M5.99123 11.3782C6.36988 11.3782 6.67683 11.0713 6.67683 10.6927C6.67683 10.314 6.36988 10.0071 5.99123 10.0071C5.61261 10.0071 5.30566 10.314 5.30566 10.6927C5.30566 11.0713 5.61261 11.3782 5.99123 11.3782Z" fill="#FAB908"/>
<path d="M5.99123 10.6304C6.36988 10.6304 6.67683 10.3235 6.67683 9.94485C6.67683 9.56622 6.36988 9.25928 5.99123 9.25928C5.61261 9.25928 5.30566 9.56622 5.30566 9.94485C5.30566 10.3235 5.61261 10.6304 5.99123 10.6304Z" fill="#FAB908"/>
<path d="M5.30566 10.6925H6.67683V9.94458H5.30566V10.6925Z" fill="#FAB908"/>
<path d="M8.42239 9.19686C8.80101 9.19686 9.10796 8.88992 9.10796 8.51129C9.10796 8.13265 8.80101 7.82568 8.42239 7.82568C8.04376 7.82568 7.73682 8.13265 7.73682 8.51129C7.73682 8.88992 8.04376 9.19686 8.42239 9.19686Z" fill="#34A853"/>
<path d="M8.42239 6.76592C8.80101 6.76592 9.10796 6.45898 9.10796 6.08035C9.10796 5.70171 8.80101 5.39478 8.42239 5.39478C8.04376 5.39478 7.73682 5.70171 7.73682 6.08035C7.73682 6.45898 8.04376 6.76592 8.42239 6.76592Z" fill="#34A853"/>
<path d="M7.73682 8.51214H9.10835V6.08081H7.73682V8.51214Z" fill="#34A853"/>
<path d="M5.99123 4.58478C6.36988 4.58478 6.67683 4.27781 6.67683 3.89921C6.67683 3.52058 6.36988 3.21362 5.99123 3.21362C5.61261 3.21362 5.30566 3.52058 5.30566 3.89921C5.30566 4.27781 5.61261 4.58478 5.99123 4.58478Z" fill="#FAB908"/>
<path d="M5.99123 8.57378C6.36988 8.57378 6.67683 8.26684 6.67683 7.88821C6.67683 7.50958 6.36988 7.20264 5.99123 7.20264C5.61261 7.20264 5.30566 7.50958 5.30566 7.88821C5.30566 8.26684 5.61261 8.57378 5.99123 8.57378Z" fill="#FAB908"/>
</svg>
