<svg width="140" height="140" viewBox="0 0 140 140" fill="none" xmlns="http://www.w3.org/2000/svg">
<path d="M44.0283 110.587C45.0786 106.749 45.8866 103.477 46.8763 100.265C48.5326 94.8117 50.4111 89.4994 54.269 85.0759C58.1876 80.5918 63.0757 78.8951 68.6708 80.5312C72.1046 81.5411 75.2556 83.4802 78.4672 85.1163C79.7195 85.7627 80.8102 86.7726 82.5271 88.0047C81.8808 84.9345 81.3354 82.5309 80.891 80.107C79.7801 74.1888 78.4268 68.3109 77.7198 62.3523C76.7099 54.192 80.8304 49.3039 89.0715 48.5767C92.3033 48.2939 95.6361 48.7989 98.9285 48.9807C99.9183 49.0413 100.888 49.2433 102.059 49.4049C99.0295 44.5572 96.0805 39.9923 93.3335 35.3465C86.9305 24.4998 94.1414 17.8948 102.827 16.7637C105.15 16.4607 107.594 16.7233 109.957 16.9455C111.533 17.1475 112.825 18.1574 112.583 19.8945C112.381 21.47 110.967 21.9144 109.472 21.9548C107.998 22.0154 106.503 21.975 105.069 22.1971C103.392 22.4597 101.696 22.7425 100.1 23.3283C95.6159 24.9846 94.2828 27.772 96.1815 32.1753C97.5146 35.2859 99.3123 38.2148 101.049 41.1234C102.665 43.83 104.423 46.4761 106.18 49.1221C107.069 50.4956 107.917 51.9095 107.069 53.5254C106.099 55.3837 104.261 55.2423 102.564 55.1211C100.403 54.9797 98.2822 54.5152 96.1209 54.495C93.3941 54.4344 90.647 54.4344 87.9808 54.798C84.3652 55.3029 82.9513 56.8784 82.9715 60.5344C82.9917 64.0288 83.2139 67.604 83.7996 71.058C85.0924 78.4507 86.6275 85.7627 88.1828 93.0948C88.5464 94.8319 88.5262 96.3064 87.0112 97.3366C85.5771 98.3263 84.2036 97.7203 82.9311 96.771C80.6688 95.0743 78.447 93.2564 76.1039 91.6809C74.0436 90.3074 71.9026 88.9339 69.6403 87.9643C63.6009 85.3587 59.5611 86.6514 55.784 92.0041C52.9359 96.0236 50.9564 100.467 49.5425 105.153C48.5124 108.527 47.7044 111.96 46.8157 115.354C46.3511 117.152 45.8663 119.01 43.6243 119.272C41.5034 119.495 40.3723 117.96 39.3421 116.404C38.918 115.738 38.5948 115.01 38.2514 114.304C37.5849 112.869 36.8173 111.456 36.2921 109.961C32.313 98.8717 23.6275 95.1551 12.7808 95.0137C10.7811 94.9935 8.76121 95.5995 6.76153 95.9832C5.77179 96.165 4.80226 96.6498 3.81251 96.7104C3.10555 96.771 2.03502 96.5488 1.75224 96.064C1.42906 95.5389 1.67144 94.4885 1.89363 93.8624C2.39859 92.509 3.77212 91.3779 5.02445 90.8528C7.50889 89.8226 10.1549 88.9137 12.801 88.6511C18.6586 88.0451 24.3345 89.2369 29.8083 91.4385C34.4742 93.317 37.6252 96.8316 39.8471 101.195C41.261 104.063 42.4326 107.012 44.0283 110.587Z" fill="black"/>
</svg>
