<svg width="137" height="119" viewBox="0 0 137 119" fill="none" xmlns="http://www.w3.org/2000/svg">
<path d="M58.7946 41.6957C57.0562 38.9509 55.7915 36.9365 54.5169 34.9465C49.3992 26.8934 44.2227 18.845 39.1835 10.7385C37.9725 8.8025 36.9775 6.61307 36.4676 4.42057C36.1959 3.1189 36.7141 1.19922 37.6123 0.312701C38.1375 -0.213395 40.478 0.333316 41.3827 1.12397C43.6079 3.0149 45.6316 5.19356 47.4395 7.48386C53.0537 14.6586 58.5355 21.9503 64.2861 29.4923C66.7832 25.2771 69.1724 21.0468 71.7868 16.964C73.8016 13.8032 76.0612 10.741 78.3646 7.78169C79.8528 5.85591 81.9081 4.49946 84.3791 5.92191C86.948 7.38385 86.9626 9.88741 85.9388 12.2844C82.9362 19.4461 79.7966 26.5243 76.745 33.6663C76.0068 35.3553 75.3665 37.0838 74.6773 38.7926C74.848 39.1453 77.9757 38.0227 79.4759 37.4074C92.3016 32.136 105.108 26.9133 117.992 21.779C119.791 21.0572 121.854 20.669 123.794 20.6568C124.823 20.646 126.379 21.5858 126.71 22.4574C127.042 23.329 126.494 25.0383 125.734 25.7249C124.291 27.0445 122.515 28.0598 120.726 28.8989C108.903 34.5751 97.0519 40.1827 85.2151 45.8246C83.9157 46.4358 82.5966 47.0958 80.6499 48.042C86.9945 50.0903 92.747 51.8429 98.4207 53.7909C109.832 57.7409 121.228 61.7984 132.609 65.8216C133.304 66.0736 134.039 66.3697 134.577 66.7287C138.094 69.0842 136.206 72.7785 133.121 72.1018C129.351 71.2906 125.497 70.6159 121.776 69.5408C108.464 65.6472 95.2111 61.6071 81.9288 57.6403C81.6497 57.5561 81.3656 57.555 80.4693 57.449C82.8809 61.629 85.1119 65.4807 87.3527 69.3079C91.5658 76.5703 95.8817 83.7891 99.9575 91.1097C101.041 93.0794 101.761 95.3852 102.061 97.6062C102.394 99.9545 100.584 101.126 98.686 99.7644C96.3821 98.0688 94.1624 95.953 92.5848 93.5853C84.8777 82.0753 77.4061 70.4047 69.856 58.7877C69.016 57.4839 68.176 56.1801 66.965 54.2441C64.3628 59.6373 62.0604 64.4987 59.6601 69.3206C52.5086 83.6643 45.357 98.0079 38.1565 112.332C37.3499 113.908 36.3622 115.44 35.2426 116.805C33.7153 118.686 31.6758 119.51 29.3707 118.381C27.2125 117.312 26.516 115.3 26.9713 113.043C27.4116 110.893 28.0429 108.763 28.8846 106.747C34.3682 93.5755 39.9155 80.4579 45.4481 67.3061C45.8664 66.3395 46.2259 65.3776 46.9053 63.6933C45.3463 64.3133 44.2776 64.7053 43.2136 65.156C31.3388 70.1866 19.4541 75.2416 7.55479 80.2623C6.2163 80.8293 4.75544 81.347 3.31512 81.3904C2.33531 81.4209 0.876727 80.8042 0.447183 80.0349C0.0176397 79.2656 0.451739 77.7661 0.796366 76.9117C1.90395 74.2364 3.83039 73.6227 5.72336 72.5981C16.8654 66.5624 28.1003 60.6493 39.3644 54.8047C43.4297 52.698 47.6511 50.9097 52.7162 48.5818C45.7785 46.6633 39.7318 45.0757 33.7638 43.2929C28.0259 41.5745 22.3668 39.6608 16.6537 37.8104C16.0466 37.6223 15.4742 37.2779 14.9653 36.9875C12.2887 35.5105 15.0807 33.174 15.9671 33.3045C22.0741 34.1784 28.2103 35.1208 34.2529 36.3661C41.397 37.9138 57.0705 41.5963 58.7946 41.6957Z" fill="black"/>
</svg>
