<svg width="26" height="25" viewBox="0 0 26 25" fill="none" xmlns="http://www.w3.org/2000/svg">
<circle cx="12.8627" cy="12.6336" r="10.7977" fill="url(#paint0_linear_502_2709)"/>
<path d="M14.7499 6.9671C14.9833 6.55975 14.8438 6.03945 14.4383 5.80499C14.0328 5.57054 13.515 5.7107 13.2816 6.11806L12.8745 6.82857L12.4675 6.11806C12.2341 5.7107 11.7162 5.57054 11.3108 5.80499C10.9053 6.03945 10.7658 6.55975 10.9992 6.9671L11.8972 8.53462L9.05677 13.4927H6.76847C6.30064 13.4927 5.92139 13.8737 5.92139 14.3437C5.92139 14.8137 6.30064 15.1947 6.76847 15.1947H14.7388C14.8087 15.0103 14.8823 14.6937 14.804 14.4028C14.6864 13.9655 14.251 13.4927 13.5216 13.4927H11.0115L14.7499 6.9671Z" fill="white"/>
<path d="M9.49728 16.1358C9.35276 15.9746 9.02894 15.7169 8.745 15.6321C8.31205 15.5028 7.98385 15.5839 7.81825 15.6546L7.18728 16.756C6.95391 17.1633 7.09342 17.6836 7.49889 17.9181C7.90436 18.1525 8.42224 18.0124 8.65561 17.605L9.49728 16.1358Z" fill="white"/>
<path d="M17.6674 15.1947H18.9571C19.4249 15.1947 19.8042 14.8137 19.8042 14.3437C19.8042 13.8737 19.4249 13.4927 18.9571 13.4927H16.6923L14.1412 9.03953C13.9517 9.22046 13.5883 9.68269 13.5334 10.2067C13.4628 10.8805 13.5687 11.4478 13.8863 12.0034C14.9543 13.8711 16.0239 15.7381 17.0935 17.605C17.3268 18.0124 17.8447 18.1525 18.2502 17.9181C18.6556 17.6836 18.7952 17.1633 18.5618 16.756L17.6674 15.1947Z" fill="white"/>
<defs>
<linearGradient id="paint0_linear_502_2709" x1="12.8627" y1="1.83594" x2="12.8627" y2="23.4314" gradientUnits="userSpaceOnUse">
<stop stop-color="#2AC9FA"/>
<stop offset="1" stop-color="#1F65EB"/>
</linearGradient>
</defs>
</svg>
