<svg width="85" height="16" viewBox="0 0 85 16" fill="none" xmlns="http://www.w3.org/2000/svg">
<path d="M7.31787 5.33887V7.62441V8.53794V10.8234H9.25946V8.53794V7.62441V5.33887H7.31787Z" fill="#FAB908"/>
<path d="M1.4935 8.50984C2.02979 8.50984 2.46454 8.08769 2.46454 7.56693C2.46454 7.04617 2.02979 6.62402 1.4935 6.62402C0.95721 6.62402 0.522461 7.04617 0.522461 7.56693C0.522461 8.08769 0.95721 8.50984 1.4935 8.50984Z" fill="#0066D9"/>
<path d="M1.4935 9.53816C2.02979 9.53816 2.46454 9.11601 2.46454 8.59525C2.46454 8.07449 2.02979 7.65234 1.4935 7.65234C0.95721 7.65234 0.522461 8.07449 0.522461 8.59525C0.522461 9.11601 0.95721 9.53816 1.4935 9.53816Z" fill="#0066D9"/>
<path d="M2.46454 7.56689H0.522461V8.59552H2.46454V7.56689Z" fill="#0066D9"/>
<path d="M15.0843 9.53816C15.6206 9.53816 16.0553 9.11601 16.0553 8.59525C16.0553 8.07449 15.6206 7.65234 15.0843 7.65234C14.548 7.65234 14.1133 8.07449 14.1133 8.59525C14.1133 9.11601 14.548 9.53816 15.0843 9.53816Z" fill="#4285F4"/>
<path d="M15.0843 8.50984C15.6206 8.50984 16.0553 8.08769 16.0553 7.56693C16.0553 7.04617 15.6206 6.62402 15.0843 6.62402C14.548 6.62402 14.1133 7.04617 14.1133 7.56693C14.1133 8.08769 14.548 8.50984 15.0843 8.50984Z" fill="#4285F4"/>
<path d="M14.1133 8.59552H16.0553V7.56689H14.1133V8.59552Z" fill="#4285F4"/>
<path d="M4.84701 11.5953C5.38328 11.5953 5.81804 11.1731 5.81804 10.6524C5.81804 10.1316 5.38328 9.70947 4.84701 9.70947C4.31072 9.70947 3.87598 10.1316 3.87598 10.6524C3.87598 11.1731 4.31072 11.5953 4.84701 11.5953Z" fill="#EA4335"/>
<path d="M4.84701 12.6237C5.38328 12.6237 5.81804 12.2015 5.81804 11.6807C5.81804 11.16 5.38328 10.7378 4.84701 10.7378C4.31072 10.7378 3.87598 11.16 3.87598 11.6807C3.87598 12.2015 4.31072 12.6237 4.84701 12.6237Z" fill="#EA4335"/>
<path d="M5.81804 10.6523H3.87598V11.681H5.81804V10.6523Z" fill="#EA4335"/>
<path d="M4.84701 5.42584C5.38328 5.42584 5.81804 5.00369 5.81804 4.48295C5.81804 3.96219 5.38328 3.54004 4.84701 3.54004C4.31072 3.54004 3.87598 3.96219 3.87598 4.48295C3.87598 5.00369 4.31072 5.42584 4.84701 5.42584Z" fill="#EA4335"/>
<path d="M4.84701 8.76814C5.38328 8.76814 5.81804 8.34599 5.81804 7.82523C5.81804 7.30448 5.38328 6.88232 4.84701 6.88232C4.31072 6.88232 3.87598 7.30448 3.87598 7.82523C3.87598 8.34599 4.31072 8.76814 4.84701 8.76814Z" fill="#EA4335"/>
<path d="M5.81804 4.48193H3.87598V7.84643H5.81804V4.48193Z" fill="#EA4335"/>
<path d="M11.7308 6.45369C12.2671 6.45369 12.7018 6.03154 12.7018 5.51078C12.7018 4.99003 12.2671 4.56787 11.7308 4.56787C11.1945 4.56787 10.7598 4.99003 10.7598 5.51078C10.7598 6.03154 11.1945 6.45369 11.7308 6.45369Z" fill="#34A853"/>
<path d="M11.7308 5.42584C12.2671 5.42584 12.7018 5.00369 12.7018 4.48295C12.7018 3.96219 12.2671 3.54004 11.7308 3.54004C11.1945 3.54004 10.7598 3.96219 10.7598 4.48295C10.7598 5.00369 11.1945 5.42584 11.7308 5.42584Z" fill="#34A853"/>
<path d="M10.7598 5.51055H12.7019V4.48193H10.7598V5.51055Z" fill="#34A853"/>
<path d="M8.2889 3.45466C8.82522 3.45466 9.25997 3.03251 9.25997 2.51176C9.25997 1.991 8.82522 1.56885 8.2889 1.56885C7.75263 1.56885 7.31787 1.991 7.31787 2.51176C7.31787 3.03251 7.75263 3.45466 8.2889 3.45466Z" fill="#FAB908"/>
<path d="M8.2889 2.42586C8.82522 2.42586 9.25997 2.0037 9.25997 1.48295C9.25997 0.962195 8.82522 0.540039 8.2889 0.540039C7.75263 0.540039 7.31787 0.962195 7.31787 1.48295C7.31787 2.0037 7.75263 2.42586 8.2889 2.42586Z" fill="#FAB908"/>
<path d="M7.31787 2.51105H9.25997V1.48242H7.31787V2.51105Z" fill="#FAB908"/>
<path d="M8.2889 15.6236C8.82522 15.6236 9.25997 15.2015 9.25997 14.6807C9.25997 14.1599 8.82522 13.7378 8.2889 13.7378C7.75263 13.7378 7.31787 14.1599 7.31787 14.6807C7.31787 15.2015 7.75263 15.6236 8.2889 15.6236Z" fill="#FAB908"/>
<path d="M8.2889 14.5943C8.82522 14.5943 9.25997 14.1722 9.25997 13.6514C9.25997 13.1306 8.82522 12.7085 8.2889 12.7085C7.75263 12.7085 7.31787 13.1306 7.31787 13.6514C7.31787 14.1722 7.75263 14.5943 8.2889 14.5943Z" fill="#FAB908"/>
<path d="M7.31787 14.681H9.25997V13.6523H7.31787V14.681Z" fill="#FAB908"/>
<path d="M11.7308 12.6237C12.2671 12.6237 12.7018 12.2015 12.7018 11.6807C12.7018 11.16 12.2671 10.7378 11.7308 10.7378C11.1945 10.7378 10.7598 11.16 10.7598 11.6807C10.7598 12.2015 11.1945 12.6237 11.7308 12.6237Z" fill="#34A853"/>
<path d="M11.7308 9.2823C12.2671 9.2823 12.7018 8.86015 12.7018 8.33939C12.7018 7.81864 12.2671 7.39648 11.7308 7.39648C11.1945 7.39648 10.7598 7.81864 10.7598 8.33939C10.7598 8.86015 11.1945 9.2823 11.7308 9.2823Z" fill="#34A853"/>
<path d="M10.7598 11.6815H12.7019V8.33838H10.7598V11.6815Z" fill="#34A853"/>
<path d="M8.2889 6.28232C8.82522 6.28232 9.25997 5.86013 9.25997 5.33941C9.25997 4.81866 8.82522 4.39648 8.2889 4.39648C7.75263 4.39648 7.31787 4.81866 7.31787 5.33941C7.31787 5.86013 7.75263 6.28232 8.2889 6.28232Z" fill="#FAB908"/>
<path d="M8.2889 11.7662C8.82522 11.7662 9.25997 11.344 9.25997 10.8233C9.25997 10.3025 8.82522 9.88037 8.2889 9.88037C7.75263 9.88037 7.31787 10.3025 7.31787 10.8233C7.31787 11.344 7.75263 11.7662 8.2889 11.7662Z" fill="#FAB908"/>
<path fill-rule="evenodd" clip-rule="evenodd" d="M51.8034 10.448H50.9951V4.33936H53.1391C53.672 4.33936 54.1332 4.51141 54.5227 4.8555C54.9122 5.19961 55.1069 5.63329 55.1069 6.15657C55.1069 6.67985 54.9122 7.11353 54.5227 7.45765C54.1332 7.80176 53.672 7.97382 53.1391 7.97382H51.8034V10.448ZM51.8034 7.22304H53.1564C53.4963 7.22304 53.7687 7.11212 53.9736 6.89031C54.1786 6.66846 54.2812 6.42388 54.2812 6.15657C54.2812 5.88926 54.1786 5.64468 53.9736 5.42287C53.7687 5.20103 53.4963 5.09014 53.1564 5.09014H51.8034V7.22304ZM55.7773 6.77087C56.1931 6.34426 56.723 6.13097 57.3675 6.13097C58.012 6.13097 58.542 6.34284 58.9578 6.76659C59.3736 7.19033 59.5815 7.72068 59.5815 8.35771C59.5815 8.99474 59.3736 9.52513 58.9578 9.94887C58.542 10.3726 58.012 10.5844 57.3675 10.5844C56.723 10.5844 56.1931 10.3726 55.7773 9.94887C55.3615 9.52513 55.1536 8.99474 55.1536 8.35771C55.1536 7.72068 55.3615 7.19175 55.7773 6.77087ZM56.3747 9.4583C56.656 9.7313 56.9869 9.86783 57.3675 9.86783C57.7481 9.86783 58.0778 9.72989 58.3561 9.45402C58.634 9.17818 58.7732 8.81275 58.7732 8.35771C58.7732 7.90271 58.634 7.53727 58.3561 7.2614C58.0778 6.98557 57.7481 6.84763 57.3675 6.84763C56.9869 6.84763 56.6573 6.98557 56.3789 7.2614C56.101 7.53727 55.9619 7.90271 55.9619 8.35771C55.9619 8.81275 56.0993 9.1796 56.3747 9.4583ZM62.0177 10.5844C61.4615 10.5844 60.9812 10.3712 60.5769 9.94459C60.1729 9.51802 59.9705 8.98905 59.9705 8.35771C59.9705 7.72637 60.1729 7.19744 60.5769 6.77087C60.9812 6.34426 61.4615 6.13097 62.0177 6.13097C62.3457 6.13097 62.6402 6.19925 62.9007 6.33574C63.1616 6.47226 63.3564 6.64286 63.4849 6.84763H63.5201L63.4849 6.26749V4.33936H64.2936V10.448H63.5201V9.86783H63.4849C63.3564 10.0726 63.1616 10.2432 62.9007 10.3797C62.6402 10.5162 62.3457 10.5844 62.0177 10.5844ZM62.1497 9.86783C62.5303 9.86783 62.854 9.7313 63.1205 9.4583C63.3869 9.18529 63.5201 8.81844 63.5201 8.35771C63.5201 7.89702 63.3869 7.53017 63.1205 7.25716C62.854 6.98415 62.5303 6.84763 62.1497 6.84763C61.7746 6.84763 61.4526 6.98557 61.1832 7.2614C60.9137 7.53727 60.7788 7.90271 60.7788 8.35771C60.7788 8.81275 60.9137 9.17818 61.1832 9.45402C61.4526 9.72989 61.7746 9.86783 62.1497 9.86783ZM67.0986 10.5844C66.4545 10.5844 65.9242 10.3726 65.5084 9.94887C65.0926 9.52513 64.8847 8.99474 64.8847 8.35771C64.8847 7.72068 65.0926 7.19033 65.5084 6.76659C65.9242 6.34284 66.4545 6.13097 67.0986 6.13097C67.5789 6.13097 67.9773 6.24472 68.2934 6.47226C68.6099 6.69976 68.8412 6.98698 68.9875 7.33392L68.2497 7.63253C68.027 7.10925 67.626 6.84763 67.046 6.84763C66.6887 6.84763 66.3739 6.98985 66.1015 7.2742C65.8291 7.55859 65.6929 7.91975 65.6929 8.35771C65.6929 8.79567 65.8291 9.15686 66.1015 9.44122C66.3739 9.72561 66.6887 9.86783 67.046 9.86783C67.6493 9.86783 68.0651 9.60617 68.2934 9.08293L69.0138 9.3815C68.8675 9.72279 68.632 10.0086 68.3066 10.2389C67.9816 10.4693 67.5789 10.5844 67.0986 10.5844ZM70.9316 10.5844C70.4751 10.5844 70.0928 10.4565 69.7852 10.2006C69.4776 9.94459 69.324 9.60617 69.324 9.18529C69.324 8.73025 69.5056 8.37338 69.8688 8.11458C70.232 7.85579 70.68 7.72637 71.2129 7.72637C71.6873 7.72637 72.0768 7.81169 72.3814 7.98234V7.8629C72.3814 7.55577 72.2732 7.30978 72.0564 7.12492C71.8396 6.94006 71.5732 6.84763 71.2571 6.84763C71.0224 6.84763 70.8103 6.90166 70.6198 7.00975C70.4297 7.11781 70.2994 7.26568 70.229 7.45336L69.4907 7.14624C69.5905 6.89596 69.7869 6.66423 70.0797 6.45094C70.3724 6.23761 70.759 6.13097 71.2392 6.13097C71.79 6.13097 72.2469 6.2874 72.6101 6.60022C72.9733 6.91304 73.1549 7.35383 73.1549 7.92262V10.448H72.3814V9.86783H72.3462C72.0242 10.3456 71.5528 10.5844 70.9316 10.5844ZM71.0636 9.86783C71.3975 9.86783 71.7005 9.74693 71.9728 9.50522C72.2452 9.26351 72.3814 8.9777 72.3814 8.6478C72.1532 8.46581 71.8103 8.37479 71.3534 8.37479C70.9609 8.37479 70.6652 8.45724 70.4662 8.6222C70.2672 8.78715 70.1675 8.98053 70.1675 9.20233C70.1675 9.4071 70.2583 9.56922 70.4399 9.68866C70.6215 9.80811 70.8294 9.86783 71.0636 9.86783ZM75.5208 10.5844C75.0405 10.5844 74.6433 10.4707 74.3302 10.2432C74.0166 10.0157 73.7867 9.73131 73.6403 9.39006L74.3608 9.09997C74.5894 9.62325 74.9789 9.88487 75.5292 9.88487C75.7813 9.88487 75.9879 9.83084 76.1487 9.72278C76.3099 9.61473 76.3905 9.47251 76.3905 9.29621C76.3905 9.02317 76.1941 8.83835 75.8016 8.74164L74.9318 8.53687C74.6565 8.46863 74.396 8.33926 74.1499 8.1487C73.9042 7.95815 73.7812 7.70081 73.7812 7.3766C73.7812 7.00689 73.9492 6.70687 74.2861 6.4765C74.623 6.24617 75.0226 6.13097 75.4855 6.13097C75.8661 6.13097 76.206 6.21488 76.5047 6.38266C76.8034 6.55048 77.0172 6.79078 77.1462 7.1036L76.4432 7.38512C76.2849 7.01541 75.9569 6.83059 75.4592 6.83059C75.2191 6.83059 75.0167 6.87892 74.8529 6.97559C74.6887 7.0723 74.6068 7.20313 74.6068 7.36804C74.6068 7.60693 74.7973 7.76905 75.1779 7.85438L76.0303 8.05058C76.4343 8.1416 76.733 8.29799 76.9264 8.51983C77.1199 8.74164 77.2162 8.99191 77.2162 9.27061C77.2162 9.64598 77.0584 9.9588 76.7419 10.2091C76.4258 10.4594 76.0184 10.5844 75.5208 10.5844ZM79.6351 10.5162C79.1841 10.5162 78.84 10.3996 78.6028 10.1664C78.3652 9.9332 78.2468 9.60334 78.2468 9.17677V6.98415H77.4912V6.26749H78.2468V4.98774H79.0551V6.26749H80.1094V6.98415H79.0551V9.11705C79.0551 9.57205 79.2486 9.79955 79.6351 9.79955C79.7815 9.79955 79.9045 9.77681 80.0038 9.73131L80.2851 10.4053C80.1094 10.4793 79.8926 10.5162 79.6351 10.5162ZM82.4664 10.5844C81.9861 10.5844 81.5894 10.4707 81.2762 10.2432C80.9627 10.0157 80.7327 9.73131 80.5863 9.39006L81.3068 9.09997C81.5351 9.62325 81.9246 9.88487 82.4753 9.88487C82.7273 9.88487 82.9335 9.83084 83.0947 9.72278C83.256 9.61473 83.3362 9.47251 83.3362 9.29621C83.3362 9.02317 83.1401 8.83835 82.7477 8.74164L81.8779 8.53687C81.6025 8.46863 81.342 8.33926 81.0959 8.1487C80.8498 7.95815 80.7268 7.70081 80.7268 7.3766C80.7268 7.00689 80.8952 6.70687 81.2321 6.4765C81.569 6.24617 81.9687 6.13097 82.4316 6.13097C82.8122 6.13097 83.152 6.21488 83.4507 6.38266C83.7494 6.55048 83.9633 6.79078 84.0918 7.1036L83.3892 7.38512C83.2309 7.01541 82.903 6.83059 82.4049 6.83059C82.1647 6.83059 81.9627 6.87892 81.799 6.97559C81.6348 7.0723 81.5529 7.20313 81.5529 7.36804C81.5529 7.60693 81.743 7.76905 82.124 7.85438L82.9759 8.05058C83.3803 8.1416 83.679 8.29799 83.8725 8.51983C84.0655 8.74164 84.1623 8.99191 84.1623 9.27061C84.1623 9.64598 84.004 9.9588 83.6879 10.2091C83.3714 10.4594 82.9645 10.5844 82.4664 10.5844Z" fill="#14142B"/>
<path d="M20.2979 7.08227C20.2979 5.14936 21.9659 3.58301 23.9564 3.58301C25.0547 3.58301 25.8372 4.00292 26.4275 4.54947L25.7274 5.22267C25.3087 4.83608 24.7389 4.53615 23.9564 4.53615C22.5081 4.53615 21.3755 5.66923 21.3755 7.07562C21.3755 8.48201 22.5081 9.61509 23.9564 9.61509C24.8968 9.61509 25.4322 9.24849 25.7754 8.91523C26.0569 8.64197 26.2422 8.24873 26.3108 7.71547H23.9564V6.76234H27.2718C27.3061 6.93564 27.3267 7.13559 27.3267 7.36222C27.3267 8.08207 27.1276 8.96855 26.4756 9.5951C25.8372 10.235 25.0272 10.5749 23.9564 10.5749C21.9659 10.5749 20.2979 9.00857 20.2979 7.08227ZM29.9694 6.11583C31.253 6.11583 32.2963 7.06228 32.2963 8.36867C32.2963 9.66842 31.253 10.6216 29.9694 10.6216C28.6858 10.6216 27.6424 9.66842 27.6424 8.36867C27.6424 7.06228 28.6858 6.11583 29.9694 6.11583ZM29.9694 9.72839C30.6695 9.72839 31.2804 9.16853 31.2804 8.36202C31.2804 7.54886 30.6695 6.99566 29.9694 6.99566C29.2624 6.99566 28.6584 7.54886 28.6584 8.36202C28.6584 9.16853 29.2692 9.72839 29.9694 9.72839ZM35.0488 6.11583C36.3324 6.11583 37.3758 7.06228 37.3758 8.36867C37.3758 9.66842 36.3324 10.6216 35.0488 10.6216C33.7652 10.6216 32.7219 9.66842 32.7219 8.36867C32.7219 7.06228 33.7652 6.11583 35.0488 6.11583ZM35.0488 9.72839C35.749 9.72839 36.3598 9.16853 36.3598 8.36202C36.3598 7.54886 35.7558 6.99566 35.0488 6.99566C34.3418 6.99566 33.7378 7.54886 33.7378 8.36202C33.7378 9.16853 34.3487 9.72839 35.0488 9.72839ZM41.2814 6.18915H42.2562V10.235C42.2562 11.9013 41.2471 12.5811 40.0527 12.5811C38.927 12.5811 38.2475 11.848 37.9935 11.2481L38.879 10.8882C39.0369 11.2548 39.4213 11.688 40.0459 11.688C40.8078 11.688 41.2814 11.2281 41.2814 10.3683V10.0417H41.2471C41.0206 10.315 40.5813 10.5549 40.0253 10.5549C38.8653 10.5549 37.8013 9.56842 37.8013 8.3087C37.8013 7.03564 38.8653 6.04917 40.0253 6.04917C40.5813 6.04917 41.0206 6.2891 41.2471 6.55575H41.2814V6.18915ZM40.1145 9.66842C40.8078 9.66842 41.3569 9.10187 41.35 8.3087C41.35 7.51553 40.8078 6.93564 40.1145 6.93564C39.4144 6.93564 38.8241 7.51553 38.8241 8.3087C38.8241 9.09522 39.4144 9.66842 40.1145 9.66842ZM42.9494 10.4682V3.84962H43.9652V10.4682H42.9494ZM46.7591 9.72839C47.2806 9.72839 47.6374 9.48177 47.9051 9.10852L48.6947 9.62174C48.4338 9.98834 47.8228 10.6216 46.7591 10.6216C45.4409 10.6216 44.4595 9.62843 44.4595 8.36867C44.4595 7.02895 45.4549 6.11583 46.6493 6.11583C47.8504 6.11583 48.4406 7.04229 48.6328 7.54886L48.7359 7.80213L45.6331 9.04855C45.8736 9.49511 46.2373 9.72839 46.7591 9.72839ZM46.6836 6.98232C46.1617 6.98232 45.4409 7.42888 45.4685 8.29536L47.5415 7.46221C47.4316 7.17561 47.0884 6.98232 46.6836 6.98232Z" fill="#14142B"/>
</svg>
