<svg width="14" height="14" viewBox="0 0 14 14" fill="none" xmlns="http://www.w3.org/2000/svg">
<path d="M11.2781 3.10937C11.2781 3.63945 10.8484 4.06917 10.3183 4.06917C9.78821 4.06917 9.35849 3.63945 9.35849 3.10937C9.35849 2.57929 9.78821 2.14957 10.3183 2.14957C10.8484 2.14957 11.2781 2.57929 11.2781 3.10937Z" fill="black"/>
<path fill-rule="evenodd" clip-rule="evenodd" d="M6.79904 9.82795C8.56597 9.82795 9.99836 8.39556 9.99836 6.62863C9.99836 4.86169 8.56597 3.4293 6.79904 3.4293C5.0321 3.4293 3.59971 4.86169 3.59971 6.62863C3.59971 8.39556 5.0321 9.82795 6.79904 9.82795ZM6.79904 8.54822C7.8592 8.54822 8.71863 7.68879 8.71863 6.62863C8.71863 5.56846 7.8592 4.70903 6.79904 4.70903C5.73887 4.70903 4.87944 5.56846 4.87944 6.62863C4.87944 7.68879 5.73887 8.54822 6.79904 8.54822Z" fill="black"/>
<path fill-rule="evenodd" clip-rule="evenodd" d="M0.400391 6.37268C0.400391 4.22253 0.400391 3.14746 0.818837 2.32621C1.18691 1.60382 1.77423 1.0165 2.49662 0.648427C3.31787 0.22998 4.39294 0.22998 6.54309 0.22998H7.05498C9.20513 0.22998 10.2802 0.22998 11.1014 0.648427C11.8238 1.0165 12.4112 1.60382 12.7792 2.32621C13.1977 3.14746 13.1977 4.22253 13.1977 6.37268V6.88457C13.1977 9.03472 13.1977 10.1098 12.7792 10.931C12.4112 11.6534 11.8238 12.2407 11.1014 12.6088C10.2802 13.0273 9.20513 13.0273 7.05498 13.0273H6.54309C4.39294 13.0273 3.31787 13.0273 2.49662 12.6088C1.77423 12.2407 1.18691 11.6534 0.818837 10.931C0.400391 10.1098 0.400391 9.03472 0.400391 6.88457V6.37268ZM6.54309 1.50971H7.05498C8.15117 1.50971 8.89635 1.5107 9.47234 1.55777C10.0334 1.60361 10.3203 1.68669 10.5205 1.78867C11.0021 2.03406 11.3936 2.4256 11.639 2.9072C11.741 3.10735 11.8241 3.39427 11.8699 3.95532C11.917 4.53131 11.918 5.27649 11.918 6.37268V6.88457C11.918 7.98076 11.917 8.72594 11.8699 9.30193C11.8241 9.86298 11.741 10.1499 11.639 10.3501C11.3936 10.8316 11.0021 11.2232 10.5205 11.4686C10.3203 11.5706 10.0334 11.6536 9.47234 11.6995C8.89635 11.7465 8.15117 11.7475 7.05498 11.7475H6.54309C5.4469 11.7475 4.70172 11.7465 4.12573 11.6995C3.56468 11.6536 3.27776 11.5706 3.07761 11.4686C2.59601 11.2232 2.20447 10.8316 1.95908 10.3501C1.8571 10.1499 1.77402 9.86298 1.72818 9.30193C1.68111 8.72594 1.68012 7.98076 1.68012 6.88457V6.37268C1.68012 5.27649 1.68111 4.53131 1.72818 3.95532C1.77402 3.39427 1.8571 3.10735 1.95908 2.9072C2.20447 2.4256 2.59601 2.03406 3.07761 1.78867C3.27776 1.68669 3.56468 1.60361 4.12573 1.55777C4.70172 1.5107 5.4469 1.50971 6.54309 1.50971Z" fill="black"/>
</svg>
