<svg width="56" height="16" viewBox="0 0 56 16" fill="none" xmlns="http://www.w3.org/2000/svg">
<path d="M7.94265 0.540527C6.48181 0.540527 5.0538 0.982809 3.83917 1.81143C2.62459 2.6401 1.67791 3.8179 1.11885 5.19586C0.559833 6.57386 0.413569 8.09016 0.698578 9.553C0.983544 11.0159 1.68698 12.3596 2.71994 13.4143C3.7529 14.4689 5.06897 15.1872 6.50171 15.4781C7.93444 15.7691 9.41951 15.6198 10.7691 15.049C12.1187 14.4782 13.2723 13.5116 14.0839 12.2715C14.8954 11.0313 15.3286 9.57332 15.3286 8.0818C15.3286 6.08171 14.5504 4.16357 13.1653 2.74933C11.7802 1.33503 9.90153 0.540527 7.94265 0.540527ZM11.332 11.4161C11.3006 11.4694 11.2591 11.5157 11.21 11.5525C11.1608 11.5893 11.105 11.6157 11.0458 11.6303C10.9866 11.6448 10.9251 11.6472 10.8649 11.6373C10.8048 11.6274 10.7472 11.6054 10.6954 11.5726C8.96242 10.4892 6.78139 10.2485 4.21132 10.8443C4.15285 10.8586 4.09222 10.8608 4.03288 10.8509C3.97358 10.841 3.91673 10.8192 3.86577 10.7868C3.81477 10.7543 3.7706 10.7118 3.73579 10.6618C3.70099 10.6117 3.67633 10.5551 3.66313 10.4952C3.64908 10.4352 3.64685 10.3729 3.65643 10.3119C3.66605 10.2509 3.68733 10.1925 3.71908 10.1399C3.75083 10.0874 3.79247 10.0418 3.8415 10.0056C3.89057 9.96953 3.94612 9.94364 4.00499 9.92948C6.81675 9.27344 9.23355 9.55632 11.1788 10.7721C11.2826 10.8369 11.357 10.9411 11.3857 11.0617C11.4144 11.1825 11.3952 11.3099 11.332 11.4161ZM12.2339 9.36372C12.1516 9.49312 12.0237 9.58522 11.8767 9.62107C11.7297 9.65691 11.5748 9.63372 11.4441 9.55632C9.20278 8.27979 6.55688 7.96377 4.08753 8.6776C4.01071 8.72137 3.92524 8.74699 3.83746 8.75261C3.74963 8.75823 3.66172 8.74372 3.58012 8.71013C3.49852 8.67654 3.42535 8.62476 3.36592 8.55851C3.3065 8.49231 3.26233 8.41331 3.23667 8.32741C3.21102 8.24147 3.20453 8.15079 3.21768 8.06197C3.23083 7.97315 3.26327 7.88849 3.31264 7.81415C3.36201 7.7398 3.42707 7.67771 3.50299 7.63235C3.57896 7.58703 3.66387 7.55959 3.75152 7.55216C5.12982 7.14705 6.57351 7.02725 7.99778 7.19989C9.42205 7.37248 10.7982 7.83397 12.0453 8.55727C12.172 8.64136 12.2622 8.77195 12.2973 8.92202C12.3324 9.07213 12.3097 9.23025 12.2339 9.36372ZM12.3106 7.22715C9.95271 5.78268 6.00921 5.65027 3.73386 6.35445C3.55877 6.40875 3.3697 6.38976 3.20831 6.3017C3.04693 6.21367 2.9264 6.06378 2.87325 5.88499C2.8201 5.70625 2.83866 5.51321 2.9249 5.34841C3.01109 5.18364 3.15791 5.06057 3.33301 5.00632C5.94437 4.19982 10.2769 4.3563 13.0179 6.01139C13.1588 6.11437 13.2566 6.26771 13.2919 6.44097C13.3271 6.61418 13.2971 6.79461 13.2079 6.94635C13.1188 7.09806 12.9769 7.20994 12.8107 7.25972C12.6444 7.30955 12.4658 7.29362 12.3106 7.21511V7.22715Z" fill="#1ED760"/>
<path d="M23.0345 6.8867C21.6196 6.53761 21.3661 6.28488 21.3661 5.79135C21.3661 5.29782 21.8082 4.98485 22.4686 4.98485C23.1763 5.01193 23.8561 5.27636 24.4018 5.73718C24.413 5.74298 24.425 5.74599 24.4375 5.74599C24.4495 5.74599 24.4619 5.74298 24.4727 5.73718C24.4959 5.73262 24.5169 5.71983 24.5316 5.70107L25.2272 4.70197C25.241 4.68396 25.2487 4.6617 25.2487 4.63878C25.2487 4.61585 25.241 4.59359 25.2272 4.57558C24.4602 3.9346 23.4947 3.59322 22.5039 3.6126C20.9772 3.6126 19.9103 4.55151 19.9103 5.88765C19.9103 7.32606 20.8298 7.83764 22.4214 8.22885C23.777 8.54784 24.0069 8.83072 24.0069 9.29415C24.0069 9.75754 23.5411 10.1488 22.8279 10.1488C21.9848 10.1428 21.177 9.80171 20.5763 9.19786C20.5535 9.19002 20.5286 9.19002 20.5054 9.19786C20.4814 9.20379 20.459 9.21627 20.4405 9.23397L19.6508 10.1668C19.6345 10.1847 19.625 10.2084 19.625 10.233C19.625 10.2577 19.6345 10.2813 19.6508 10.2992C20.5089 11.084 21.623 11.5133 22.775 11.503C24.4194 11.503 25.4867 10.5821 25.4867 9.16174C25.4631 7.97607 24.7554 7.31402 23.0345 6.8867Z" fill="black"/>
<path d="M29.1885 5.45903C28.8478 5.45686 28.5113 5.53444 28.205 5.6857C27.8982 5.83696 27.6296 6.05797 27.4199 6.33173V5.66968C27.4187 5.64521 27.4079 5.62224 27.3903 5.60547C27.3727 5.58869 27.3495 5.57936 27.3258 5.5794H26.0467C26.0226 5.57936 25.9994 5.58869 25.9818 5.60547C25.9642 5.62224 25.9539 5.64521 25.9521 5.66968V13.0123C25.9521 13.0379 25.962 13.0624 25.9796 13.0804C25.9977 13.0985 26.0213 13.1086 26.0467 13.1086H27.3138C27.3387 13.1086 27.3628 13.0985 27.3804 13.0804C27.398 13.0624 27.4083 13.0379 27.4083 13.0123V10.7072C27.6249 10.9695 27.896 11.1795 28.202 11.322C28.5075 11.4646 28.8405 11.5362 29.1765 11.5318C30.5029 11.5318 31.847 10.4906 31.847 8.49238C31.847 6.49424 30.5145 5.45903 29.1885 5.45903ZM30.3671 8.46831C30.3895 8.68356 30.3676 8.90112 30.3031 9.10726C30.2387 9.31339 30.133 9.50365 29.9929 9.66597C29.8524 9.8283 29.6809 9.95916 29.4889 10.0504C29.2964 10.1415 29.088 10.191 28.8761 10.1957C28.6634 10.1889 28.4546 10.1383 28.2617 10.047C28.0688 9.95553 27.896 9.8252 27.7542 9.66376C27.612 9.50236 27.5033 9.31317 27.4346 9.10774C27.3662 8.90227 27.3392 8.68476 27.3551 8.46831C27.34 8.25234 27.3675 8.03549 27.4367 7.83073C27.5055 7.626 27.6142 7.43757 27.7564 7.27679C27.8982 7.11606 28.0709 6.98626 28.263 6.89518C28.4555 6.80415 28.6639 6.75374 28.8761 6.74702C29.0906 6.75078 29.302 6.80012 29.4966 6.89191C29.6913 6.98369 29.8653 7.11588 30.0071 7.28007C30.1493 7.4443 30.2563 7.63689 30.3212 7.84564C30.386 8.05435 30.408 8.2746 30.3848 8.49238L30.3671 8.46831Z" fill="black"/>
<path d="M35.3012 5.45937C34.7121 5.47012 34.1393 5.65874 33.655 6.0014C33.1708 6.34411 32.797 6.82551 32.5804 7.38494C32.3638 7.94432 32.3144 8.55671 32.4382 9.14477C32.5624 9.73283 32.8541 10.2703 33.2765 10.6893C33.6993 11.1083 34.2343 11.3901 34.8135 11.4992C35.3927 11.6083 35.9908 11.5397 36.5322 11.3022C37.0732 11.0647 37.5338 10.6688 37.8548 10.1645C38.1762 9.66025 38.3438 9.07016 38.3369 8.46865C38.3313 8.06743 38.2488 7.67118 38.0932 7.30267C37.9373 6.93416 37.7121 6.60061 37.4302 6.3211C37.1484 6.04154 36.8149 5.82155 36.4497 5.67369C36.0845 5.52584 35.6939 5.453 35.3012 5.45937ZM35.3012 10.2321C35.0833 10.2292 34.8685 10.1813 34.6691 10.0914C34.4702 10.0015 34.2905 9.87143 34.1419 9.70893C33.9932 9.54647 33.8785 9.35498 33.8041 9.14597C33.7298 8.93695 33.6976 8.71475 33.7096 8.49272C33.6959 8.27375 33.7264 8.05425 33.7986 7.84771C33.8712 7.64122 33.9846 7.45203 34.1316 7.29191C34.2785 7.13176 34.456 7.00404 34.6528 6.91659C34.85 6.82914 35.0627 6.78383 35.2775 6.78347C35.4958 6.78484 35.7119 6.83127 35.9122 6.92004C36.1128 7.00877 36.2937 7.138 36.4441 7.29988C36.5941 7.46181 36.711 7.65308 36.787 7.86218C36.8631 8.07128 36.897 8.29397 36.8867 8.5168C36.9004 8.73758 36.8695 8.9589 36.796 9.16694C36.7226 9.37503 36.6078 9.56541 36.4592 9.72628C36.3101 9.88719 36.1309 10.0151 35.9315 10.1021C35.7321 10.1891 35.5177 10.2333 35.3012 10.2321Z" fill="black"/>
<path d="M41.9856 5.58011H40.5887V4.12364C40.5887 4.09912 40.5797 4.07549 40.563 4.05757C40.5466 4.03969 40.5243 4.02889 40.5002 4.02734H39.2327C39.2077 4.02734 39.1837 4.03748 39.1661 4.05553C39.1484 4.07359 39.1386 4.09811 39.1386 4.12364V5.58011H38.5138C38.5022 5.58011 38.4906 5.58245 38.4799 5.58701C38.4691 5.59153 38.4592 5.59821 38.4511 5.60657C38.4429 5.61494 38.4365 5.6249 38.4322 5.63587C38.4274 5.6468 38.4253 5.65857 38.4253 5.67039V6.78384C38.4253 6.80836 38.4343 6.83199 38.4506 6.84991C38.4674 6.86779 38.4897 6.87859 38.5138 6.88014H39.1033V9.757C39.1033 10.9186 39.6924 11.5084 40.789 11.5084C41.2015 11.5203 41.6092 11.4162 41.968 11.2075C41.9822 11.2005 41.9947 11.1894 42.0028 11.1755C42.0114 11.1616 42.0153 11.1455 42.0153 11.1293V10.07C42.0153 10.0536 42.0119 10.0374 42.0045 10.0227C41.9972 10.0081 41.9869 9.99536 41.974 9.98571C41.9599 9.97664 41.9435 9.97182 41.9268 9.97182C41.91 9.97182 41.8937 9.97664 41.8795 9.98571C41.6492 10.1048 41.3948 10.1666 41.1366 10.1663C40.7301 10.1663 40.5475 9.97969 40.5475 9.56441V6.88014H41.9444C41.9693 6.88014 41.9934 6.87 42.011 6.85195C42.0286 6.83389 42.0385 6.80937 42.0385 6.78384V5.67039C42.0394 5.65171 42.0346 5.63326 42.0252 5.6172C42.0157 5.60118 42.002 5.5883 41.9856 5.58011Z" fill="black"/>
<path d="M46.8484 5.58735V5.40679C46.8484 4.87719 47.0431 4.64247 47.4852 4.64247C47.731 4.64534 47.9746 4.69221 48.2045 4.7809C48.2174 4.78687 48.2316 4.78997 48.2457 4.78997C48.2599 4.78997 48.2741 4.78687 48.287 4.7809C48.2982 4.77156 48.3076 4.75961 48.3136 4.74602C48.3197 4.73244 48.3227 4.71761 48.3222 4.70265V3.60124C48.3231 3.58013 48.3175 3.55929 48.3059 3.5419C48.2939 3.5245 48.2771 3.51154 48.2573 3.50494C47.9132 3.4125 47.5578 3.37196 47.2025 3.38457C46.0234 3.38457 45.4339 4.05866 45.4339 5.32859V5.60541H44.8444C44.8212 5.60541 44.7984 5.61492 44.7821 5.63187C44.7653 5.64882 44.7559 5.67174 44.7559 5.69569V6.81515C44.7559 6.83967 44.7649 6.8633 44.7816 6.88123C44.798 6.8991 44.8203 6.9099 44.8444 6.91145H45.4339V11.3532C45.4339 11.3771 45.4434 11.4001 45.4597 11.417C45.4764 11.4339 45.4988 11.4434 45.5224 11.4434H46.7659C46.79 11.4435 46.8132 11.4342 46.8308 11.4174C46.8484 11.4006 46.8587 11.3776 46.8605 11.3532V6.88136H48.0395L49.8549 11.3171C49.6487 11.7865 49.4424 11.8768 49.1653 11.8768C48.9208 11.87 48.6819 11.8018 48.4696 11.6782C48.4576 11.6723 48.4447 11.6692 48.4314 11.6692C48.418 11.6692 48.4052 11.6723 48.3931 11.6782C48.3811 11.6817 48.3704 11.6878 48.3613 11.6961C48.3519 11.7045 48.3446 11.7148 48.3398 11.7263L47.945 12.6832C47.9364 12.705 47.936 12.7293 47.9433 12.7514C47.951 12.7736 47.966 12.7922 47.9862 12.8036C48.3983 13.0449 48.8671 13.1676 49.3419 13.1587C50.2734 13.1587 50.7921 12.7133 51.2518 11.5157L53.4505 5.71374C53.4578 5.69985 53.4617 5.68436 53.4617 5.6686C53.4617 5.65289 53.4578 5.6374 53.4505 5.62346C53.4415 5.61178 53.4299 5.60244 53.4166 5.5962C53.4032 5.58992 53.3886 5.58691 53.374 5.58735H52.0184C51.9995 5.58859 51.9814 5.59478 51.9659 5.60536C51.9505 5.61589 51.938 5.63045 51.9299 5.64754L50.5798 9.5897L49.124 5.64754C49.1167 5.62961 49.1047 5.61426 49.0888 5.60355C49.0729 5.59279 49.0544 5.58717 49.0355 5.58735H46.8484Z" fill="black"/>
<path d="M44.0306 5.58057H42.7635C42.7115 5.58057 42.6689 5.62367 42.6689 5.67686V11.3223C42.6689 11.3755 42.7115 11.4186 42.7635 11.4186H44.0306C44.083 11.4186 44.1251 11.3755 44.1251 11.3223V5.67686C44.1251 5.62367 44.083 5.58057 44.0306 5.58057Z" fill="black"/>
<path d="M43.4002 3.00441C43.2192 3.00322 43.0417 3.05696 42.8909 3.15873C42.7396 3.26054 42.6218 3.40587 42.5518 3.57625C42.4817 3.74667 42.4628 3.93445 42.4972 4.11585C42.532 4.29726 42.6184 4.4641 42.746 4.59521C42.8737 4.72629 43.0366 4.81575 43.2137 4.85227C43.3912 4.88874 43.5751 4.87064 43.7427 4.80021C43.9099 4.72974 44.053 4.61013 44.1536 4.45657C44.2546 4.30301 44.3083 4.12236 44.3083 3.93755C44.3088 3.81528 44.286 3.69408 44.2409 3.58089C44.1953 3.46771 44.1287 3.36483 44.0445 3.27807C43.9598 3.19135 43.8596 3.12252 43.7492 3.07555C43.6383 3.02858 43.5201 3.00441 43.4002 3.00441Z" fill="black"/>
<path d="M54.5059 7.39149C54.3885 7.39228 54.2725 7.36931 54.1642 7.32393C54.0559 7.27852 53.9574 7.21159 53.8745 7.12704C53.7915 7.04245 53.7262 6.94192 53.6815 6.83129C53.6372 6.72063 53.6149 6.60204 53.6157 6.48248C53.6157 6.23976 53.7099 6.00701 53.8779 5.83539C54.046 5.66381 54.2742 5.5674 54.5119 5.5674C54.6288 5.56661 54.7448 5.58958 54.8536 5.63495C54.9619 5.68037 55.0603 5.7473 55.1432 5.83185C55.2258 5.91644 55.2915 6.01697 55.3358 6.12764C55.3805 6.23826 55.4028 6.35685 55.402 6.47646C55.402 6.71912 55.3078 6.95188 55.1398 7.1235C54.9713 7.29507 54.7435 7.39149 54.5059 7.39149ZM54.5059 5.65771C54.3455 5.65651 54.1887 5.70401 54.055 5.79418C53.9213 5.88435 53.8169 6.01308 53.755 6.16402C53.6931 6.31497 53.6763 6.48133 53.7073 6.64188C53.7382 6.80239 53.8156 6.94993 53.9286 7.06564C54.0421 7.18135 54.1865 7.26001 54.3438 7.29162C54.5011 7.32327 54.664 7.30641 54.8119 7.24324C54.9597 7.18007 55.0856 7.07343 55.1742 6.93691C55.2623 6.80035 55.3087 6.64006 55.3078 6.47646C55.3087 6.3692 55.2885 6.26287 55.249 6.16358C55.209 6.06429 55.1505 5.97399 55.0766 5.89785C55.0027 5.82176 54.9146 5.76133 54.8179 5.72012C54.7207 5.67891 54.6167 5.65771 54.5119 5.65771H54.5059ZM54.7061 6.57273L54.9541 6.93395H54.7418L54.5175 6.60288H54.3232V6.93395H54.1401V5.97678H54.5591C54.7771 5.97678 54.9245 6.09116 54.9245 6.27779C54.9258 6.34392 54.9056 6.40868 54.8673 6.46198C54.8291 6.51532 54.7745 6.55423 54.7122 6.57273H54.7061ZM54.5531 6.13932H54.3232V6.44033H54.5531C54.6709 6.44033 54.7418 6.38615 54.7418 6.28983C54.7418 6.19351 54.6769 6.13932 54.5591 6.13932H54.5531Z" fill="black"/>
</svg>
