<svg width="12" height="13" viewBox="0 0 12 13" fill="none" xmlns="http://www.w3.org/2000/svg">
<path d="M11.8936 3.49848V5.21279C11.8936 5.21279 11.0815 5.18096 10.4799 5.02801C9.64044 4.81409 9.10058 4.48599 9.10058 4.48599C9.10058 4.48599 8.72812 4.25202 8.69799 4.23544V8.75504C8.69799 9.00667 8.62908 9.63533 8.41899 10.1592C8.14474 10.845 7.7215 11.2951 7.64366 11.3871C7.64366 11.3871 7.12863 11.9954 6.22078 12.4051C5.40248 12.7746 4.68378 12.7653 4.46868 12.7746C4.46868 12.7746 3.22658 12.8238 2.10836 12.0973L2.10279 12.0933C1.98473 11.979 1.8736 11.8582 1.76994 11.7317C1.4131 11.2967 1.19437 10.7822 1.13941 10.6354C1.13931 10.6348 1.13931 10.6342 1.13941 10.6335C1.05097 10.3784 0.865156 9.76582 0.890544 9.17245C0.935463 8.12558 1.30374 7.48302 1.40111 7.32204C1.65899 6.88307 1.99439 6.49031 2.39238 6.16126C2.74359 5.87731 3.14168 5.65139 3.57031 5.49275C4.03367 5.3065 4.52985 5.20667 5.03225 5.19861V6.93404C5.03225 6.93404 4.11323 6.64258 3.3778 7.15866C2.86361 7.54051 2.59075 7.913 2.5104 8.57829C2.50705 9.0679 2.63232 9.76074 3.31949 10.2228C3.39965 10.2736 3.47833 10.3187 3.55552 10.3581C3.67557 10.5142 3.82168 10.6501 3.98797 10.7605C4.65923 11.1854 5.22169 11.2151 5.94094 10.9392C6.42054 10.7547 6.78156 10.3389 6.94896 9.87813C7.05414 9.5904 7.05274 9.30081 7.05274 9.00132V0.481934H8.72672C8.79592 0.87528 8.98731 1.43522 9.49341 1.98981C9.69643 2.19921 9.92509 2.38434 10.1744 2.54119C10.2481 2.61739 10.6247 2.99416 11.1082 3.22546C11.3582 3.34502 11.6218 3.43663 11.8936 3.49848Z" fill="black"/>
</svg>
