<svg width="15" height="13" viewBox="0 0 15 13" fill="none" xmlns="http://www.w3.org/2000/svg">
<path d="M5.04094 12.7992C3.37758 12.7992 1.82704 12.3154 0.521973 11.4807C1.63002 11.5524 3.58547 11.3807 4.80176 10.2205C2.97206 10.1365 2.14691 8.73325 2.03928 8.13355C2.19474 8.19352 2.93619 8.26549 3.35475 8.09757C1.24999 7.56984 0.927107 5.72276 0.99886 5.15904C1.3935 5.43491 2.06319 5.53086 2.32629 5.50687C0.365042 4.10357 1.07061 1.99263 1.41742 1.53686C2.82488 3.48678 4.93423 4.58193 7.54377 4.64285C7.49456 4.42705 7.46858 4.20239 7.46858 3.97164C7.46858 2.31562 8.80711 0.973145 10.4583 0.973145C11.321 0.973145 12.0984 1.33963 12.644 1.92583C13.2205 1.79074 14.0882 1.4745 14.5123 1.20103C14.2985 1.96865 13.6329 2.60899 13.2303 2.84633C13.227 2.83822 13.2337 2.8544 13.2303 2.84633C13.584 2.79283 14.5409 2.60893 14.9189 2.35245C14.732 2.78369 14.0263 3.5007 13.4472 3.90211C13.5549 8.65395 9.91931 12.7992 5.04094 12.7992Z" fill="#CD4631"/>
</svg>
