<svg width="66" height="16" viewBox="0 0 66 16" fill="none" xmlns="http://www.w3.org/2000/svg">
<path fill-rule="evenodd" clip-rule="evenodd" d="M7.75048 0.568128C7.75048 0.586293 8.09509 0.596048 8.7305 0.596048C9.36592 0.596048 9.71053 0.586293 9.71053 0.568128C9.71053 0.549963 9.36592 0.540039 8.7305 0.540039C8.09509 0.540039 7.75048 0.549963 7.75048 0.568128ZM12.5032 0.568128C12.5032 0.586293 12.8478 0.596048 13.4832 0.596048C14.1186 0.596048 14.4632 0.586293 14.4632 0.568128C14.4632 0.549963 14.1186 0.540039 13.4832 0.540039C12.8478 0.540039 12.5032 0.549963 12.5032 0.568128ZM5.80815 0.614718C5.75644 0.668709 5.8262 0.680146 6.20641 0.680146C6.5586 0.680146 6.62272 0.673754 6.62272 0.638097C6.62272 0.59403 5.84924 0.571828 5.80815 0.614718ZM15.6448 0.637424C15.6448 0.673923 15.706 0.680146 16.0632 0.680146C16.3859 0.680146 16.479 0.672241 16.4705 0.645161C16.4523 0.587807 15.6448 0.580238 15.6448 0.637424ZM4.59984 0.698816C4.5507 0.750283 4.60451 0.764244 4.85052 0.764244C5.07124 0.764244 5.11893 0.756843 5.11893 0.722195C5.11893 0.678296 4.64028 0.656767 4.59984 0.698816ZM17.1215 0.721186C17.1215 0.757011 17.1654 0.764244 17.379 0.764244C17.5728 0.764244 17.6335 0.755666 17.6252 0.729259C17.6071 0.672409 17.1215 0.664672 17.1215 0.721186ZM3.8473 0.806293C3.83457 0.841109 3.86212 0.848341 4.00551 0.848341C4.14197 0.848341 4.17918 0.839427 4.17918 0.806293C4.17918 0.773663 4.14374 0.764244 4.02097 0.764244C3.90514 0.764244 3.85858 0.775513 3.8473 0.806293ZM18.0805 0.781736C18.0326 0.831858 18.0751 0.848341 18.2515 0.848341C18.3917 0.848341 18.4389 0.839259 18.4307 0.813357C18.4186 0.775176 18.1132 0.74776 18.0805 0.781736ZM3.29308 0.89039C3.29308 0.921675 3.32434 0.932439 3.41392 0.932439C3.50349 0.932439 3.53475 0.921675 3.53475 0.89039C3.53475 0.859274 3.50349 0.848341 3.41392 0.848341C3.32434 0.848341 3.29308 0.859274 3.29308 0.89039ZM18.7326 0.89039C18.7326 0.919824 18.761 0.932439 18.8267 0.932439C18.8923 0.932439 18.9206 0.919824 18.9206 0.89039C18.9206 0.861124 18.8923 0.848341 18.8267 0.848341C18.761 0.848341 18.7326 0.861124 18.7326 0.89039ZM2.96184 0.951109C2.92173 0.993158 2.94912 1.01654 3.03805 1.01654C3.10362 1.01654 3.13198 1.00392 3.13198 0.974488C3.13198 0.931598 2.99826 0.913265 2.96184 0.951109ZM19.1354 0.972638C19.1354 1.00123 19.1597 1.01654 19.2048 1.01654C19.2889 1.01654 19.2797 0.950772 19.1937 0.937485C19.155 0.931598 19.1354 0.943372 19.1354 0.972638ZM2.72018 1.03521C2.68619 1.07086 2.70262 1.10063 2.75611 1.10063C2.78591 1.10063 2.80976 1.08196 2.80976 1.05859C2.80976 1.01603 2.75289 1.00106 2.72018 1.03521ZM19.404 1.05657C19.404 1.08264 19.4268 1.10063 19.4599 1.10063C19.5253 1.10063 19.5161 1.03521 19.4487 1.02158C19.4222 1.0162 19.404 1.0305 19.404 1.05657ZM2.54119 1.14268C2.54119 1.16589 2.55939 1.18473 2.58147 1.18473C2.6037 1.18473 2.62174 1.16589 2.62174 1.14268C2.62174 1.11964 2.6037 1.10063 2.58147 1.10063C2.55939 1.10063 2.54119 1.11964 2.54119 1.14268ZM19.5651 1.14268C19.5651 1.16606 19.5889 1.18473 19.6187 1.18473C19.6487 1.18473 19.6725 1.16606 19.6725 1.14268C19.6725 1.1193 19.6487 1.10063 19.6187 1.10063C19.5889 1.10063 19.5651 1.1193 19.5651 1.14268ZM55.2977 2.97181C55.3083 5.87823 55.3099 5.95425 55.358 5.84526C55.38 5.79514 55.4132 5.7541 55.4317 5.7541C55.4739 5.7541 55.4757 5.70801 55.4345 5.68127C55.4137 5.66798 55.4106 5.67437 55.425 5.70078C55.4404 5.72904 55.438 5.7319 55.416 5.71104C55.3937 5.68968 55.3853 5.06366 55.3845 3.39129C55.3837 1.2404 55.3808 1.10063 55.3373 1.10063C55.2938 1.10063 55.2914 1.21518 55.2977 2.97181ZM53.2031 7.86361C53.2068 11.5678 53.2097 14.6081 53.2099 14.6199C53.2099 14.6315 53.6238 14.6378 54.1297 14.6338C54.7201 14.6291 55.0493 14.6163 55.0493 14.5983C55.0493 14.5803 54.729 14.5677 54.1564 14.563L53.2637 14.5556V7.84208C53.2637 2.4901 53.2568 1.12872 53.23 1.12872C53.2033 1.12872 53.1978 2.49077 53.2031 7.86361ZM2.38008 1.22678C2.38008 1.24999 2.39829 1.26883 2.42036 1.26883C2.44259 1.26883 2.46064 1.24999 2.46064 1.22678C2.46064 1.20374 2.44259 1.18473 2.42036 1.18473C2.39829 1.18473 2.38008 1.20374 2.38008 1.22678ZM19.7531 1.22678C19.7531 1.24999 19.7711 1.26883 19.7934 1.26883C19.8154 1.26883 19.8336 1.24999 19.8336 1.22678C19.8336 1.20374 19.8154 1.18473 19.7934 1.18473C19.7711 1.18473 19.7531 1.20374 19.7531 1.22678ZM19.9142 1.30852C19.9142 1.33308 19.9332 1.35293 19.9567 1.35293C20.0041 1.35293 19.9959 1.29271 19.9461 1.27539C19.9285 1.26917 19.9142 1.28414 19.9142 1.30852ZM2.13842 1.39498C2.13842 1.41819 2.15662 1.43703 2.17869 1.43703C2.20093 1.43703 2.21897 1.41819 2.21897 1.39498C2.21897 1.37193 2.20093 1.35293 2.17869 1.35293C2.15662 1.35293 2.13842 1.37193 2.13842 1.39498ZM23.3355 1.55914C23.3265 1.58352 23.3255 1.61969 23.3331 1.63936C23.3407 1.65921 23.3479 1.64693 23.349 1.61229C23.3502 1.57764 23.3639 1.54921 23.3796 1.54921C23.3953 1.54921 23.4006 1.56183 23.3914 1.5773C23.3804 1.5958 23.7368 1.60522 24.4404 1.60522C25.3843 1.60522 25.5021 1.60051 25.4724 1.56317C25.4376 1.51961 25.365 1.50531 25.365 1.54215C25.365 1.56687 23.5 1.55712 23.4119 1.53206C23.3708 1.52028 23.3466 1.52886 23.3355 1.55914ZM28.0241 1.56233C27.996 1.59748 28.1319 1.60303 29.0615 1.60404C29.683 1.60455 30.1158 1.59479 30.0945 1.5805C30.0744 1.56704 30.0684 1.55022 30.0811 1.54316C30.0938 1.53609 30.0874 1.53492 30.0668 1.54047C30.0077 1.55644 28.1037 1.55241 28.0787 1.53626C28.0663 1.52836 28.0416 1.53996 28.0241 1.56233ZM41.1422 1.56519C41.0799 1.63028 41.0779 3.45537 41.1403 3.45537C41.1752 3.45537 41.1805 3.33393 41.1805 2.53046V1.60556L44.2079 1.59833C46.2152 1.59362 47.231 1.58184 47.2221 1.56317C47.2147 1.54787 47.1905 1.53794 47.1683 1.54131C47.0816 1.55459 41.2518 1.54888 41.2389 1.53542C41.2152 1.5107 41.1857 1.51978 41.1422 1.56519ZM47.2489 2.5271C47.2489 3.33915 47.2539 3.45167 47.2891 3.43754C47.3114 3.42863 47.3294 3.40306 47.3294 3.38069C47.3294 3.35563 47.3165 3.34806 47.2959 3.36101C47.2705 3.37699 47.2706 3.37144 47.2969 3.33747C47.3462 3.27406 47.3323 1.62961 47.2825 1.61229C47.2561 1.60303 47.2489 1.79831 47.2489 2.5271ZM20.3975 1.73137C20.3975 1.75458 20.417 1.77342 20.441 1.77342C20.4768 1.77342 20.4786 1.76585 20.4512 1.73137C20.4328 1.70832 20.4131 1.68932 20.4077 1.68932C20.402 1.68932 20.3975 1.70832 20.3975 1.73137ZM25.5101 1.728C25.4882 1.78771 25.5068 1.86491 25.5462 1.87854C25.5681 1.88628 25.5797 1.86088 25.5797 1.80554C25.5797 1.71203 25.5346 1.66157 25.5101 1.728ZM23.3291 1.77829C23.3418 1.86811 23.4048 1.8777 23.4048 1.7899C23.4048 1.74264 23.3901 1.71741 23.3627 1.71741C23.3347 1.71741 23.3234 1.73793 23.3291 1.77829ZM27.8712 1.89956C27.8712 1.92277 27.8873 1.94161 27.907 1.94161C27.9266 1.94161 27.9427 1.92277 27.9427 1.89956C27.9427 1.87652 27.9266 1.85751 27.907 1.85751C27.8873 1.85751 27.8712 1.87652 27.8712 1.89956ZM30.064 1.88392C30.064 1.93102 30.1116 1.94262 30.1275 1.89939C30.1369 1.874 30.1274 1.85751 30.1034 1.85751C30.0818 1.85751 30.064 1.86946 30.064 1.88392ZM1.57454 1.98366C1.57454 2.00687 1.59274 2.02571 1.61481 2.02571C1.63705 2.02571 1.65509 2.00687 1.65509 1.98366C1.65509 1.96062 1.63705 1.94161 1.61481 1.94161C1.59274 1.94161 1.57454 1.96062 1.57454 1.98366ZM20.6392 2.06776C20.6392 2.09097 20.6572 2.10981 20.6795 2.10981C20.7015 2.10981 20.7197 2.09097 20.7197 2.06776C20.7197 2.04472 20.7015 2.02571 20.6795 2.02571C20.6572 2.02571 20.6392 2.04472 20.6392 2.06776ZM23.4442 2.07533C23.4062 2.10342 23.4109 2.17271 23.4518 2.18701C23.4729 2.19424 23.4853 2.1717 23.4853 2.12629C23.4853 2.04673 23.4844 2.04539 23.4442 2.07533ZM25.5797 2.19306C25.5797 2.25513 25.5899 2.27228 25.6195 2.26034C25.6677 2.241 25.663 2.10981 25.6142 2.10981C25.5939 2.10981 25.5797 2.14412 25.5797 2.19306ZM1.41343 2.23595C1.41343 2.25917 1.43163 2.278 1.45371 2.278C1.47594 2.278 1.49398 2.25917 1.49398 2.23595C1.49398 2.21291 1.47594 2.19391 1.45371 2.19391C1.43163 2.19391 1.41343 2.21291 1.41343 2.23595ZM27.7995 2.21257C27.7644 2.24941 27.7813 2.3621 27.8219 2.3621C27.8488 2.3621 27.8622 2.33418 27.8622 2.278C27.8622 2.19761 27.838 2.17254 27.7995 2.21257ZM23.4853 2.38481C23.4853 2.41525 23.5043 2.44788 23.5275 2.45713C23.559 2.46975 23.5675 2.45864 23.561 2.41323C23.5501 2.33519 23.4853 2.3108 23.4853 2.38481ZM1.33287 2.40415C1.33287 2.42736 1.35108 2.4462 1.37315 2.4462C1.39538 2.4462 1.41343 2.42736 1.41343 2.40415C1.41343 2.38111 1.39538 2.3621 1.37315 2.3621C1.35108 2.3621 1.33287 2.38111 1.33287 2.40415ZM29.9029 2.48741C29.9029 2.51247 29.9186 2.52222 29.9432 2.51247C29.9653 2.50355 29.9835 2.48505 29.9835 2.47126C29.9835 2.45747 29.9653 2.4462 29.9432 2.4462C29.921 2.4462 29.9029 2.4647 29.9029 2.48741ZM20.8808 2.54442C20.8808 2.58799 20.896 2.61439 20.9211 2.61439C20.9645 2.61439 20.9709 2.58883 20.9451 2.51869C20.92 2.4504 20.8808 2.46605 20.8808 2.54442ZM25.6603 2.60043C25.6603 2.66889 25.6725 2.69849 25.7006 2.69849C25.742 2.69849 25.7536 2.62533 25.7246 2.54661C25.6961 2.46907 25.6603 2.49884 25.6603 2.60043ZM1.25232 2.58647C1.25232 2.61759 1.2702 2.64248 1.2926 2.64248C1.31499 2.64248 1.33287 2.61759 1.33287 2.58647C1.33287 2.55519 1.31499 2.5303 1.2926 2.5303C1.2702 2.5303 1.25232 2.55519 1.25232 2.58647ZM27.7223 2.59337C27.7003 2.66115 27.7148 2.76375 27.7481 2.77553C27.7713 2.7836 27.7816 2.75198 27.7816 2.67293C27.7816 2.56427 27.7468 2.51785 27.7223 2.59337ZM23.6008 2.66502C23.5804 2.67848 23.5775 2.70068 23.5928 2.72658C23.6215 2.77502 23.655 2.74861 23.6421 2.68739C23.6368 2.66149 23.62 2.65241 23.6008 2.66502ZM20.9614 2.75231C20.9614 2.78679 20.9786 2.81068 21.0036 2.81068C21.0286 2.81068 21.0423 2.79167 21.0371 2.76392C21.0241 2.69361 20.9614 2.68403 20.9614 2.75231ZM29.8224 2.76695C29.8224 2.80462 29.833 2.8423 29.8461 2.85071C29.873 2.86803 29.9078 2.75736 29.8865 2.7217C29.8588 2.67478 29.8224 2.70051 29.8224 2.76695ZM1.17177 2.88082C1.17177 2.94927 1.18401 2.97887 1.21204 2.97887C1.24024 2.97887 1.25232 2.94927 1.25232 2.88082C1.25232 2.81219 1.24024 2.78259 1.21204 2.78259C1.18401 2.78259 1.17177 2.81219 1.17177 2.88082ZM25.7408 2.96575C25.7408 3.03354 25.7531 3.06297 25.7811 3.06297C25.8077 3.06297 25.8214 3.03522 25.8214 2.9819C25.8214 2.93565 25.8042 2.89377 25.7811 2.88468C25.7502 2.87224 25.7408 2.89091 25.7408 2.96575ZM23.6464 2.99031C23.6464 3.02647 23.6646 3.07189 23.6867 3.09106C23.721 3.12066 23.727 3.11326 23.727 3.04144C23.727 2.99216 23.7102 2.95011 23.6867 2.94069C23.658 2.92926 23.6464 2.94338 23.6464 2.99031ZM27.6403 2.97181C27.6107 3.03286 27.6242 3.14707 27.6611 3.14707C27.6888 3.14707 27.7011 3.11713 27.7011 3.04901C27.7011 2.96071 27.6667 2.91731 27.6403 2.97181ZM21.042 3.10166C21.042 3.19803 21.0523 3.23117 21.0822 3.23117C21.1101 3.23117 21.1225 3.2019 21.1225 3.13647C21.1225 3.08433 21.1043 3.02614 21.0822 3.00696C21.0474 2.97669 21.042 2.98964 21.042 3.10166ZM29.7418 3.0956C29.7418 3.12907 29.7452 3.15111 29.7494 3.14471C29.7536 3.13832 29.7731 3.11091 29.7929 3.084C29.8237 3.04195 29.8227 3.03488 29.7853 3.03488C29.7586 3.03488 29.7418 3.05826 29.7418 3.0956ZM1.10909 3.13765C1.07204 3.1765 1.09024 3.34335 1.13149 3.34335C1.16065 3.34335 1.17177 3.31207 1.17177 3.23117C1.17177 3.12588 1.15066 3.09442 1.10909 3.13765ZM23.736 3.32468C23.736 3.3452 23.7521 3.36202 23.7718 3.36202C23.7914 3.36202 23.8075 3.3452 23.8075 3.32468C23.8075 3.304 23.7914 3.28718 23.7718 3.28718C23.7521 3.28718 23.736 3.304 23.736 3.32468ZM25.8407 3.3045C25.8045 3.34234 25.8203 3.45537 25.8617 3.45537C25.9047 3.45537 25.9102 3.41685 25.8791 3.33478C25.8686 3.30702 25.8514 3.2934 25.8407 3.3045ZM29.693 3.32132C29.6518 3.36438 29.6526 3.41887 29.6948 3.44427C29.7133 3.45537 29.7198 3.45436 29.7091 3.44225C29.6986 3.42997 29.7025 3.39533 29.718 3.36522C29.7517 3.29979 29.7375 3.2749 29.693 3.32132ZM21.1225 3.52551C21.1225 3.61903 21.1328 3.65166 21.1628 3.65166C21.1926 3.65166 21.2031 3.61903 21.2031 3.52551C21.2031 3.43199 21.1926 3.39936 21.1628 3.39936C21.1328 3.39936 21.1225 3.43199 21.1225 3.52551ZM27.54 3.4695C27.54 3.51306 27.5551 3.53947 27.5802 3.53947C27.6054 3.53947 27.6205 3.51306 27.6205 3.4695C27.6205 3.42577 27.6054 3.39936 27.5802 3.39936C27.5551 3.39936 27.54 3.42577 27.54 3.4695ZM45.235 9.00582V14.5563H44.1722C43.3338 14.5563 43.1118 14.5637 43.1205 14.5914C43.1369 14.6429 45.2621 14.6569 45.2933 14.6057C45.3378 14.5329 45.3196 3.45537 45.2751 3.45537C45.2397 3.45537 45.235 4.10696 45.235 9.00582ZM1.04433 3.55814C0.993418 3.5795 0.99954 3.81985 1.05093 3.81985C1.08138 3.81985 1.09121 3.78554 1.09121 3.67974C1.09121 3.60254 1.08831 3.54048 1.08461 3.54166C1.0809 3.543 1.06269 3.55023 1.04433 3.55814ZM29.6365 3.58858C29.6353 3.60792 29.6162 3.62357 29.5941 3.62357C29.5488 3.62357 29.5422 3.67318 29.5796 3.73474C29.6076 3.78117 29.6737 3.6419 29.6508 3.58438C29.6431 3.5647 29.6379 3.56638 29.6365 3.58858ZM23.8075 3.6377C23.8075 3.66074 23.8257 3.67974 23.8478 3.67974C23.8701 3.67974 23.8881 3.66074 23.8881 3.6377C23.8881 3.61448 23.8701 3.59565 23.8478 3.59565C23.8257 3.59565 23.8075 3.61448 23.8075 3.6377ZM25.9356 3.72633C25.8871 3.74669 25.8929 3.87586 25.9422 3.87586C25.9691 3.87586 25.9825 3.84794 25.9825 3.79176C25.9825 3.74551 25.9796 3.70867 25.9759 3.70985C25.9722 3.7112 25.954 3.71843 25.9356 3.72633ZM27.4689 3.81985C27.4668 3.87435 27.4787 3.90395 27.5027 3.90395C27.5263 3.90395 27.54 3.87283 27.54 3.81985C27.54 3.77091 27.5258 3.73575 27.5061 3.73575C27.4871 3.73575 27.4708 3.77276 27.4689 3.81985ZM29.5203 3.88057C29.4665 3.93944 29.4562 4.05482 29.5061 4.03733C29.5319 4.02841 29.5913 3.84239 29.5719 3.83179C29.5693 3.83028 29.5461 3.85231 29.5203 3.88057ZM23.8881 3.90159C23.8881 3.9502 23.9208 4.01614 23.9446 4.01614C23.9579 4.01614 23.9687 3.98451 23.9687 3.946C23.9687 3.90244 23.9535 3.87586 23.9284 3.87586C23.9063 3.87586 23.8881 3.88747 23.8881 3.90159ZM21.2031 4.06878C21.2031 4.20266 21.2119 4.24034 21.2433 4.24034C21.2736 4.24034 21.2836 4.20653 21.2836 4.1036C21.2836 4.0163 21.269 3.95424 21.2433 3.93204C21.2082 3.90159 21.2031 3.91925 21.2031 4.06878ZM25.9994 4.13522C25.9757 4.22806 25.9785 4.24034 26.0228 4.24034C26.045 4.24034 26.0631 4.26136 26.0631 4.2871C26.0631 4.31283 26.0695 4.32713 26.0774 4.31889C26.098 4.29736 26.0602 4.07214 26.036 4.07214C26.0249 4.07214 26.0085 4.10057 25.9994 4.13522ZM0.962324 4.13387C0.912863 4.18551 0.919791 4.49263 0.970379 4.49263C1.00244 4.49263 1.01066 4.4521 1.01066 4.29635C1.01066 4.08476 1.01033 4.08375 0.962324 4.13387ZM27.4124 4.13202C27.3721 4.17458 27.368 4.28609 27.4059 4.31048C27.4414 4.33352 27.4657 4.26406 27.4547 4.17088C27.4476 4.11133 27.4394 4.1036 27.4124 4.13202ZM23.9933 4.16331C23.9749 4.22083 23.9859 4.2871 24.0138 4.2871C24.0333 4.2871 24.0492 4.25766 24.0492 4.22167C24.0492 4.17138 24.0054 4.12546 23.9933 4.16331ZM24.0608 4.52762C24.0671 4.56243 24.0731 4.60028 24.0742 4.61172C24.0801 4.67563 24.1298 4.61945 24.1298 4.54864C24.1298 4.4928 24.1164 4.46454 24.0896 4.46454C24.0627 4.46454 24.0532 4.48523 24.0608 4.52762ZM26.0811 4.5515C26.0553 4.65191 26.0584 4.66083 26.1169 4.66083C26.1789 4.66083 26.1862 4.6097 26.1344 4.53586C26.1001 4.48708 26.0974 4.48776 26.0811 4.5515ZM27.2983 4.57757C27.2983 4.63291 27.3118 4.66083 27.3386 4.66083C27.3632 4.66083 27.3788 4.63476 27.3788 4.59372C27.3788 4.55688 27.3606 4.51938 27.3386 4.51046C27.3083 4.49835 27.2983 4.51517 27.2983 4.57757ZM29.3121 4.60818C29.3121 4.65797 29.3188 4.66201 29.3524 4.63274C29.3745 4.61357 29.3927 4.58682 29.3927 4.57337C29.3927 4.55974 29.3745 4.54864 29.3524 4.54864C29.3292 4.54864 29.3121 4.57404 29.3121 4.60818ZM21.2836 4.83659C21.2836 5.02295 21.2925 5.07879 21.3239 5.09141C21.3576 5.10503 21.3642 5.07156 21.3642 4.88772C21.3642 4.72626 21.3534 4.65847 21.3239 4.63274C21.2886 4.6023 21.2836 4.62753 21.2836 4.83659ZM24.1489 4.85711C24.1567 4.88789 24.1736 4.91312 24.1866 4.91312C24.1997 4.91312 24.2103 4.88789 24.2103 4.85711C24.2103 4.82616 24.1934 4.80094 24.1726 4.80094C24.1481 4.80094 24.1397 4.82061 24.1489 4.85711ZM31.9276 4.85274C31.9366 4.86788 31.9287 4.88688 31.9102 4.89479C31.8917 4.90286 32.0971 4.90707 32.3666 4.90421C33.0209 4.89731 33.0384 4.84618 32.3906 4.83407C32.0806 4.82835 31.917 4.83491 31.9276 4.85274ZM56.7722 4.84769C56.7213 4.90101 56.7857 4.91312 57.1202 4.91312C57.4422 4.91312 57.4818 4.90808 57.4525 4.87107C57.4177 4.82734 56.8118 4.80649 56.7722 4.84769ZM62.222 4.84887C62.1748 4.89815 62.2787 4.91312 62.6655 4.91312C62.9977 4.91312 63.0933 4.90522 63.0846 4.87814C63.0731 4.84214 62.255 4.81439 62.222 4.84887ZM27.2456 4.92523C27.2092 4.99638 27.2227 5.08132 27.2706 5.08132C27.2859 5.08132 27.2983 5.03086 27.2983 4.96913C27.2983 4.83827 27.2925 4.83357 27.2456 4.92523ZM29.2316 4.91312C29.2316 4.94424 29.2495 4.96913 29.2719 4.96913C29.2943 4.96913 29.3121 4.94424 29.3121 4.91312C29.3121 4.88201 29.2943 4.85711 29.2719 4.85711C29.2495 4.85711 29.2316 4.88201 29.2316 4.91312ZM26.1705 4.98292C26.1705 5.08468 26.1739 5.08973 26.214 5.04785C26.2543 5.00597 26.2543 4.99739 26.214 4.93751C26.1707 4.87292 26.1705 4.87326 26.1705 4.98292ZM0.867431 4.93179C0.827154 4.97401 0.847775 5.47372 0.889825 5.47372C0.923013 5.47372 0.930102 5.42393 0.930102 5.1935C0.930102 4.93667 0.91673 4.88049 0.867431 4.93179ZM9.08398 4.93179C9.05852 4.95853 9.06174 11.2704 9.08736 11.2869C9.09912 11.2945 9.16244 11.2655 9.22833 11.2228C9.29422 11.1801 9.43262 11.0967 9.53605 11.0376C9.63948 10.9784 9.79978 10.8819 9.89226 10.823C9.9849 10.7641 10.0658 10.7159 10.0721 10.7159C10.0783 10.7159 10.2668 10.6023 10.4908 10.4636C10.7147 10.3248 10.9024 10.2113 10.9079 10.2113C10.9135 10.2113 11.0904 10.1058 11.301 9.97682C11.5117 9.84781 11.8594 9.63723 12.0735 9.50889C12.2876 9.38056 12.6239 9.17704 12.8204 9.05662C13.0171 8.93619 13.1821 8.83763 13.1873 8.83763C13.1923 8.83763 13.3152 8.76413 13.4605 8.67414C13.606 8.58416 13.7853 8.4755 13.8591 8.43261C14.1296 8.27585 14.3559 8.13003 14.3555 8.1127C14.3545 8.07251 14.3073 8.03197 14.1459 7.93273C14.0526 7.87538 13.9717 7.82845 13.9664 7.82845C13.9611 7.82845 13.8037 7.73393 13.6166 7.61821C13.4294 7.50266 13.2722 7.40797 13.2672 7.40797C13.262 7.40797 13.0746 7.29443 12.8507 7.15567C12.6268 7.01691 12.4387 6.90338 12.4329 6.90338C12.4271 6.90338 12.2702 6.80885 12.0843 6.69313C11.8984 6.57758 11.7418 6.48289 11.7363 6.48289C11.731 6.48289 11.5625 6.38197 11.3619 6.25869C11.1615 6.1354 10.9931 6.03448 10.988 6.03448C10.9826 6.03448 10.7953 5.92095 10.5713 5.78219C10.3474 5.64343 10.1599 5.52989 10.1547 5.52989C10.1494 5.52989 10.0231 5.45421 9.87389 5.3617C9.72471 5.26919 9.59743 5.1935 9.59099 5.1935C9.5847 5.1935 9.47918 5.13043 9.35641 5.0534C9.12184 4.90606 9.11265 4.90202 9.08398 4.93179ZM31.4423 4.95517C31.4423 4.98595 31.4621 4.99739 31.5058 4.99167C31.5408 4.98696 31.5693 4.97064 31.5693 4.95517C31.5693 4.9397 31.5408 4.92338 31.5058 4.91867C31.4621 4.91295 31.4423 4.92439 31.4423 4.95517ZM33.2057 4.95517C33.2057 4.9836 33.2329 4.99722 33.2894 4.99722C33.361 4.99722 33.3684 4.991 33.3399 4.95517C33.3215 4.93213 33.2838 4.91312 33.2561 4.91312C33.2282 4.91312 33.2057 4.93213 33.2057 4.95517ZM56.4467 4.93919C56.4382 4.95349 56.4435 4.97317 56.4585 4.98292C56.4906 5.00361 56.5395 4.97737 56.5395 4.93953C56.5395 4.90538 56.4669 4.90522 56.4467 4.93919ZM57.6673 4.95517C57.6673 4.98057 57.6921 4.99722 57.73 4.99722C57.7677 4.99722 57.7926 4.98057 57.7926 4.95517C57.7926 4.92977 57.7677 4.91312 57.73 4.91312C57.6921 4.91312 57.6673 4.92977 57.6673 4.95517ZM61.7398 4.93179C61.7013 4.97199 61.7255 4.99722 61.8025 4.99722C61.8561 4.99722 61.883 4.98326 61.883 4.95517C61.883 4.91279 61.7749 4.89512 61.7398 4.93179ZM63.4314 4.93179C63.3899 4.97519 63.4202 4.99722 63.5209 4.99722C63.58 4.99722 63.6283 4.98595 63.6283 4.97216C63.6283 4.92372 63.4703 4.89126 63.4314 4.93179ZM33.501 5.03927C33.501 5.06231 33.523 5.08132 33.5503 5.08132C33.5773 5.08132 33.5994 5.06231 33.5994 5.03927C33.5994 5.01623 33.5773 4.99722 33.5503 4.99722C33.523 4.99722 33.501 5.01623 33.501 5.03927ZM36.1356 5.03523C36.104 5.07509 36.0868 12.3876 36.1183 12.4204C36.1258 12.4283 36.129 10.7801 36.1254 8.7579L36.119 5.08132H37.1863H38.2537V8.64387C38.2537 11.4813 38.2604 12.2039 38.2872 12.1946C38.3139 12.1854 38.3209 11.4408 38.3209 8.59711V5.01118L37.244 5.00344C36.3424 4.99688 36.162 5.0021 36.1356 5.03523ZM39.5815 5.03271C39.5482 5.12337 39.5561 12.5379 39.5894 12.5379C39.616 12.5379 39.6244 11.7654 39.6297 8.8166L39.6365 5.09528L40.6905 5.08805L41.7444 5.08064V9.81922V14.5578L40.8878 14.55C40.0789 14.5428 40.0325 14.545 40.0563 14.5914C40.0931 14.6629 41.7824 14.6675 41.8087 14.5961C41.838 14.5161 41.8272 5.11025 41.7978 5.05256C41.7626 4.9841 39.6065 4.96476 39.5815 5.03271ZM46.5421 5.01555C46.5321 5.02598 46.5239 5.04516 46.5239 5.05794C46.5239 5.07089 47.0204 5.08132 47.6272 5.08132C48.4976 5.08132 48.7278 5.07392 48.719 5.04633C48.7069 5.00815 46.578 4.97804 46.5421 5.01555ZM49.9615 5.05222C49.9125 5.14775 49.9254 12.5845 49.9745 12.6042C50.0099 12.6185 50.0146 12.1817 50.0146 8.85075V5.08132H51.0752H52.1359V9.81888V14.5563H51.2743C50.5972 14.5563 50.4153 14.5638 50.4242 14.5914C50.4327 14.6185 50.6359 14.6264 51.3191 14.6264H52.203L52.2096 9.85555C52.2131 7.23153 52.2086 5.06467 52.1997 5.04045C52.1723 4.96594 49.9998 4.97737 49.9615 5.05222ZM56.2076 5.03927C56.216 5.06231 56.2339 5.08132 56.2469 5.08132C56.2602 5.08132 56.271 5.06231 56.271 5.03927C56.271 5.01623 56.2532 4.99722 56.2316 4.99722C56.2075 4.99722 56.1981 5.0137 56.2076 5.03927ZM63.8163 5.04398C63.8163 5.0645 63.8324 5.08132 63.8521 5.08132C63.8717 5.08132 63.8879 5.0645 63.8879 5.04398C63.8879 5.02346 63.8717 5.00664 63.8521 5.00664C63.8324 5.00664 63.8163 5.02346 63.8163 5.04398ZM24.2276 5.10083C24.1957 5.13396 24.21 5.21537 24.2506 5.23168C24.2796 5.24329 24.2909 5.22866 24.2909 5.18022C24.2909 5.11058 24.2578 5.06921 24.2276 5.10083ZM56.0472 5.09999C56.0164 5.13228 56.0277 5.16541 56.0696 5.16541C56.0918 5.16541 56.1098 5.14641 56.1098 5.12337C56.1098 5.07964 56.0781 5.06769 56.0472 5.09999ZM58.0604 5.10083C58.0301 5.13228 58.042 5.16541 58.0834 5.16541C58.1057 5.16541 58.1237 5.15347 58.1237 5.13901C58.1237 5.10369 58.0818 5.07829 58.0604 5.10083ZM61.2288 5.12337C61.2183 5.15196 61.2302 5.16541 61.2663 5.16541C61.2953 5.16541 61.3191 5.14658 61.3191 5.12337C61.3191 5.10032 61.3022 5.08132 61.2816 5.08132C61.2611 5.08132 61.2373 5.10032 61.2288 5.12337ZM29.151 5.20662C29.151 5.25658 29.1622 5.27138 29.1913 5.2596C29.2134 5.25086 29.2316 5.21957 29.2316 5.19048C29.2316 5.16121 29.2134 5.13733 29.1913 5.13733C29.1663 5.13733 29.151 5.16373 29.151 5.20662ZM61.0775 5.20746C61.0494 5.24262 61.0533 5.24951 61.101 5.24951C61.1337 5.24951 61.158 5.23168 61.158 5.20746C61.158 5.18442 61.1474 5.16541 61.1343 5.16541C61.1215 5.16541 61.0958 5.18442 61.0775 5.20746ZM26.2703 5.267C26.2421 5.29644 26.2469 5.41771 26.2764 5.41771C26.2902 5.41771 26.3084 5.40627 26.3167 5.39231C26.3371 5.35766 26.2941 5.24194 26.2703 5.267ZM27.1618 5.25489C27.1352 5.35901 27.1406 5.41771 27.1765 5.41771C27.223 5.41771 27.2346 5.29173 27.1908 5.26347C27.1762 5.25405 27.163 5.25019 27.1618 5.25489ZM30.6458 5.26818C30.6149 5.30048 30.6262 5.33361 30.6682 5.33361C30.6903 5.33361 30.7085 5.3146 30.7085 5.29156C30.7085 5.24783 30.6767 5.23589 30.6458 5.26818ZM64.2996 5.29156C64.2996 5.3146 64.3177 5.33361 64.3399 5.33361C64.362 5.33361 64.3802 5.35262 64.3802 5.37566C64.3802 5.3987 64.3982 5.41771 64.4205 5.41771C64.4426 5.41771 64.4608 5.43671 64.4608 5.45976C64.4608 5.4828 64.4788 5.50181 64.501 5.50181C64.5231 5.50181 64.5413 5.52081 64.5413 5.54385C64.5413 5.5669 64.5594 5.5859 64.5816 5.5859C64.6037 5.5859 64.6219 5.60491 64.6219 5.62795C64.6219 5.651 64.6399 5.67 64.6621 5.67C64.6842 5.67 64.7024 5.68901 64.7024 5.71205C64.7024 5.73509 64.7205 5.7541 64.7427 5.7541C64.7648 5.7541 64.783 5.74115 64.783 5.72517C64.783 5.70936 64.7648 5.68901 64.7427 5.68009C64.7205 5.67135 64.7024 5.64645 64.7024 5.62493C64.7024 5.6034 64.6932 5.58893 64.6823 5.59263C64.6563 5.60121 64.4608 5.39652 64.4608 5.36069C64.4608 5.34572 64.4438 5.33361 64.4232 5.33361C64.4028 5.33361 64.3789 5.3146 64.3704 5.29156C64.362 5.26852 64.3425 5.24951 64.3274 5.24951C64.3121 5.24951 64.2996 5.26852 64.2996 5.29156ZM55.713 5.35262C55.7172 5.36607 55.6631 5.43436 55.593 5.50467C55.457 5.64074 55.4417 5.67 55.5057 5.67C55.5279 5.67 55.546 5.651 55.546 5.62795C55.546 5.60491 55.5642 5.5859 55.5862 5.5859C55.6085 5.5859 55.6265 5.5669 55.6265 5.54385C55.6265 5.52081 55.6447 5.50181 55.6668 5.50181C55.689 5.50181 55.7071 5.4828 55.7071 5.45976C55.7071 5.43671 55.7262 5.41771 55.7496 5.41771C55.7975 5.41771 55.7886 5.35733 55.7382 5.33967C55.7201 5.33344 55.7088 5.33933 55.713 5.35262ZM60.8089 5.38962C60.8089 5.40509 60.7912 5.41771 60.7694 5.41771C60.7454 5.41771 60.7361 5.43419 60.7454 5.45976C60.754 5.4828 60.7717 5.50181 60.7849 5.50181C60.7981 5.50181 60.8089 5.4828 60.8089 5.45976C60.8089 5.43671 60.8271 5.41771 60.8492 5.41771C60.8713 5.41771 60.8895 5.40509 60.8895 5.38962C60.8895 5.37431 60.8713 5.3617 60.8492 5.3617C60.8271 5.3617 60.8089 5.37431 60.8089 5.38962ZM24.2999 5.43386C24.2909 5.45824 24.3034 5.49878 24.3276 5.52401C24.3682 5.56656 24.3714 5.5632 24.3714 5.47977C24.3714 5.38558 24.3279 5.35766 24.2999 5.43386ZM29.0752 5.48566C29.08 5.52636 29.0959 5.55916 29.1108 5.55882C29.1509 5.55748 29.1431 5.4384 29.1021 5.42393C29.0771 5.41535 29.069 5.43385 29.0752 5.48566ZM60.6594 5.5267C60.6791 5.56 60.6085 5.61904 60.5806 5.59263C60.5685 5.58119 60.5669 5.58708 60.5771 5.60558C60.5877 5.62476 60.5724 5.65217 60.5411 5.66966C60.4773 5.70515 60.4691 5.7541 60.527 5.7541C60.549 5.7541 60.5672 5.73509 60.5672 5.71205C60.5672 5.68901 60.5854 5.67 60.6075 5.67C60.6296 5.67 60.6478 5.651 60.6478 5.62795C60.6478 5.60491 60.666 5.5859 60.6881 5.5859C60.7101 5.5859 60.7284 5.5669 60.7284 5.54385C60.7284 5.52081 60.7095 5.50181 60.6865 5.50181C60.6634 5.50181 60.6512 5.51308 60.6594 5.5267ZM21.3642 6.07737C21.3642 6.41914 21.3705 6.48289 21.4044 6.48289C21.4383 6.48289 21.4447 6.42099 21.4447 6.09352C21.4447 5.77311 21.4375 5.70112 21.4044 5.68783C21.3698 5.67404 21.3642 5.72837 21.3642 6.07737ZM24.3953 5.67841C24.3835 5.75645 24.3903 5.81095 24.4125 5.81515C24.4505 5.82256 24.4621 5.72551 24.4277 5.68951C24.4115 5.67252 24.397 5.66765 24.3953 5.67841ZM26.3495 5.68867C26.3165 5.72315 26.3312 5.82878 26.369 5.82878C26.3925 5.82878 26.4038 5.80405 26.3995 5.76251C26.3914 5.68615 26.3751 5.66193 26.3495 5.68867ZM27.0619 5.7541C27.0582 5.80439 27.0697 5.82878 27.0967 5.82878C27.1227 5.82878 27.1372 5.80187 27.1372 5.7541C27.1372 5.71138 27.1222 5.67942 27.1022 5.67942C27.083 5.67942 27.0648 5.71306 27.0619 5.7541ZM34.4407 5.71205C34.4407 5.73509 34.4589 5.7541 34.481 5.7541C34.5032 5.7541 34.5213 5.77311 34.5213 5.79615C34.5213 5.81919 34.5334 5.8382 34.5482 5.8382C34.5828 5.8382 34.582 5.83012 34.5404 5.75023C34.5005 5.67353 34.4407 5.65066 34.4407 5.71205ZM28.9899 5.81011C28.9899 5.90009 29.0273 5.92314 29.0542 5.84997C29.0818 5.77479 29.0724 5.72601 29.0302 5.72601C29.0033 5.72601 28.9899 5.7541 28.9899 5.81011ZM30.1572 5.78067C30.1659 5.79531 30.1485 5.82104 30.1185 5.83786C30.0539 5.87385 30.0466 5.92229 30.1059 5.92229C30.1288 5.92229 30.1407 5.91052 30.1322 5.89622C30.1238 5.88176 30.1411 5.85233 30.1707 5.83063C30.2005 5.80893 30.2168 5.78286 30.2069 5.7726C30.1797 5.74418 30.1393 5.75074 30.1572 5.78067ZM58.6413 5.86629C58.6436 5.89707 58.6613 5.92229 58.6808 5.92229C58.708 5.92229 58.7097 5.90918 58.6876 5.86629C58.6718 5.83534 58.6541 5.81011 58.6481 5.81011C58.6422 5.81011 58.6391 5.83534 58.6413 5.86629ZM24.4789 6.04844C24.4539 6.07973 24.4536 6.09049 24.4771 6.09049C24.4947 6.09049 24.5014 6.1031 24.4923 6.11858C24.4832 6.13388 24.4886 6.1465 24.5042 6.1465C24.5198 6.1465 24.5325 6.11505 24.5325 6.07653C24.5325 5.99512 24.5246 5.99092 24.4789 6.04844ZM28.9266 6.0259C28.8966 6.05702 28.9079 6.13994 28.944 6.1544C28.9656 6.16315 28.9807 6.14347 28.984 6.10277C28.9893 6.036 28.9575 5.99344 28.9266 6.0259ZM58.7317 6.0259C58.7014 6.05736 58.7132 6.09049 58.7548 6.09049C58.7768 6.09049 58.795 6.07855 58.795 6.06408C58.795 6.02876 58.7532 6.00337 58.7317 6.0259ZM26.9962 6.05551C26.9635 6.12581 26.9753 6.25869 27.0143 6.25869C27.0458 6.25869 27.0566 6.22992 27.0566 6.1465C27.0566 6.04726 27.0234 5.99714 26.9962 6.05551ZM26.413 6.16416C26.4138 6.26575 26.4164 6.26911 26.4533 6.21832C26.5027 6.1502 26.5026 6.13388 26.4525 6.09049C26.4178 6.06055 26.4124 6.07081 26.413 6.16416ZM0.795898 6.70726C0.795898 7.06232 0.805726 7.26786 0.822804 7.26786C0.83972 7.26786 0.849548 7.06232 0.849548 6.70726C0.849548 6.3522 0.83972 6.1465 0.822804 6.1465C0.805726 6.1465 0.795898 6.3522 0.795898 6.70726ZM34.7629 6.21664C34.7629 6.23968 34.7826 6.25869 34.8066 6.25869C34.8422 6.25869 34.8441 6.25112 34.8167 6.21664C34.7984 6.19343 34.7787 6.17459 34.7731 6.17459C34.7676 6.17459 34.7629 6.19343 34.7629 6.21664ZM60.2048 6.25213C60.1625 6.28442 60.1635 6.33336 60.2062 6.33336C60.2276 6.33336 60.245 6.31032 60.245 6.28206C60.245 6.22471 60.2428 6.22303 60.2048 6.25213ZM58.8129 6.27736C58.7818 6.30982 58.7936 6.39223 58.8313 6.40737C58.8569 6.41763 58.8655 6.40115 58.8603 6.35187C58.8519 6.27164 58.8385 6.25061 58.8129 6.27736ZM24.5515 6.37121C24.5438 6.40182 24.5475 6.42049 24.5596 6.41275C24.5718 6.40485 24.5878 6.41427 24.5954 6.43378C24.6028 6.45312 24.6099 6.44135 24.611 6.40754C24.6137 6.3268 24.5694 6.29973 24.5515 6.37121ZM28.8366 6.42537C28.8401 6.47667 28.8519 6.49803 28.8673 6.48188C28.9105 6.43697 28.9123 6.34278 28.8701 6.34278C28.8435 6.34278 28.8328 6.36919 28.8366 6.42537ZM65.0246 6.43024C65.0246 6.50492 65.0306 6.51266 65.0649 6.48289C65.087 6.46372 65.1052 6.42436 65.1052 6.39543C65.1052 6.3665 65.087 6.34278 65.0649 6.34278C65.0377 6.34278 65.0246 6.37121 65.0246 6.43024ZM26.4927 6.54748C26.4927 6.6383 26.5039 6.67917 26.5285 6.67917C26.5738 6.67917 26.5714 6.49769 26.5253 6.44976C26.4998 6.42301 26.4927 6.44404 26.4927 6.54748ZM32.3113 6.44488C32.2862 6.47095 32.3165 6.51098 32.3615 6.51098C32.3827 6.51098 32.4001 6.49197 32.4001 6.46893C32.4001 6.42671 32.3434 6.41124 32.3113 6.44488ZM60.1018 6.44555C60.0709 6.47784 60.0823 6.51098 60.1242 6.51098C60.1463 6.51098 60.1645 6.49197 60.1645 6.46893C60.1645 6.4252 60.1327 6.41326 60.1018 6.44555ZM62.42 6.4654C62.42 6.49399 62.4643 6.50358 62.5945 6.50324C62.7229 6.50274 62.7691 6.49265 62.7691 6.46473C62.7691 6.4368 62.7232 6.42688 62.5945 6.42688C62.4646 6.42688 62.42 6.43664 62.42 6.4654ZM26.9268 6.53587C26.907 6.54882 26.8949 6.58599 26.8999 6.61862C26.9061 6.66 26.9197 6.67076 26.9448 6.65428C26.9646 6.64133 26.9767 6.60416 26.9717 6.57153C26.9654 6.53015 26.9519 6.51939 26.9268 6.53587ZM29.7686 6.55303C29.7686 6.57607 29.7807 6.59508 29.7955 6.59508C29.8103 6.59508 29.8224 6.57607 29.8224 6.55303C29.8224 6.52982 29.8103 6.51098 29.7955 6.51098C29.7807 6.51098 29.7686 6.52982 29.7686 6.55303ZM32.0779 6.55303C32.0779 6.57607 32.0959 6.59508 32.1182 6.59508C32.1403 6.59508 32.1585 6.57607 32.1585 6.55303C32.1585 6.52982 32.1403 6.51098 32.1182 6.51098C32.0959 6.51098 32.0779 6.52982 32.0779 6.55303ZM55.969 6.5283C55.9877 6.53688 55.9953 6.55639 55.9863 6.57187C55.9765 6.58818 55.9958 6.59592 56.0332 6.59037C56.1192 6.57775 56.1026 6.52645 56.0101 6.51888C55.969 6.51552 55.9505 6.51973 55.969 6.5283ZM56.2173 6.5357C56.2173 6.54933 56.2405 6.56682 56.269 6.57456C56.3053 6.58448 56.3164 6.57708 56.3064 6.54983C56.2908 6.50745 56.2173 6.49567 56.2173 6.5357ZM24.6526 6.61661C24.6141 6.64503 24.6194 6.74191 24.6601 6.75621C24.6822 6.76394 24.6936 6.73821 24.6936 6.68153C24.6936 6.58734 24.6932 6.58633 24.6526 6.61661ZM32.6621 6.61375C32.6806 6.62148 32.6895 6.63847 32.6817 6.65159C32.6742 6.66454 32.6924 6.68321 32.7223 6.69313C32.7523 6.70306 32.7699 6.72291 32.7613 6.7372C32.7529 6.7515 32.7587 6.76327 32.7744 6.76327C32.79 6.76327 32.8029 6.74427 32.8029 6.72122C32.8029 6.69801 32.7847 6.67917 32.7626 6.67917C32.7404 6.67917 32.7223 6.66017 32.7223 6.63713C32.7223 6.61391 32.7011 6.59609 32.6753 6.59726C32.6469 6.59861 32.6416 6.60517 32.6621 6.61375ZM58.8756 6.68977C58.8756 6.75368 58.8883 6.79136 58.9101 6.79136C58.9589 6.79136 58.9629 6.66387 58.9154 6.62266C58.8816 6.59339 58.8756 6.60332 58.8756 6.68977ZM34.924 6.67749C34.924 6.73888 34.9661 6.77774 34.9895 6.73821C35.0091 6.70508 34.9796 6.62317 34.9481 6.62317C34.9348 6.62317 34.924 6.64755 34.924 6.67749ZM65.1073 6.72526C65.106 6.77925 65.1207 6.81962 65.1455 6.82954C65.1758 6.84165 65.1857 6.82466 65.1857 6.76075C65.1857 6.71399 65.1746 6.68304 65.1611 6.69179C65.1476 6.70037 65.1305 6.69179 65.1229 6.67228C65.1155 6.65294 65.1084 6.67682 65.1073 6.72526ZM28.7483 6.71651C28.7483 6.73703 28.7663 6.75385 28.7885 6.75385C28.8106 6.75385 28.8288 6.73703 28.8288 6.71651C28.8288 6.69599 28.8106 6.67917 28.7885 6.67917C28.7663 6.67917 28.7483 6.69599 28.7483 6.71651ZM55.7071 6.72358C55.7071 6.77303 55.7649 6.76445 55.7815 6.71248C55.7873 6.69414 55.773 6.67917 55.7496 6.67917C55.7262 6.67917 55.7071 6.69919 55.7071 6.72358ZM60.0188 6.71248C59.9982 6.78194 60.0124 6.84737 60.0482 6.84737C60.0681 6.84737 60.0839 6.81726 60.0839 6.77891C60.0839 6.70323 60.0362 6.65445 60.0188 6.71248ZM63.0169 6.71248C63.0335 6.76445 63.0913 6.77303 63.0913 6.72358C63.0913 6.69919 63.0722 6.67917 63.0488 6.67917C63.0254 6.67917 63.0111 6.69414 63.0169 6.71248ZM29.6792 6.78194C29.6453 6.81726 29.6613 6.90338 29.7015 6.90338C29.7265 6.90338 29.7418 6.87697 29.7418 6.83341C29.7418 6.76529 29.7156 6.74393 29.6792 6.78194ZM31.8362 6.80532C31.8362 6.82836 31.8543 6.84737 31.8765 6.84737C31.8986 6.84737 31.9168 6.82836 31.9168 6.80532C31.9168 6.78211 31.8986 6.76327 31.8765 6.76327C31.8543 6.76327 31.8362 6.78211 31.8362 6.80532ZM32.8225 6.87798C32.8416 6.95367 32.8834 6.97436 32.8834 6.90809C32.8834 6.87798 32.8667 6.8467 32.8462 6.83846C32.82 6.82803 32.8129 6.83963 32.8225 6.87798ZM62.0709 6.84737C62.0496 6.86116 62.0411 6.88168 62.052 6.89295C62.063 6.90439 62.0859 6.89901 62.1031 6.88101C62.1437 6.83862 62.1211 6.81508 62.0709 6.84737ZM63.0913 6.87193C63.0913 6.88555 63.1094 6.91229 63.1316 6.93147C63.1653 6.96057 63.1719 6.95653 63.1719 6.90691C63.1719 6.8726 63.1546 6.84737 63.1316 6.84737C63.1094 6.84737 63.0913 6.85847 63.0913 6.87193ZM26.5733 6.9858C26.5733 7.06047 26.5852 7.09966 26.6083 7.09966C26.6276 7.09966 26.6431 7.06838 26.6431 7.02953C26.6431 6.99101 26.6327 6.95956 26.62 6.95956C26.6073 6.95956 26.6039 6.94778 26.6124 6.93349C26.621 6.91902 26.6157 6.89934 26.6005 6.88975C26.5838 6.87882 26.5733 6.91599 26.5733 6.9858ZM26.8345 6.89648C26.8138 6.93719 26.8287 7.05778 26.8552 7.06552C26.8701 7.06989 26.8858 7.04147 26.8905 7.00245C26.8952 6.96326 26.8855 6.93147 26.8689 6.93147C26.8522 6.93147 26.8461 6.91885 26.8552 6.90338C26.8644 6.88807 26.8659 6.87546 26.8585 6.87546C26.851 6.87546 26.8403 6.88488 26.8345 6.89648ZM24.6936 6.95687C24.6936 6.98546 24.7118 7.02448 24.7339 7.04365C24.7679 7.07309 24.7742 7.06754 24.7742 7.008C24.7742 6.96914 24.7562 6.93012 24.7339 6.92138C24.7072 6.91061 24.6936 6.92239 24.6936 6.95687ZM35.0046 7.02717C35.0046 7.09966 35.0164 7.12775 35.0466 7.12775C35.0776 7.12775 35.0864 7.10454 35.0802 7.03878C35.0681 6.91027 35.0046 6.90052 35.0046 7.02717ZM28.6677 7.03659C28.6677 7.118 28.731 7.10824 28.7428 7.02498C28.7479 6.98949 28.7357 6.96881 28.7093 6.96881C28.6832 6.96881 28.6677 6.9942 28.6677 7.03659ZM31.7557 7.07511C31.7557 7.12472 31.7623 7.12876 31.796 7.09966C31.818 7.08049 31.8362 7.05375 31.8362 7.04012C31.8362 7.02667 31.818 7.01557 31.796 7.01557C31.7728 7.01557 31.7557 7.04079 31.7557 7.07511ZM59.9497 7.07157C59.9497 7.10252 59.9487 7.13683 59.9476 7.14793C59.9465 7.1592 59.9586 7.17283 59.9745 7.17838C59.991 7.1841 60.0034 7.15113 60.0034 7.10202C60.0034 7.05442 59.9913 7.01557 59.9765 7.01557C59.9618 7.01557 59.9497 7.04079 59.9497 7.07157ZM29.6142 7.11816C29.5651 7.13902 29.5709 7.29595 29.621 7.29595C29.649 7.29595 29.6613 7.26634 29.6613 7.19772C29.6613 7.14373 29.6582 7.10067 29.6545 7.10185C29.6508 7.10303 29.6328 7.11043 29.6142 7.11816ZM55.4151 7.1254C55.395 7.13852 55.3829 7.1629 55.3884 7.17956C55.3944 7.19789 55.4129 7.20058 55.4351 7.18612C55.4554 7.173 55.4675 7.14861 55.462 7.13179C55.4561 7.11346 55.4374 7.11093 55.4151 7.1254ZM56.6926 7.137C56.685 7.15752 56.6958 7.17434 56.7166 7.17434C56.7374 7.17434 56.7543 7.15752 56.7543 7.137C56.7543 7.11648 56.7435 7.09966 56.7303 7.09966C56.7172 7.09966 56.7002 7.11648 56.6926 7.137ZM32.9102 7.19772C32.9102 7.24145 32.9255 7.26786 32.9505 7.26786C32.9756 7.26786 32.9907 7.24145 32.9907 7.19772C32.9907 7.15416 32.9756 7.12775 32.9505 7.12775C32.9255 7.12775 32.9102 7.15416 32.9102 7.19772ZM58.9562 7.29595C58.9562 7.42663 58.9652 7.46414 58.9964 7.46414C59.0327 7.46414 59.039 7.34254 59.0127 7.14878C58.9995 7.05055 58.9562 7.16324 58.9562 7.29595ZM65.1857 7.23977C65.1857 7.3015 65.1978 7.35196 65.2125 7.35196C65.2273 7.35196 65.2394 7.3015 65.2394 7.23977C65.2394 7.17821 65.2273 7.12775 65.2125 7.12775C65.1978 7.12775 65.1857 7.17821 65.1857 7.23977ZM61.9554 7.17535C61.9484 7.18763 61.952 7.26079 61.9636 7.338C61.975 7.41503 61.9779 7.49072 61.97 7.50619C61.9605 7.52486 61.9649 7.52486 61.9832 7.50619C62.0333 7.4554 62.0507 7.22446 62.0072 7.18679C61.9858 7.16812 61.9624 7.16307 61.9554 7.17535ZM63.1754 7.31041C63.1782 7.43454 63.2524 7.61535 63.2524 7.49795C63.2524 7.4818 63.2373 7.46246 63.2188 7.45456C63.192 7.44329 63.192 7.44009 63.2188 7.43824C63.2694 7.43488 63.2634 7.19419 63.2123 7.17367C63.1795 7.16055 63.1727 7.18544 63.1754 7.31041ZM24.7929 7.28586C24.7715 7.30823 24.7956 7.35196 24.8296 7.35196C24.8435 7.35196 24.8547 7.33295 24.8547 7.30991C24.8547 7.26651 24.8232 7.25423 24.7929 7.28586ZM28.5872 7.34136C28.5872 7.40359 28.5934 7.40948 28.6274 7.38004C28.6495 7.36087 28.6677 7.32774 28.6677 7.30654C28.6677 7.28518 28.6495 7.26786 28.6274 7.26786C28.6018 7.26786 28.5872 7.29477 28.5872 7.34136ZM26.6539 7.43437C26.6539 7.54219 26.6582 7.54824 26.7344 7.54824C26.8085 7.54824 26.815 7.54034 26.815 7.45001C26.815 7.35566 26.7824 7.32168 26.7478 7.38004C26.7388 7.39535 26.7191 7.40797 26.7044 7.40797C26.6896 7.40797 26.6845 7.39636 26.693 7.3819C26.7015 7.3676 26.6962 7.34792 26.6811 7.33816C26.6643 7.3274 26.6539 7.3644 26.6539 7.43437ZM55.3227 7.3422C55.2861 7.38038 55.3012 12.6279 55.338 12.6151C55.3771 12.6015 55.4019 7.3866 55.3631 7.34607C55.351 7.33329 55.3328 7.3316 55.3227 7.3422ZM31.6759 7.58323C31.6767 7.76807 31.6803 7.78153 31.7162 7.73208C31.7626 7.668 31.7681 7.6209 31.726 7.64798C31.7046 7.66194 31.7046 7.65134 31.726 7.60946C31.7705 7.52284 31.7637 7.38004 31.7154 7.38004C31.6832 7.38004 31.6753 7.42092 31.6759 7.58323ZM35.0852 7.49206C35.0852 7.57313 35.0964 7.60425 35.1254 7.60425C35.1728 7.60425 35.1813 7.47743 35.1361 7.44816C35.1153 7.43488 35.1174 7.42176 35.1428 7.40494C35.1712 7.3861 35.1688 7.38072 35.1322 7.38038C35.0951 7.38004 35.0852 7.40393 35.0852 7.49206ZM59.8692 7.45001C59.8423 7.48382 59.8427 7.49206 59.8713 7.49206C59.8988 7.49206 59.8996 7.49963 59.8745 7.5257C59.8273 7.57515 59.8332 7.71644 59.8825 7.71644C59.9135 7.71644 59.9228 7.68061 59.9228 7.5622C59.9228 7.39485 59.9191 7.38711 59.8692 7.45001ZM56.7638 7.59954C56.7635 7.69407 56.7741 7.73511 56.7991 7.73511C56.824 7.73511 56.8348 7.6939 56.8348 7.59954C56.8348 7.50636 56.8239 7.46414 56.7997 7.46414C56.7755 7.46414 56.7643 7.5067 56.7638 7.59954ZM24.8707 7.58592C24.8742 7.61922 24.8781 7.65572 24.8794 7.66732C24.8807 7.67893 24.8937 7.68835 24.9086 7.68835C24.9487 7.68835 24.9409 7.55648 24.8997 7.54C24.876 7.53041 24.8664 7.54572 24.8707 7.58592ZM28.5066 7.60896C28.5066 7.65689 28.5209 7.68835 28.5429 7.68835C28.5641 7.68835 28.5799 7.65572 28.5812 7.60896C28.5825 7.55766 28.5698 7.52957 28.5449 7.52957C28.5208 7.52957 28.5066 7.55884 28.5066 7.60896ZM29.5324 7.6098C29.4831 7.66127 29.4899 7.94064 29.5404 7.94064C29.572 7.94064 29.5807 7.90179 29.5807 7.75848C29.5807 7.56136 29.5802 7.55985 29.5324 7.6098ZM32.9907 9.81568C32.9907 11.7281 32.9954 11.9736 33.0312 11.9593C33.0864 11.9373 33.0797 7.6865 33.0244 7.66732C32.9977 7.65807 32.9907 8.10009 32.9907 9.81568ZM24.9469 7.88699C24.9469 7.91575 24.9624 7.94552 24.9814 7.95309C25.0018 7.96133 25.0159 7.94569 25.0159 7.91474C25.0159 7.88598 25.0004 7.85637 24.9814 7.84864C24.9609 7.84056 24.9469 7.85604 24.9469 7.88699ZM28.4269 7.9477C28.4277 8.03382 28.4299 8.03584 28.4671 7.98437C28.5179 7.91423 28.5176 7.85654 28.4663 7.85654C28.4386 7.85654 28.4264 7.88497 28.4269 7.9477ZM35.1667 8.41949C35.1659 8.81442 35.1718 8.88439 35.206 8.88439C35.2648 8.88439 35.2654 8.09 35.207 8.0091C35.1717 7.96049 35.1673 8.00472 35.1667 8.41949ZM25.0455 8.16249C25.0249 8.17611 25.0155 8.2074 25.0246 8.23212C25.05 8.30142 25.0964 8.28527 25.0964 8.20689C25.0964 8.12818 25.0969 8.12851 25.0455 8.16249ZM28.3455 8.20454C28.3455 8.24709 28.3606 8.27703 28.3821 8.27703C28.4278 8.27703 28.4251 8.1598 28.379 8.14382C28.3581 8.13659 28.3455 8.15913 28.3455 8.20454ZM59.0372 9.76085C59.038 10.8587 59.0473 11.3886 59.066 11.3886C59.0838 11.3886 59.087 11.3417 59.0751 11.2585C59.0617 11.1658 59.0649 11.134 59.0863 11.1476C59.1081 11.1618 59.1163 10.7889 59.1163 9.76405C59.1163 8.82299 59.1071 8.36113 59.0887 8.36113C59.0718 8.36113 59.0678 8.32396 59.0781 8.26627C59.0886 8.20841 59.0836 8.16384 59.0655 8.15223C59.0441 8.13827 59.0362 8.57978 59.0372 9.76085ZM59.7641 9.76758C59.7632 10.9281 59.7706 11.2963 59.7959 11.3288C59.8221 11.3626 59.822 11.3671 59.7952 11.3503C59.7485 11.321 59.7524 11.3932 59.8012 11.4603C59.836 11.5084 59.8406 11.3237 59.8414 9.88195C59.8421 8.48425 59.8368 8.24894 59.8039 8.24894C59.771 8.24894 59.7652 8.47012 59.7641 9.76758ZM25.109 8.49114C25.1207 8.60367 25.177 8.64235 25.177 8.5379C25.177 8.48929 25.1604 8.44455 25.1393 8.43614C25.1122 8.42521 25.1037 8.44052 25.109 8.49114ZM28.2649 8.52932C28.2649 8.61914 28.3023 8.64235 28.3292 8.56902C28.3568 8.494 28.3474 8.44523 28.3052 8.44523C28.2783 8.44523 28.2649 8.47332 28.2649 8.52932ZM29.4391 8.5744C29.4033 8.61174 29.4164 11.0242 29.4523 11.0247C29.4762 11.025 29.4744 11.0333 29.4463 11.0518C29.4112 11.075 29.4122 11.0846 29.4536 11.1278C29.499 11.1752 29.501 11.1202 29.4995 9.86732C29.4987 9.14694 29.4884 8.55741 29.4766 8.55741C29.465 8.55741 29.448 8.56498 29.4391 8.5744ZM25.1923 8.80651C25.1842 8.82013 25.1957 8.84688 25.2176 8.86605C25.2509 8.89481 25.2575 8.89061 25.2575 8.84116C25.2575 8.78094 25.2193 8.76076 25.1923 8.80651ZM28.1844 8.83763C28.1844 8.90457 28.2256 8.91197 28.2487 8.8494C28.2717 8.78683 28.2699 8.78162 28.2247 8.78162C28.2023 8.78162 28.1844 8.80651 28.1844 8.83763ZM56.8348 9.81888C56.8348 10.6972 56.8402 10.8281 56.8751 10.8281C56.9102 10.8281 56.9154 10.6972 56.9154 9.81888C56.9154 8.94039 56.9102 8.80971 56.8751 8.80971C56.8402 8.80971 56.8348 8.94039 56.8348 9.81888ZM0.795898 9.51041C0.795898 9.86547 0.805726 10.0712 0.822804 10.0712C0.83972 10.0712 0.849548 9.86547 0.849548 9.51041C0.849548 9.15535 0.83972 8.94981 0.822804 8.94981C0.805726 8.94981 0.795898 9.15535 0.795898 9.51041ZM25.2877 9.0874C25.2564 9.10792 25.2575 9.12255 25.2943 9.17721L25.3381 9.24264V9.15232C25.3381 9.05174 25.3392 9.05325 25.2877 9.0874ZM28.1166 9.09883C28.1056 9.12692 28.109 9.16275 28.1241 9.17839C28.1618 9.21775 28.1821 9.172 28.157 9.10405C28.1377 9.05124 28.1352 9.0509 28.1166 9.09883ZM61.9546 9.16477C61.9011 9.22061 61.994 9.2302 62.5945 9.2302C63.1614 9.2302 63.2524 9.22431 63.2524 9.18815C63.2524 9.14391 61.9961 9.12137 61.9546 9.16477ZM25.3519 9.39772C25.3363 9.42412 25.3804 9.5385 25.4062 9.5385C25.413 9.5385 25.4186 9.50065 25.4186 9.4544C25.4186 9.37215 25.3843 9.34305 25.3519 9.39772ZM28.0233 9.40932C28.0233 9.47055 28.0924 9.48367 28.0967 9.42328C28.0988 9.39402 28.0832 9.3703 28.0619 9.3703C28.0407 9.3703 28.0233 9.38779 28.0233 9.40932ZM25.4473 9.67726C25.4172 9.69677 25.4157 9.71123 25.4404 9.74218C25.4576 9.76405 25.4631 9.79331 25.4525 9.80744C25.4418 9.8214 25.4489 9.81854 25.4684 9.80105C25.518 9.75648 25.4987 9.64362 25.4473 9.67726ZM27.9427 9.73125C27.9427 9.81938 27.9769 9.84646 28.0125 9.78642C28.0254 9.76455 28.0194 9.76169 27.9938 9.77784C27.9627 9.79735 27.9621 9.79399 27.9901 9.75782C28.0176 9.72217 28.0165 9.7077 27.9833 9.67894C27.9485 9.64883 27.9427 9.6564 27.9427 9.73125ZM21.3642 10.1272C21.3642 10.5092 21.3838 10.6245 21.4284 10.5033C21.467 10.3983 21.4462 9.70669 21.4044 9.70669C21.3705 9.70669 21.3642 9.77212 21.3642 10.1272ZM27.8622 10.0259C27.8622 10.0789 27.873 10.093 27.9037 10.0808C27.9514 10.0616 27.9459 9.98337 27.8957 9.96605C27.8747 9.95865 27.8622 9.98102 27.8622 10.0259ZM25.5205 10.0618C25.5269 10.0977 25.5416 10.1272 25.5527 10.1272C25.564 10.1272 25.5731 10.0977 25.5731 10.0618C25.5731 10.0258 25.5585 9.99633 25.5408 9.99633C25.5213 9.99633 25.5132 10.0226 25.5205 10.0618ZM27.7816 12.3337C27.7816 13.9743 27.789 14.4412 27.8151 14.4707C27.842 14.5009 27.842 14.5045 27.8151 14.4887C27.7945 14.4765 27.7816 14.486 27.7816 14.5132C27.7816 14.5531 27.6709 14.5568 26.6961 14.5499C25.6635 14.5426 25.6124 14.5447 25.653 14.5914C25.692 14.6365 25.7784 14.6404 26.7204 14.6404H27.7454L27.8045 14.5748L27.8635 14.5093L27.856 12.3837C27.8502 10.7135 27.8415 10.2555 27.8151 10.2463C27.7885 10.237 27.7816 10.6669 27.7816 12.3337ZM25.5983 10.3204C25.6036 10.342 25.6075 11.2913 25.607 12.4299C25.6063 13.8083 25.615 14.5003 25.6332 14.5003C25.6513 14.5003 25.6603 13.8162 25.6603 12.4562C25.6603 11.332 25.6677 10.3921 25.6766 10.3677C25.687 10.3393 25.6783 10.3235 25.6521 10.3235C25.6295 10.3235 25.606 10.3139 25.5999 10.3024C25.5936 10.2908 25.593 10.2989 25.5983 10.3204ZM61.9434 10.6107C61.962 10.6689 65.2394 10.6763 65.2394 10.6183C65.2394 10.5806 65.048 10.5758 63.5858 10.5758C62.2748 10.5758 61.9346 10.583 61.9434 10.6107ZM0.849548 10.9788C0.849548 11.1782 0.859375 11.2501 0.889825 11.2765C0.925269 11.3072 0.930102 11.2751 0.930102 11.0136C0.930102 10.7677 0.923174 10.7159 0.889825 10.7159C0.856959 10.7159 0.849548 10.7638 0.849548 10.9788ZM35.1672 11.1893C35.1697 11.5579 35.1767 11.6335 35.2052 11.6038C35.2545 11.5523 35.2482 10.768 35.1984 10.7507C35.171 10.7411 35.1646 10.8333 35.1672 11.1893ZM21.2836 11.3185C21.2836 11.5646 21.3079 11.6488 21.3479 11.5405C21.3848 11.4399 21.3658 11.0523 21.3239 11.0523C21.2909 11.0523 21.2836 11.1005 21.2836 11.3185ZM63.3934 11.5192C63.3601 11.5266 63.333 11.552 63.333 11.5753C63.333 11.6118 63.3684 11.615 63.5813 11.5977C63.7179 11.5864 63.8448 11.5769 63.8632 11.5764C63.9162 11.575 63.8719 11.5436 63.8073 11.5367C63.5874 11.5134 63.4454 11.5074 63.3934 11.5192ZM64.6219 11.6386C64.6219 11.7027 64.6841 11.706 65.1954 11.6695C65.3478 11.6586 65.1638 11.6179 64.8568 11.5944C64.6269 11.5769 64.6219 11.5779 64.6219 11.6386ZM0.93558 11.8979C0.947018 12.1469 1.01066 12.1566 1.01066 11.9095C1.01066 11.7617 1.00244 11.725 0.96909 11.725C0.935258 11.725 0.929135 11.757 0.93558 11.8979ZM29.5002 11.9028C29.5002 11.9894 29.5164 12.0732 29.5395 12.1052C29.5756 12.1548 29.5791 12.1432 29.5797 11.9733C29.5804 11.833 29.5707 11.7831 29.5404 11.771C29.5077 11.7578 29.5002 11.7827 29.5002 11.9028ZM56.7609 11.9072C56.7556 12.0042 56.7633 12.0333 56.7944 12.0333C56.8245 12.0333 56.8348 12.001 56.8348 11.9072C56.8348 11.7355 56.7702 11.7355 56.7609 11.9072ZM21.2031 12.0919C21.2031 12.3183 21.2667 12.3085 21.2781 12.0803C21.2847 11.9518 21.2783 11.9213 21.2446 11.9213C21.2116 11.9213 21.2031 11.9565 21.2031 12.0919ZM59.8423 12.0448C59.8423 12.119 59.858 12.1803 59.8825 12.2015C59.9175 12.2318 59.9228 12.2177 59.9228 12.0959C59.9228 11.9968 59.9109 11.9506 59.8825 11.9392C59.8505 11.9264 59.8423 11.9481 59.8423 12.0448ZM31.7012 11.9677C31.7164 11.9756 31.7288 11.9943 31.7288 12.0093C31.7288 12.0244 31.7167 12.029 31.7019 12.0194C31.6854 12.0088 31.6751 12.0564 31.6751 12.1438C31.6751 12.2527 31.6846 12.2856 31.7162 12.2856C31.7699 12.2856 31.7618 11.9719 31.708 11.9607C31.6891 11.9568 31.6861 11.9598 31.7012 11.9677ZM58.9562 12.1151C58.9562 12.2702 58.9864 12.339 59.0158 12.2506C59.0406 12.1761 59.0222 11.9677 58.9897 11.9563C58.9653 11.9479 58.9562 11.9911 58.9562 12.1151ZM35.1188 12.0239C35.0982 12.0327 35.0852 12.0925 35.0852 12.1793C35.0852 12.2927 35.0922 12.3146 35.1204 12.29C35.1493 12.2651 35.1867 12.0002 35.1602 12.0076C35.1559 12.0088 35.1372 12.0162 35.1188 12.0239ZM61.9579 12.2227C61.9459 12.3691 61.9581 12.4538 61.9914 12.4538C62.0264 12.4538 62.0498 12.2932 62.0227 12.2382C62.0088 12.2105 62.0027 12.1729 62.0088 12.1551C62.015 12.1373 62.0085 12.1153 61.9945 12.1062C61.9802 12.0969 61.9641 12.1481 61.9579 12.2227ZM63.286 12.2715C63.2383 12.3282 63.2429 12.4538 63.2927 12.4538C63.3217 12.4538 63.333 12.4227 63.333 12.3418C63.333 12.2165 63.3327 12.2162 63.286 12.2715ZM56.6902 12.3087C56.6811 12.324 56.684 12.3659 56.6968 12.4019L56.7198 12.4669L56.7398 12.4015C56.7606 12.3331 56.7203 12.2577 56.6902 12.3087ZM32.9102 12.4574C32.9102 12.5319 32.9161 12.5398 32.9505 12.51C32.9727 12.4908 32.9907 12.4513 32.9907 12.4224C32.9907 12.3934 32.9727 12.3697 32.9505 12.3697C32.9232 12.3697 32.9102 12.3982 32.9102 12.4574ZM1.01581 12.5008C1.02773 12.6486 1.09121 12.6584 1.09121 12.5124C1.09121 12.4273 1.08042 12.3978 1.04932 12.3978C1.01742 12.3978 1.00953 12.4224 1.01581 12.5008ZM29.5859 12.508C29.5891 12.5532 29.6004 12.5847 29.6108 12.578C29.6212 12.5712 29.636 12.5815 29.6434 12.6008C29.6508 12.6202 29.6579 12.5887 29.6592 12.531C29.6606 12.4548 29.65 12.4259 29.6205 12.4259C29.592 12.4259 29.5817 12.4505 29.5859 12.508ZM59.9512 12.4806C59.9178 12.5024 59.9177 12.5171 59.9496 12.585C59.9855 12.6614 59.9871 12.6619 59.9969 12.6007C60.0134 12.4987 59.9955 12.4518 59.9512 12.4806ZM31.7557 12.622C31.7557 12.6782 31.7691 12.7061 31.796 12.7061C31.8227 12.7061 31.8362 12.6782 31.8362 12.622C31.8362 12.566 31.8227 12.5379 31.796 12.5379C31.7691 12.5379 31.7557 12.566 31.7557 12.622ZM35.0046 12.622C35.0046 12.6912 35.0576 12.7529 35.0587 12.6851C35.0589 12.6737 35.0663 12.6358 35.0753 12.601C35.0872 12.5547 35.08 12.5379 35.0481 12.5379C35.0178 12.5379 35.0046 12.5633 35.0046 12.622ZM48.7509 12.5379C48.7264 12.6684 48.7291 12.7016 48.7655 12.716C48.7945 12.7277 48.8061 12.7145 48.8058 12.6703C48.8055 12.6158 48.7577 12.5009 48.7509 12.5379ZM65.1857 12.6922C65.1857 12.7769 65.1978 12.8464 65.2125 12.8464C65.2273 12.8464 65.2394 12.7769 65.2394 12.6922C65.2394 12.6074 65.2273 12.5379 65.2125 12.5379C65.1978 12.5379 65.1857 12.6074 65.1857 12.6922ZM21.1225 12.6955C21.1225 12.8075 21.128 12.8205 21.1628 12.7902C21.1849 12.771 21.2031 12.7129 21.2031 12.6607C21.2031 12.5953 21.1907 12.566 21.1628 12.566C21.1328 12.566 21.1225 12.5992 21.1225 12.6955ZM56.6135 12.601C56.5961 12.6503 56.6198 12.7097 56.6492 12.6906C56.6808 12.6703 56.6813 12.566 56.6497 12.566C56.6367 12.566 56.6202 12.5818 56.6135 12.601ZM58.9091 12.5845C58.8669 12.6023 58.8651 12.7241 58.9065 12.7509C58.9259 12.7633 58.9304 12.7586 58.9185 12.7386C58.908 12.7208 58.9091 12.7061 58.921 12.7061C58.933 12.7061 58.9444 12.6747 58.9467 12.6362C58.9487 12.5975 58.9487 12.567 58.9467 12.5682C58.9444 12.5694 58.9276 12.5768 58.9091 12.5845ZM38.3342 12.6688C38.3342 12.6893 38.3523 12.7061 38.3745 12.7061C38.3966 12.7061 38.4148 12.6893 38.4148 12.6688C38.4148 12.6483 38.3966 12.6314 38.3745 12.6314C38.3523 12.6314 38.3342 12.6483 38.3342 12.6688ZM62.049 12.697C62.058 12.7766 62.1157 12.8215 62.1157 12.749C62.1157 12.7255 62.106 12.7061 62.0941 12.7061C62.0823 12.7061 62.0796 12.6873 62.0881 12.6641C62.0965 12.641 62.0894 12.622 62.072 12.622C62.0536 12.622 62.0441 12.6533 62.049 12.697ZM63.2122 12.6501C63.2212 12.6656 63.2159 12.6782 63.2002 12.6782C63.1846 12.6782 63.1719 12.7012 63.1719 12.7295C63.1719 12.7578 63.1899 12.781 63.2122 12.781C63.2384 12.781 63.2524 12.7534 63.2524 12.7016C63.2524 12.6579 63.2396 12.622 63.2239 12.622C63.2083 12.622 63.203 12.6346 63.2122 12.6501ZM29.6661 12.8652C29.6785 12.9744 29.7418 12.984 29.7418 12.8767C29.7418 12.817 29.7288 12.7902 29.6998 12.7902C29.67 12.7902 29.6601 12.8121 29.6661 12.8652ZM31.8362 12.837C31.8362 12.8575 31.847 12.8743 31.8602 12.8743C31.8733 12.8743 31.8904 12.8575 31.8979 12.837C31.9055 12.8165 31.8947 12.7996 31.8739 12.7996C31.8532 12.7996 31.8362 12.8165 31.8362 12.837ZM1.09121 12.9281C1.09121 12.9732 1.09862 13.0299 1.10748 13.0543C1.1389 13.1396 1.17177 13.0977 1.17177 12.9725C1.17177 12.879 1.16145 12.8464 1.13149 12.8464C1.10491 12.8464 1.09121 12.8742 1.09121 12.9281ZM60.015 12.8953C60.0188 12.9224 60.0327 12.9445 60.0459 12.9445C60.0589 12.9445 60.0738 12.9224 60.0788 12.8953C60.0841 12.8664 60.0715 12.8464 60.048 12.8464C60.0253 12.8464 60.0111 12.8674 60.015 12.8953ZM32.7394 12.9165C32.7301 12.9421 32.7394 12.9584 32.7634 12.9584C32.8068 12.9584 32.8167 12.9147 32.7787 12.8901C32.7655 12.8817 32.7478 12.8935 32.7394 12.9165ZM34.9577 12.893C34.9392 12.9007 34.924 12.9386 34.924 12.9771C34.924 13.0208 34.9368 13.0429 34.9577 13.0356C34.9761 13.0292 34.9917 12.9902 34.9925 12.9492C34.9932 12.908 34.9932 12.8753 34.9925 12.8765C34.9917 12.8779 34.9761 12.8851 34.9577 12.893ZM39.226 12.9315C39.2071 12.963 39.1781 12.9799 39.1615 12.9692C39.1443 12.9581 39.139 12.9623 39.1491 12.9796C39.172 13.0181 39.3004 12.9588 39.3007 12.9095C39.301 12.8565 39.2643 12.8674 39.226 12.9315ZM46.5429 12.8953C46.5213 12.9364 46.5377 13.099 46.5642 13.1058C46.579 13.1096 46.5948 13.059 46.5993 12.9936C46.6065 12.8888 46.5751 12.8343 46.5429 12.8953ZM36.1391 13.0286C36.1391 13.0671 36.1504 13.0987 36.1643 13.0987C36.178 13.0987 36.1833 13.1086 36.176 13.1211C36.1688 13.1333 36.1739 13.1618 36.1875 13.1841C36.2045 13.2122 36.2123 13.1835 36.2126 13.0916C36.2129 12.9971 36.2023 12.9584 36.176 12.9584C36.1546 12.9584 36.1391 12.9879 36.1391 13.0286ZM38.4953 13.0052C38.4953 13.0257 38.5115 13.0425 38.5311 13.0425C38.5508 13.0425 38.5669 13.0257 38.5669 13.0052C38.5669 12.9847 38.5508 12.9678 38.5311 12.9678C38.5115 12.9678 38.4953 12.9847 38.4953 13.0052ZM48.8869 13.0005C48.8869 13.0237 48.903 13.0425 48.9226 13.0425C48.9423 13.0425 48.9584 13.0237 48.9584 13.0005C48.9584 12.9774 48.9423 12.9584 48.9226 12.9584C48.903 12.9584 48.8869 12.9774 48.8869 13.0005ZM56.2882 13.0005C56.2966 13.0237 56.3145 13.0425 56.3275 13.0425C56.3407 13.0425 56.3515 13.0237 56.3515 13.0005C56.3515 12.9774 56.3338 12.9584 56.3122 12.9584C56.288 12.9584 56.2787 12.9749 56.2882 13.0005ZM58.795 13.0425C58.795 13.0888 58.8078 13.1266 58.8236 13.1266C58.8392 13.1266 58.8452 13.1152 58.8368 13.101C58.8284 13.0869 58.836 13.0704 58.8534 13.0644C58.8907 13.0513 58.8638 12.9584 58.8228 12.9584C58.8075 12.9584 58.795 12.9963 58.795 13.0425ZM62.2052 13.0015C62.2052 13.0467 62.2471 13.057 62.2706 13.0175C62.2787 13.0037 62.2674 12.9852 62.2453 12.9762C62.2209 12.9665 62.2052 12.9764 62.2052 13.0015ZM21.042 13.101C21.042 13.247 21.1054 13.2373 21.1174 13.0894C21.1236 13.0111 21.1157 12.9865 21.0838 12.9865C21.0527 12.9865 21.042 13.0159 21.042 13.101ZM32.0779 13.0846C32.0779 13.1078 32.0956 13.1266 32.1172 13.1266C32.1414 13.1266 32.1507 13.1103 32.1412 13.0846C32.1328 13.0615 32.115 13.0425 32.1019 13.0425C32.0887 13.0425 32.0779 13.0615 32.0779 13.0846ZM38.6565 13.0893C38.6565 13.1098 38.6745 13.1266 38.6967 13.1266C38.7188 13.1266 38.737 13.1098 38.737 13.0893C38.737 13.0688 38.7188 13.0519 38.6967 13.0519C38.6745 13.0519 38.6565 13.0688 38.6565 13.0893ZM38.8722 13.0834C38.8424 13.1209 38.8495 13.1266 38.9239 13.1266C38.9808 13.1266 39.0062 13.1148 38.9988 13.0916C38.9821 13.039 38.9112 13.0344 38.8722 13.0834ZM49.048 13.0893C49.048 13.1098 49.0641 13.1266 49.0837 13.1266C49.1034 13.1266 49.1195 13.1098 49.1195 13.0893C49.1195 13.0688 49.1034 13.0519 49.0837 13.0519C49.0641 13.0519 49.048 13.0688 49.048 13.0893ZM49.2896 13.0906C49.2896 13.1105 49.3064 13.1266 49.327 13.1266C49.3476 13.1266 49.3703 13.1105 49.3778 13.0906C49.3857 13.0691 49.3705 13.0546 49.3402 13.0546C49.3123 13.0546 49.2896 13.0708 49.2896 13.0906ZM62.8497 13.0846C62.8497 13.1078 62.8677 13.1266 62.8899 13.1266C62.912 13.1266 62.9302 13.1078 62.9302 13.0846C62.9302 13.0615 62.912 13.0425 62.8899 13.0425C62.8677 13.0425 62.8497 13.0615 62.8497 13.0846ZM29.7666 13.1056C29.747 13.1724 29.7536 13.2107 29.7844 13.2107C29.8053 13.2107 29.8224 13.1855 29.8224 13.1547C29.8224 13.1113 29.7766 13.0711 29.7666 13.1056ZM60.0957 13.1481C60.0992 13.1732 60.1161 13.1986 60.1332 13.2047C60.1782 13.2201 60.1719 13.1357 60.1268 13.1175C60.1029 13.1079 60.0915 13.1192 60.0957 13.1481ZM32.3105 13.1453C32.2765 13.1809 32.2928 13.2107 32.3463 13.2107C32.3763 13.2107 32.4001 13.192 32.4001 13.1687C32.4001 13.1261 32.3432 13.1111 32.3105 13.1453ZM34.8614 13.1453C34.8337 13.1744 34.8404 13.2669 34.8704 13.2669C34.8852 13.2669 34.8973 13.2353 34.8973 13.1967C34.8973 13.1234 34.891 13.1145 34.8614 13.1453ZM1.17177 13.2903C1.17177 13.3671 1.19915 13.4351 1.23009 13.4351C1.26779 13.4351 1.24491 13.2591 1.20544 13.2457C1.1861 13.239 1.17177 13.258 1.17177 13.2903ZM58.7145 13.3237C58.7145 13.3875 58.7556 13.3977 58.777 13.3392C58.7851 13.3173 58.7743 13.2926 58.753 13.284C58.7275 13.2738 58.7145 13.2872 58.7145 13.3237ZM60.1993 13.3355C60.1737 13.3658 60.1751 13.3772 60.2059 13.3895C60.232 13.4001 60.245 13.3868 60.245 13.35C60.245 13.2854 60.2421 13.2845 60.1993 13.3355ZM20.9614 13.4221C20.9614 13.5128 20.9667 13.5214 21.003 13.4899C21.0503 13.4489 21.0452 13.3471 20.9949 13.3298C20.972 13.3219 20.9614 13.3515 20.9614 13.4221ZM65.0246 13.3683C65.0246 13.4056 65.0319 13.4075 65.0649 13.3789C65.087 13.3597 65.1052 13.3394 65.1052 13.3335C65.1052 13.3276 65.087 13.3229 65.0649 13.3229C65.0427 13.3229 65.0246 13.3434 65.0246 13.3683ZM34.7629 13.407C34.7629 13.4432 34.7766 13.463 34.7966 13.4561C34.815 13.4495 34.8301 13.4275 34.8301 13.407C34.8301 13.3865 34.815 13.3644 34.7966 13.3579C34.7766 13.351 34.7629 13.3708 34.7629 13.407ZM36.2236 13.4514C36.2324 13.4758 36.2398 13.5072 36.2398 13.5214C36.2398 13.5355 36.2519 13.5471 36.2667 13.5471C36.2814 13.5471 36.2935 13.5156 36.2935 13.4771C36.2935 13.4314 36.2785 13.407 36.2505 13.407C36.2221 13.407 36.2128 13.4223 36.2236 13.4514ZM64.9441 13.4894C64.9441 13.5365 64.9916 13.5481 65.0076 13.5049C65.0169 13.4795 65.0074 13.463 64.9834 13.463C64.9618 13.463 64.9441 13.4749 64.9441 13.4894ZM58.6339 13.5488C58.6339 13.5806 58.646 13.5987 58.6608 13.5891C58.6755 13.5797 58.6876 13.5537 58.6876 13.5315C58.6876 13.5093 58.6755 13.4911 58.6608 13.4911C58.646 13.4911 58.6339 13.517 58.6339 13.5488ZM1.25232 13.5891C1.25232 13.6124 1.27052 13.6312 1.2926 13.6312C1.31483 13.6312 1.33287 13.6124 1.33287 13.5891C1.33287 13.5661 1.31483 13.5471 1.2926 13.5471C1.27052 13.5471 1.25232 13.5661 1.25232 13.5891ZM34.6824 13.5915C34.6824 13.6159 34.6967 13.6309 34.7143 13.6248C34.7641 13.6075 34.7724 13.5471 34.7249 13.5471C34.7016 13.5471 34.6824 13.5671 34.6824 13.5915ZM20.8808 13.6616C20.8808 13.7299 20.9435 13.7203 20.9566 13.65C20.9617 13.6223 20.948 13.6033 20.9231 13.6033C20.8981 13.6033 20.8808 13.6272 20.8808 13.6616ZM50.1847 13.6732C50.1847 13.6965 50.1947 13.7153 50.207 13.7153C50.2194 13.7153 50.2294 13.7027 50.2294 13.6874C50.2294 13.6719 50.2418 13.6593 50.2568 13.6593C50.2719 13.6593 50.2784 13.6926 50.2713 13.7333C50.2643 13.774 50.2761 13.8335 50.2977 13.8657C50.3341 13.92 50.3368 13.9139 50.3368 13.7777C50.3368 13.6356 50.3346 13.6312 50.2608 13.6312C50.211 13.6312 50.1847 13.6458 50.1847 13.6732ZM1.33287 13.741C1.33287 13.7896 1.36558 13.8556 1.38942 13.8556C1.40263 13.8556 1.41343 13.824 1.41343 13.7854C1.41343 13.7419 1.39828 13.7153 1.37315 13.7153C1.35108 13.7153 1.33287 13.7269 1.33287 13.741ZM36.3294 13.7573C36.3294 13.7806 36.3381 13.7994 36.3489 13.7994C36.3595 13.7994 36.3753 13.7806 36.3839 13.7573C36.3927 13.7333 36.3843 13.7153 36.3644 13.7153C36.345 13.7153 36.3294 13.7343 36.3294 13.7573ZM39.8949 13.7409C39.8662 13.7597 39.8638 13.789 39.8844 13.8734L39.9107 13.9817L39.9429 13.8986C39.9811 13.8004 39.9516 13.7039 39.8949 13.7409ZM20.8003 13.8414C20.8003 13.8647 20.8183 13.8835 20.8406 13.8835C20.8626 13.8835 20.8808 13.8647 20.8808 13.8414C20.8808 13.8184 20.8626 13.7994 20.8406 13.7994C20.8183 13.7994 20.8003 13.8184 20.8003 13.8414ZM34.5253 13.8261C34.5313 13.8446 34.5448 13.8588 34.5556 13.8576C34.5877 13.8542 34.5815 13.8157 34.5469 13.8036C34.5292 13.7975 34.5195 13.8076 34.5253 13.8261ZM55.2238 13.8414C55.2238 13.8647 55.242 13.8835 55.264 13.8835C55.2863 13.8835 55.3043 13.8647 55.3043 13.8414C55.3043 13.8184 55.2863 13.7994 55.264 13.7994C55.242 13.7994 55.2238 13.8184 55.2238 13.8414ZM60.433 13.8103C60.433 13.8162 60.4485 13.8509 60.4675 13.8874C60.5075 13.9641 60.5672 13.9871 60.5672 13.9255C60.5672 13.9025 60.549 13.8835 60.527 13.8835C60.5049 13.8835 60.4867 13.8647 60.4867 13.8414C60.4867 13.8184 60.4746 13.7994 60.4598 13.7994C60.4451 13.7994 60.433 13.8043 60.433 13.8103ZM1.41343 13.9255C1.41343 13.9488 1.43163 13.9676 1.45371 13.9676C1.47594 13.9676 1.49398 13.9488 1.49398 13.9255C1.49398 13.9025 1.47594 13.8835 1.45371 13.8835C1.43163 13.8835 1.41343 13.9025 1.41343 13.9255ZM30.1512 13.9178C30.1549 13.9366 30.182 13.9654 30.2111 13.9815C30.2405 13.9975 30.2794 14.0421 30.298 14.0803C30.3165 14.1186 30.332 14.1386 30.3321 14.1249C30.3323 14.1112 30.374 14.1459 30.4246 14.2021C30.5279 14.3163 30.5383 14.3218 30.5383 14.2619C30.5383 14.2389 30.5222 14.2199 30.5026 14.2199C30.4829 14.2199 30.4668 14.201 30.4668 14.1778C30.4668 14.1548 30.4486 14.1358 30.4265 14.1358C30.4043 14.1358 30.3863 14.1169 30.3863 14.0937C30.3863 14.0707 30.3681 14.0517 30.346 14.0517C30.3237 14.0517 30.3057 14.0328 30.3057 14.0096C30.3057 13.9866 30.2875 13.9676 30.2654 13.9676C30.2432 13.9676 30.2252 13.9488 30.2252 13.9255C30.2252 13.9025 30.2069 13.8835 30.1849 13.8835C30.1626 13.8835 30.1475 13.899 30.1512 13.9178ZM39.6231 13.9133C39.6231 13.9296 39.6342 13.9358 39.6476 13.9271C39.6611 13.9183 39.6784 13.9271 39.6858 13.9464C39.694 13.9678 39.7003 13.9622 39.7016 13.9326C39.7027 13.9057 39.6855 13.8835 39.6634 13.8835C39.6412 13.8835 39.6231 13.8969 39.6231 13.9133ZM50.0146 13.921C50.0146 13.9415 50.0327 13.9583 50.0549 13.9583C50.077 13.9583 50.0952 13.9415 50.0952 13.921C50.0952 13.9003 50.077 13.8835 50.0549 13.8835C50.0327 13.8835 50.0146 13.9003 50.0146 13.921ZM64.7169 13.9134C64.7266 13.9299 64.7094 13.9503 64.6783 13.9588C64.6472 13.9673 64.6219 13.9916 64.6219 14.013C64.6219 14.0344 64.6027 14.0517 64.5793 14.0517C64.5281 14.0517 64.5421 14.1138 64.5966 14.1292C64.6278 14.138 64.6283 14.1351 64.5995 14.1139C64.564 14.0878 64.6291 14.0355 64.6823 14.0473C64.6932 14.0497 64.7024 14.0328 64.7024 14.0096C64.7024 13.9866 64.7145 13.9676 64.7292 13.9676C64.744 13.9676 64.7561 13.9488 64.7561 13.9255C64.7561 13.9025 64.7433 13.8835 64.7276 13.8835C64.7119 13.8835 64.7071 13.8969 64.7169 13.9134ZM20.7197 14.012C20.7197 14.0616 20.7774 14.0529 20.794 14.0009C20.8 13.9826 20.7856 13.9676 20.7623 13.9676C20.7387 13.9676 20.7197 13.9876 20.7197 14.012ZM39.5426 14.0096C39.5426 14.0328 39.5243 14.0517 39.5023 14.0517C39.48 14.0517 39.462 14.0707 39.462 14.0937C39.462 14.1169 39.4438 14.1358 39.4217 14.1358C39.3995 14.1358 39.3814 14.1548 39.3814 14.1778C39.3814 14.201 39.3632 14.2199 39.3412 14.2199C39.3189 14.2199 39.3009 14.2389 39.3009 14.2619C39.3009 14.2851 39.3189 14.304 39.3412 14.304C39.3632 14.304 39.3814 14.2917 39.3814 14.2766C39.3814 14.2424 39.572 14.0357 39.5965 14.0431C39.6062 14.0461 39.6141 14.0303 39.6141 14.0081C39.6141 13.9859 39.598 13.9676 39.5783 13.9676C39.5587 13.9676 39.5426 13.9866 39.5426 14.0096ZM55.1432 14.0961C55.1432 14.1417 55.1558 14.1642 55.1769 14.1568C55.2229 14.1408 55.2255 14.0238 55.1799 14.0238C55.1583 14.0238 55.1432 14.0537 55.1432 14.0961ZM1.49398 14.0937C1.49398 14.1169 1.51219 14.1358 1.53426 14.1358C1.55649 14.1358 1.57454 14.1169 1.57454 14.0937C1.57454 14.0707 1.55649 14.0517 1.53426 14.0517C1.51219 14.0517 1.49398 14.0707 1.49398 14.0937ZM36.4815 14.0655C36.4815 14.073 36.5177 14.1154 36.562 14.1597C36.6063 14.2039 36.6426 14.2544 36.6426 14.272C36.6426 14.2897 36.6593 14.304 36.68 14.304C36.7006 14.304 36.7244 14.323 36.7328 14.346C36.7414 14.3692 36.7608 14.3881 36.776 14.3881C36.7913 14.3881 36.8037 14.3692 36.8037 14.346C36.8037 14.323 36.7855 14.304 36.7634 14.304C36.7412 14.304 36.7231 14.2851 36.7231 14.2619C36.7231 14.2389 36.7049 14.2199 36.6829 14.2199C36.6606 14.2199 36.6426 14.2026 36.6426 14.1812C36.6426 14.1598 36.6171 14.1354 36.5862 14.127C36.5551 14.1185 36.5377 14.0981 36.5475 14.0816C36.5572 14.0651 36.5464 14.0517 36.5234 14.0517C36.5003 14.0517 36.4815 14.0579 36.4815 14.0655ZM64.4648 14.1625C64.4706 14.181 64.4843 14.1952 64.4949 14.194C64.527 14.1906 64.5209 14.1521 64.4862 14.14C64.4685 14.1339 64.4588 14.144 64.4648 14.1625ZM46.9714 14.1842C46.9606 14.2026 46.9758 14.2236 47.0072 14.234C47.0372 14.2439 47.0547 14.2638 47.0464 14.2781C47.0378 14.2924 47.0438 14.304 47.0594 14.304C47.075 14.304 47.0878 14.2851 47.0878 14.2619C47.0878 14.2389 47.0707 14.2199 47.0497 14.2199C47.0288 14.2199 47.0069 14.2047 47.0009 14.1862C46.9932 14.1617 46.9851 14.1612 46.9714 14.1842ZM39.9455 14.2399C39.9458 14.359 40.0051 14.5167 40.0275 14.4582C40.0674 14.3536 40.0552 14.2513 39.999 14.2199C39.9547 14.1952 39.9453 14.1987 39.9455 14.2399ZM50.3616 14.213C50.3605 14.2244 50.3546 14.2623 50.3484 14.2971C50.3423 14.3317 50.3488 14.3602 50.3629 14.3602C50.3773 14.3602 50.3819 14.379 50.3734 14.4022C50.3649 14.4252 50.3713 14.4443 50.3877 14.4443C50.405 14.4443 50.4174 14.3916 50.4174 14.3181C50.4174 14.2179 50.3697 14.128 50.3616 14.213ZM20.5586 14.2619C20.5586 14.2851 20.5404 14.304 20.5183 14.304C20.4961 14.304 20.4781 14.323 20.4781 14.346C20.4781 14.3692 20.4599 14.3881 20.4378 14.3881C20.4156 14.3881 20.3975 14.4071 20.3975 14.4301C20.3975 14.4533 20.4156 14.4722 20.4378 14.4722C20.4599 14.4722 20.4781 14.4533 20.4781 14.4301C20.4781 14.4071 20.4961 14.3881 20.5183 14.3881C20.5404 14.3881 20.5586 14.3706 20.5586 14.3491C20.5586 14.3275 20.5767 14.3028 20.5989 14.2939C20.621 14.285 20.6392 14.2648 20.6392 14.2488C20.6392 14.233 20.621 14.2199 20.5989 14.2199C20.5767 14.2199 20.5586 14.2389 20.5586 14.2619ZM34.1185 14.2611C34.1185 14.2862 34.1343 14.2959 34.1588 14.2862C34.181 14.2772 34.1991 14.2587 34.1991 14.2449C34.1991 14.2312 34.181 14.2199 34.1588 14.2199C34.1367 14.2199 34.1185 14.2384 34.1185 14.2611ZM60.8089 14.2449C60.8089 14.2587 60.825 14.2764 60.8447 14.2843C60.8643 14.2922 60.8804 14.2809 60.8804 14.2592C60.8804 14.2377 60.8643 14.2199 60.8447 14.2199C60.825 14.2199 60.8089 14.2312 60.8089 14.2449ZM49.6589 14.2954C49.6015 14.311 49.5961 14.3788 49.6521 14.3788C49.6742 14.3788 49.6864 14.3726 49.6792 14.365C49.6719 14.3575 49.6795 14.3343 49.6959 14.3136C49.7124 14.2929 49.7214 14.2774 49.7158 14.2793C49.7103 14.2811 49.6847 14.2883 49.6589 14.2954ZM47.1237 14.3449C47.1237 14.3672 47.1345 14.3787 47.1479 14.3701C47.1611 14.3615 47.1788 14.3815 47.187 14.4145C47.2025 14.4764 47.2508 14.4804 47.2696 14.4214C47.2755 14.403 47.2608 14.3881 47.2369 14.3881C47.2131 14.3881 47.1865 14.3692 47.1781 14.346C47.1583 14.2924 47.1237 14.2915 47.1237 14.3449ZM64.2191 14.3415C64.2191 14.362 64.236 14.3788 64.2568 14.3788C64.2776 14.3788 64.2884 14.362 64.2808 14.3415C64.2732 14.3208 64.2562 14.304 64.2431 14.304C64.2299 14.304 64.2191 14.3208 64.2191 14.3415ZM1.73565 14.417C1.73565 14.433 1.75385 14.4532 1.77592 14.4621C1.79816 14.471 1.8162 14.4957 1.8162 14.5173C1.8162 14.5388 1.83441 14.5563 1.85648 14.5563C1.87871 14.5563 1.89675 14.5753 1.89675 14.5983C1.89675 14.6215 1.91093 14.6404 1.92833 14.6404C1.94557 14.6404 1.98182 14.6612 2.00889 14.6868C2.05464 14.73 2.05786 14.73 2.05786 14.6851C2.05786 14.6582 2.0453 14.6452 2.02919 14.6557C2.0134 14.6658 1.9939 14.6476 1.98585 14.6151C1.97779 14.5828 1.95443 14.5563 1.93397 14.5563C1.91351 14.5563 1.89675 14.5374 1.89675 14.5142C1.89675 14.4912 1.87871 14.4722 1.85648 14.4722C1.83441 14.4722 1.8162 14.4533 1.8162 14.4301C1.8162 14.4071 1.79816 14.3881 1.77592 14.3881C1.75385 14.3881 1.73565 14.4012 1.73565 14.417ZM30.727 14.4061C30.7056 14.4284 30.7299 14.4722 30.7637 14.4722C30.7776 14.4722 30.789 14.4533 30.789 14.4301C30.789 14.3869 30.7573 14.3745 30.727 14.4061ZM33.8567 14.4232C33.863 14.4424 33.8841 14.4582 33.9037 14.4582C33.9234 14.4582 33.9445 14.4424 33.9508 14.4232C33.9574 14.4024 33.9384 14.3881 33.9037 14.3881C33.8691 14.3881 33.8501 14.4024 33.8567 14.4232ZM36.8216 14.4067C36.7916 14.4382 36.8014 14.4629 36.844 14.4629C36.8661 14.4629 36.8843 14.4461 36.8843 14.4256C36.8843 14.3857 36.8512 14.3758 36.8216 14.4067ZM55.0762 14.4443C55.0659 14.4781 55.0694 14.5186 55.0842 14.5339C55.1021 14.5526 55.1173 14.5415 55.1298 14.5003C55.1401 14.4663 55.1364 14.4259 55.1218 14.4104C55.1039 14.3918 55.0886 14.403 55.0762 14.4443ZM55.7876 14.4301C55.7876 14.4533 55.8058 14.4722 55.8279 14.4722C55.8501 14.4722 55.8682 14.4533 55.8682 14.4301C55.8682 14.4071 55.8501 14.3881 55.8279 14.3881C55.8058 14.3881 55.7876 14.4071 55.7876 14.4301ZM61.0775 14.4301C61.0958 14.4533 61.1215 14.4722 61.1343 14.4722C61.1474 14.4722 61.158 14.4533 61.158 14.4301C61.158 14.4061 61.1337 14.3881 61.101 14.3881C61.0533 14.3881 61.0494 14.395 61.0775 14.4301ZM33.689 14.5117C33.689 14.5373 33.7077 14.546 33.7426 14.5364C33.7721 14.5284 33.7963 14.5107 33.7963 14.4971C33.7963 14.4834 33.7721 14.4722 33.7426 14.4722C33.7132 14.4722 33.689 14.49 33.689 14.5117ZM38.9787 14.5213C38.9787 14.5432 38.993 14.5559 39.0106 14.5499C39.0592 14.5329 39.0662 14.4816 39.0198 14.4816C38.9972 14.4816 38.9787 14.4994 38.9787 14.5213ZM49.3702 14.4972C49.3702 14.511 49.3863 14.5287 49.4059 14.5366C49.4256 14.5445 49.4417 14.5332 49.4417 14.5115C49.4417 14.49 49.4256 14.4722 49.4059 14.4722C49.3863 14.4722 49.3702 14.4834 49.3702 14.4972ZM61.2386 14.5097C61.2386 14.5302 61.2566 14.547 61.2789 14.547C61.3009 14.547 61.3191 14.5302 61.3191 14.5097C61.3191 14.489 61.3009 14.4722 61.2789 14.4722C61.2566 14.4722 61.2386 14.489 61.2386 14.5097ZM63.8969 14.5142C63.8969 14.5374 63.913 14.5563 63.9326 14.5563C63.9523 14.5563 63.9684 14.5374 63.9684 14.5142C63.9684 14.4912 63.9523 14.4722 63.9326 14.4722C63.913 14.4722 63.8969 14.4912 63.8969 14.5142ZM20.2364 14.5983C20.2364 14.6215 20.2182 14.6404 20.1961 14.6404C20.1739 14.6404 20.1559 14.6594 20.1559 14.6824C20.1559 14.7056 20.1376 14.7245 20.1156 14.7245C20.0933 14.7245 20.0753 14.7435 20.0753 14.7665C20.0753 14.7897 20.0877 14.8086 20.103 14.8086C20.1182 14.8086 20.1376 14.7897 20.146 14.7665C20.1546 14.7435 20.1784 14.7245 20.1989 14.7245C20.2195 14.7245 20.2364 14.7056 20.2364 14.6824C20.2364 14.6594 20.2545 14.6404 20.2767 14.6404C20.2988 14.6404 20.317 14.6215 20.317 14.5983C20.317 14.5753 20.2988 14.5563 20.2767 14.5563C20.2545 14.5563 20.2364 14.5753 20.2364 14.5983ZM31.1112 14.5975C31.1112 14.6225 31.1269 14.6323 31.1515 14.6225C31.1736 14.6136 31.1918 14.5951 31.1918 14.5813C31.1918 14.5675 31.1736 14.5563 31.1515 14.5563C31.1293 14.5563 31.1112 14.5748 31.1112 14.5975ZM33.4473 14.6005C33.4473 14.6266 33.4655 14.6409 33.4921 14.6355C33.5595 14.6219 33.5686 14.5563 33.5032 14.5563C33.4702 14.5563 33.4473 14.5744 33.4473 14.6005ZM37.0454 14.5669C37.0454 14.5728 37.0634 14.5933 37.0856 14.6125C37.1187 14.641 37.1259 14.639 37.1259 14.6019C37.1259 14.5768 37.1077 14.5563 37.0856 14.5563C37.0634 14.5563 37.0454 14.5612 37.0454 14.5669ZM38.781 14.5983C38.7895 14.6215 38.8058 14.6404 38.8171 14.6404C38.8285 14.6404 38.8528 14.6215 38.8712 14.5983C38.8996 14.5628 38.8939 14.5563 38.8351 14.5563C38.7844 14.5563 38.7697 14.5677 38.781 14.5983ZM49.2142 14.5864C49.2196 14.603 49.2353 14.6167 49.2494 14.6167C49.2634 14.6167 49.2792 14.603 49.2845 14.5864C49.2898 14.5699 49.274 14.5563 49.2494 14.5563C49.2247 14.5563 49.2089 14.5699 49.2142 14.5864ZM56.1277 14.5749C56.0939 14.6104 56.11 14.6404 56.1627 14.6404C56.1988 14.6404 56.2107 14.6269 56.2002 14.5983C56.1836 14.5534 56.1567 14.5447 56.1277 14.5749ZM57.7209 14.6007C57.7209 14.6503 57.7788 14.6415 57.7954 14.5896C57.8012 14.5712 57.7868 14.5563 57.7635 14.5563C57.7401 14.5563 57.7209 14.5763 57.7209 14.6007ZM61.4864 14.5896C61.503 14.6415 61.5608 14.6503 61.5608 14.6007C61.5608 14.5763 61.5416 14.5563 61.5183 14.5563C61.4949 14.5563 61.4806 14.5712 61.4864 14.5896ZM63.6552 14.6007C63.6552 14.6503 63.7129 14.6415 63.7295 14.5896C63.7354 14.5712 63.7211 14.5563 63.6977 14.5563C63.6742 14.5563 63.6552 14.5763 63.6552 14.6007ZM31.4335 14.6824C31.4335 14.7105 31.4602 14.7245 31.514 14.7245C31.5677 14.7245 31.5946 14.7105 31.5946 14.6824C31.5946 14.6545 31.5677 14.6404 31.514 14.6404C31.4602 14.6404 31.4335 14.6545 31.4335 14.6824ZM33.0713 14.6824C33.0713 14.7117 33.0995 14.7245 33.1638 14.7245C33.2641 14.7245 33.3115 14.6846 33.2435 14.6574C33.1641 14.6256 33.0713 14.639 33.0713 14.6824ZM37.287 14.6824C37.287 14.7082 37.312 14.7245 37.3513 14.7245C37.3866 14.7245 37.4225 14.7056 37.4311 14.6824C37.4427 14.651 37.4265 14.6404 37.3668 14.6404C37.3138 14.6404 37.287 14.6545 37.287 14.6824ZM38.5392 14.6819C38.5484 14.7068 38.573 14.7235 38.5941 14.7189C38.656 14.7053 38.6482 14.6552 38.5827 14.6456C38.5366 14.6387 38.5264 14.6471 38.5392 14.6819ZM47.6876 14.676C47.6876 14.6955 47.7212 14.7129 47.7623 14.7147C47.826 14.7174 47.8316 14.712 47.8 14.6792C47.7536 14.6306 47.6876 14.6288 47.6876 14.676ZM48.9138 14.6854C48.9138 14.715 48.9283 14.7246 48.9561 14.7135C48.9795 14.7041 49.0098 14.6965 49.0233 14.6965C49.0368 14.6965 49.048 14.6839 49.048 14.6685C49.048 14.653 49.0178 14.6404 48.9808 14.6404C48.9371 14.6404 48.9138 14.6562 48.9138 14.6854ZM56.3702 14.6584C56.3377 14.6923 56.3818 14.7245 56.4606 14.7245C56.5128 14.7245 56.5395 14.7103 56.5395 14.6824C56.5395 14.64 56.406 14.621 56.3702 14.6584ZM57.4121 14.6686C57.3939 14.6994 57.4387 14.7211 57.5129 14.7176C57.5387 14.7162 57.5598 14.6984 57.5598 14.6779C57.5598 14.6343 57.4369 14.6267 57.4121 14.6686ZM61.7404 14.6584C61.7063 14.6942 61.754 14.7245 61.8444 14.7245C61.9085 14.7245 61.9367 14.7117 61.9367 14.6824C61.9367 14.6399 61.777 14.6202 61.7404 14.6584ZM63.2524 14.6824C63.2524 14.7102 63.2789 14.7245 63.3301 14.7245C63.3744 14.7245 63.4144 14.7065 63.4232 14.6824C63.4351 14.6501 63.4173 14.6404 63.3456 14.6404C63.2806 14.6404 63.2524 14.6532 63.2524 14.6824ZM32.0426 14.7632C32.0312 14.7941 32.0802 14.8027 32.2914 14.8065C32.5069 14.8104 32.5574 14.8034 32.5704 14.7679C32.5841 14.7305 32.5495 14.7245 32.3215 14.7245C32.1214 14.7245 32.0533 14.7339 32.0426 14.7632ZM37.6919 14.7465C37.6888 14.799 37.7646 14.8205 37.811 14.7803C37.8406 14.7546 37.8509 14.7542 37.8509 14.7786C37.8509 14.8262 38.1398 14.8104 38.1577 14.7618C38.1685 14.7327 38.1243 14.7245 37.956 14.7245C37.819 14.7245 37.7464 14.7347 37.757 14.7526C37.766 14.768 37.7617 14.7806 37.7473 14.7806C37.733 14.7806 37.7151 14.7648 37.7075 14.7455C37.6971 14.7181 37.6935 14.7182 37.6919 14.7465ZM48.1145 14.7712C48.1514 14.8097 48.1664 14.8116 48.2009 14.7818C48.231 14.7556 48.2424 14.7547 48.2424 14.7786C48.2424 14.8213 48.531 14.8114 48.5469 14.7682C48.563 14.7241 48.2495 14.7115 48.2004 14.7542C48.173 14.778 48.1619 14.7785 48.1619 14.7559C48.1619 14.7388 48.1411 14.7245 48.1158 14.7245C48.0729 14.7245 48.0728 14.7277 48.1145 14.7712ZM62.4603 14.7526C62.4511 14.768 62.4474 14.7815 62.4519 14.7827C62.5426 14.8054 62.5959 14.8028 62.6301 14.7739C62.6629 14.7462 62.6676 14.746 62.6518 14.7736C62.6233 14.823 62.675 14.8173 62.7153 14.7665C62.7443 14.7302 62.7306 14.7245 62.6128 14.7245C62.5381 14.7245 62.4695 14.7371 62.4603 14.7526ZM2.21897 14.8506C2.21897 14.8738 2.23718 14.8927 2.25925 14.8927C2.28148 14.8927 2.29953 14.8738 2.29953 14.8506C2.29953 14.8276 2.28148 14.8086 2.25925 14.8086C2.23718 14.8086 2.21897 14.8276 2.21897 14.8506ZM19.8336 14.9371C19.8336 14.9615 19.848 14.9764 19.8655 14.9704C19.9153 14.953 19.9235 14.8927 19.8762 14.8927C19.8526 14.8927 19.8336 14.9127 19.8336 14.9371ZM2.46064 15.0188C2.46064 15.0422 2.48448 15.0609 2.51445 15.0609C2.54425 15.0609 2.56809 15.0422 2.56809 15.0188C2.56809 14.9954 2.54425 14.9768 2.51445 14.9768C2.48448 14.9768 2.46064 14.9954 2.46064 15.0188ZM19.6456 15.0188C19.6456 15.0422 19.6695 15.0609 19.6993 15.0609C19.7292 15.0609 19.7531 15.0422 19.7531 15.0188C19.7531 14.9954 19.7292 14.9768 19.6993 14.9768C19.6695 14.9768 19.6456 14.9954 19.6456 15.0188ZM2.62851 15.096C2.64543 15.149 2.7292 15.1566 2.7292 15.1051C2.7292 15.079 2.70633 15.0609 2.6733 15.0609C2.64043 15.0609 2.6219 15.0753 2.62851 15.096ZM19.4845 15.1051C19.4845 15.1312 19.5027 15.1455 19.5293 15.1401C19.5966 15.1265 19.6058 15.0609 19.5404 15.0609C19.5074 15.0609 19.4845 15.079 19.4845 15.1051ZM2.86341 15.187C2.86341 15.2186 2.88226 15.2302 2.92382 15.224C2.95717 15.2191 2.98424 15.2025 2.98424 15.187C2.98424 15.1717 2.95717 15.155 2.92382 15.15C2.88226 15.1439 2.86341 15.1554 2.86341 15.187ZM19.2428 15.1892C19.2428 15.2153 19.2611 15.2296 19.2876 15.2242C19.355 15.2106 19.3642 15.145 19.2988 15.145C19.2657 15.145 19.2428 15.1631 19.2428 15.1892ZM3.12231 15.2711C3.13181 15.2972 3.17257 15.3132 3.2288 15.3132C3.29196 15.3132 3.31999 15.3002 3.31999 15.2711C3.31999 15.2408 3.29018 15.2291 3.21334 15.2291C3.12972 15.2291 3.11006 15.2381 3.12231 15.2711ZM18.8937 15.2711C18.8937 15.3005 18.9221 15.3132 18.9878 15.3132C19.0534 15.3132 19.0817 15.3005 19.0817 15.2711C19.0817 15.2418 19.0534 15.2291 18.9878 15.2291C18.9221 15.2291 18.8937 15.2418 18.8937 15.2711ZM3.595 15.3483C3.6124 15.4035 3.85696 15.4114 3.85696 15.3567C3.85696 15.3231 3.82603 15.3132 3.72051 15.3132C3.62336 15.3132 3.58711 15.3232 3.595 15.3483ZM18.3568 15.3552C18.3568 15.3868 18.3891 15.3973 18.4877 15.3973C18.5714 15.3973 18.6308 15.3821 18.6521 15.3552C18.6812 15.3187 18.6643 15.3132 18.5211 15.3132C18.3928 15.3132 18.3568 15.3224 18.3568 15.3552ZM4.25974 15.4393C4.25974 15.4733 4.30146 15.4813 4.47369 15.4813C4.65284 15.4813 4.68522 15.4746 4.67217 15.4393C4.66041 15.4072 4.60999 15.3973 4.45822 15.3973C4.29969 15.3973 4.25974 15.4058 4.25974 15.4393ZM17.5243 15.4393C17.5243 15.4731 17.5657 15.4813 17.7358 15.4813C17.8911 15.4813 17.9562 15.4702 17.9809 15.4393C18.0102 15.4025 17.9839 15.3973 17.7693 15.3973C17.5694 15.3973 17.5243 15.405 17.5243 15.4393ZM5.23299 15.5165C5.2512 15.5737 5.89773 15.5813 5.89773 15.5242C5.89773 15.4881 5.84521 15.4813 5.55972 15.4813C5.30147 15.4813 5.22462 15.4896 5.23299 15.5165ZM16.316 15.5242C16.316 15.5813 16.9625 15.5737 16.9807 15.5165C16.9891 15.4896 16.9123 15.4813 16.654 15.4813C16.3685 15.4813 16.316 15.4881 16.316 15.5242ZM6.78383 15.5935C6.78383 15.6114 7.01196 15.6216 7.41473 15.6216C7.8175 15.6216 8.04579 15.6114 8.04579 15.5935C8.04579 15.5757 7.8175 15.5654 7.41473 15.5654C7.01196 15.5654 6.78383 15.5757 6.78383 15.5935ZM14.1948 15.5935C14.1948 15.6114 14.4186 15.6216 14.8124 15.6216C15.2061 15.6216 15.4299 15.6114 15.4299 15.5935C15.4299 15.5757 15.2061 15.5654 14.8124 15.5654C14.4186 15.5654 14.1948 15.5757 14.1948 15.5935Z" fill="#FCFAFA"/>
<path fill-rule="evenodd" clip-rule="evenodd" d="M9.71057 0.568128C9.71057 0.586461 9.1781 0.596048 8.16666 0.596048C6.81222 0.596048 6.62276 0.601262 6.62276 0.638097C6.62276 0.674595 6.52126 0.680146 5.87086 0.680146C5.22047 0.680146 5.11897 0.685865 5.11897 0.722195C5.11897 0.75802 5.04889 0.764244 4.64918 0.764244C4.2493 0.764244 4.17922 0.770635 4.17922 0.806293C4.17922 0.841445 4.12557 0.848341 3.857 0.848341C3.58167 0.848341 3.53479 0.854901 3.53479 0.892577C3.53479 0.927057 3.50724 0.935635 3.40719 0.932103C3.17568 0.923861 3.13202 0.930589 3.13202 0.974488C3.13202 1.00729 3.09625 1.01654 2.97091 1.01654C2.84556 1.01654 2.8098 1.02596 2.8098 1.05859C2.8098 1.08802 2.78144 1.10063 2.71587 1.10063C2.65014 1.10063 2.62178 1.11342 2.62178 1.14268C2.62178 1.17077 2.59504 1.18473 2.54123 1.18473C2.48758 1.18473 2.46068 1.19886 2.46068 1.22678C2.46068 1.25487 2.43393 1.26883 2.38012 1.26883C2.32647 1.26883 2.29957 1.28296 2.29957 1.31088C2.29957 1.33409 2.28152 1.35293 2.25929 1.35293C2.23722 1.35293 2.21901 1.37193 2.21901 1.39498C2.21901 1.42307 2.19227 1.43703 2.13846 1.43703C2.08481 1.43703 2.0579 1.45115 2.0579 1.47907C2.0579 1.50229 2.03986 1.52112 2.01763 1.52112C1.99555 1.52112 1.97735 1.54013 1.97735 1.56317C1.97735 1.58638 1.9593 1.60522 1.93707 1.60522C1.915 1.60522 1.89679 1.62423 1.89679 1.64727C1.89679 1.67048 1.87875 1.68932 1.85652 1.68932C1.83445 1.68932 1.81624 1.70832 1.81624 1.73137C1.81624 1.75458 1.7982 1.77342 1.77596 1.77342C1.75389 1.77342 1.73569 1.79242 1.73569 1.81547C1.73569 1.83868 1.71764 1.85751 1.69541 1.85751C1.66866 1.85751 1.65513 1.8856 1.65513 1.94161C1.65513 1.99779 1.64176 2.02571 1.61485 2.02571C1.59278 2.02571 1.57458 2.04472 1.57458 2.06776C1.57458 2.09097 1.55653 2.10981 1.5343 2.10981C1.50756 2.10981 1.49402 2.1379 1.49402 2.19391C1.49402 2.25008 1.48065 2.278 1.45375 2.278C1.427 2.278 1.41347 2.30609 1.41347 2.3621C1.41347 2.41828 1.4001 2.4462 1.37319 2.4462C1.34516 2.4462 1.33291 2.4758 1.33291 2.54442C1.33291 2.61288 1.32083 2.64248 1.29264 2.64248C1.26138 2.64248 1.25236 2.67982 1.25236 2.81068C1.25236 2.94153 1.2435 2.97887 1.21208 2.97887C1.18051 2.97887 1.17181 3.01773 1.17181 3.16103C1.17181 3.30433 1.16327 3.34335 1.13153 3.34335C1.09898 3.34335 1.09125 3.38843 1.09125 3.58152C1.09125 3.77461 1.08368 3.81985 1.05097 3.81985C1.01746 3.81985 1.0107 3.87586 1.0107 4.15624C1.0107 4.43662 1.00409 4.49263 0.970419 4.49263C0.936264 4.49263 0.930142 4.5658 0.930142 4.98326C0.930142 5.40055 0.924181 5.47372 0.889865 5.47372C0.856516 5.47372 0.849588 5.52804 0.849588 5.79379C0.849588 6.02355 0.840244 6.11791 0.816077 6.128C0.789172 6.13927 0.789172 6.14263 0.816077 6.14431C0.858771 6.14717 0.865538 7.26786 0.822844 7.26786C0.805444 7.26786 0.795939 7.56691 0.795939 8.10884C0.795939 8.65076 0.805444 8.94981 0.822844 8.94981C0.840083 8.94981 0.849588 9.26283 0.849588 9.83284C0.849588 10.5991 0.854905 10.7159 0.889865 10.7159C0.924181 10.7159 0.930142 10.7905 0.930142 11.2205C0.930142 11.6504 0.936103 11.725 0.970419 11.725C1.00409 11.725 1.0107 11.781 1.0107 12.0614C1.0107 12.3418 1.01746 12.3978 1.05097 12.3978C1.08352 12.3978 1.09125 12.4414 1.09125 12.622C1.09125 12.8027 1.09915 12.8464 1.13153 12.8464C1.16343 12.8464 1.17181 12.8864 1.17181 13.0397C1.17181 13.1855 1.18179 13.2368 1.21208 13.2489C1.2406 13.2603 1.25236 13.3066 1.25236 13.4062C1.25236 13.5128 1.26219 13.5471 1.29264 13.5471C1.31954 13.5471 1.33291 13.5752 1.33291 13.6312C1.33291 13.6874 1.34645 13.7153 1.37319 13.7153C1.4001 13.7153 1.41347 13.7434 1.41347 13.7994C1.41347 13.8556 1.427 13.8835 1.45375 13.8835C1.48065 13.8835 1.49402 13.9116 1.49402 13.9676C1.49402 14.0238 1.50756 14.0517 1.5343 14.0517C1.56121 14.0517 1.57458 14.0798 1.57458 14.1358C1.57458 14.192 1.58811 14.2199 1.61485 14.2199C1.63709 14.2199 1.65513 14.2389 1.65513 14.2619C1.65513 14.2851 1.67334 14.304 1.69541 14.304C1.71764 14.304 1.73569 14.323 1.73569 14.346C1.73569 14.3692 1.75389 14.3881 1.77596 14.3881C1.7982 14.3881 1.81624 14.4071 1.81624 14.4301C1.81624 14.4533 1.83445 14.4722 1.85652 14.4722C1.87875 14.4722 1.89679 14.4912 1.89679 14.5142C1.89679 14.5374 1.915 14.5563 1.93707 14.5563C1.9593 14.5563 1.97896 14.5753 1.98073 14.5983C1.98718 14.6792 1.99104 14.692 2.01521 14.7152C2.02939 14.7287 2.03196 14.7245 2.02149 14.7055C2.0115 14.6873 2.01569 14.6644 2.03068 14.6547C2.04566 14.6451 2.0579 14.6569 2.0579 14.6807C2.0579 14.7048 2.07611 14.7245 2.09818 14.7245C2.12041 14.7245 2.13846 14.7435 2.13846 14.7665C2.13846 14.7946 2.16536 14.8086 2.21901 14.8086C2.27282 14.8086 2.29957 14.8227 2.29957 14.8506C2.29957 14.8738 2.31777 14.8927 2.33984 14.8927C2.36208 14.8927 2.38012 14.9117 2.38012 14.9347C2.38012 14.9641 2.40848 14.9768 2.47421 14.9768C2.53978 14.9768 2.56813 14.9895 2.56813 15.0188C2.56813 15.0469 2.59504 15.0609 2.64869 15.0609C2.70105 15.0609 2.72924 15.0752 2.72924 15.1014C2.72924 15.1298 2.76727 15.1445 2.85684 15.1505C2.94126 15.1562 2.98202 15.1709 2.97767 15.1941C2.97284 15.2193 3.02021 15.2291 3.14539 15.2291C3.28265 15.2291 3.32003 15.2381 3.32003 15.2711C3.32003 15.3058 3.36772 15.3132 3.58844 15.3132C3.80932 15.3132 3.857 15.3207 3.857 15.3552C3.857 15.3907 3.91935 15.3973 4.25688 15.3973C4.58763 15.3973 4.65949 15.4047 4.67221 15.4393C4.68543 15.475 4.77967 15.4813 5.29264 15.4813C5.81254 15.4813 5.89777 15.4874 5.89777 15.5234C5.89777 15.5601 6.03503 15.5654 6.97172 15.5654C7.66997 15.5654 8.04583 15.5754 8.04583 15.5935C8.04583 15.612 9.08853 15.6216 11.1203 15.6216C13.152 15.6216 14.1949 15.612 14.1949 15.5935C14.1949 15.5754 14.5662 15.5654 15.2554 15.5654C16.1804 15.5654 16.316 15.5601 16.316 15.5234C16.316 15.4874 16.4011 15.4813 16.9202 15.4813C17.4394 15.4813 17.5243 15.4755 17.5243 15.4393C17.5243 15.4038 17.5885 15.3973 17.9406 15.3973C18.2927 15.3973 18.3568 15.3909 18.3568 15.3552C18.3568 15.3207 18.4045 15.3132 18.6254 15.3132C18.8519 15.3132 18.8938 15.3063 18.8938 15.2691C18.8938 15.2358 18.9187 15.226 18.9945 15.2297C19.1905 15.2391 19.2429 15.2302 19.2429 15.187C19.2429 15.1559 19.2741 15.145 19.3637 15.145C19.4533 15.145 19.4846 15.1342 19.4846 15.1029C19.4846 15.075 19.5115 15.0609 19.5651 15.0609C19.6188 15.0609 19.6457 15.0469 19.6457 15.0188C19.6457 14.9895 19.674 14.9768 19.7396 14.9768C19.8053 14.9768 19.8337 14.9641 19.8337 14.9347C19.8337 14.9068 19.8604 14.8927 19.9142 14.8927C19.9679 14.8927 19.9948 14.8787 19.9948 14.8506C19.9948 14.8276 20.0128 14.8086 20.0351 14.8086C20.0571 14.8086 20.0753 14.7897 20.0753 14.7665C20.0753 14.7435 20.0934 14.7245 20.1156 14.7245C20.1377 14.7245 20.1559 14.7056 20.1559 14.6824C20.1559 14.6594 20.1739 14.6404 20.1962 14.6404C20.2182 14.6404 20.2364 14.6215 20.2364 14.5983C20.2364 14.5704 20.2632 14.5563 20.317 14.5563C20.3885 14.5563 20.3976 14.547 20.3976 14.4722C20.3976 14.4162 20.4109 14.3881 20.4378 14.3881C20.4599 14.3881 20.4781 14.3692 20.4781 14.346C20.4781 14.323 20.4962 14.304 20.5184 14.304C20.5405 14.304 20.5587 14.2851 20.5587 14.2619C20.5587 14.2389 20.5767 14.2199 20.5989 14.2199C20.621 14.2199 20.6392 14.201 20.6392 14.1778C20.6392 14.1548 20.6573 14.1358 20.6795 14.1358C20.7062 14.1358 20.7198 14.1079 20.7198 14.0517C20.7198 13.9957 20.7331 13.9676 20.76 13.9676C20.7868 13.9676 20.8003 13.9397 20.8003 13.8835C20.8003 13.8275 20.8137 13.7994 20.8406 13.7994C20.8686 13.7994 20.8809 13.7698 20.8809 13.7013C20.8809 13.6329 20.893 13.6033 20.9212 13.6033C20.9516 13.6033 20.9614 13.5686 20.9614 13.4601C20.9614 13.3443 20.9692 13.32 21.0017 13.333C21.0349 13.3463 21.042 13.3175 21.042 13.1678C21.042 13.0254 21.0505 12.9865 21.0823 12.9865C21.1145 12.9865 21.1225 12.9445 21.1225 12.7763C21.1225 12.6081 21.1306 12.566 21.1628 12.566C21.1962 12.566 21.2031 12.5115 21.2031 12.2436C21.2031 11.9758 21.2099 11.9213 21.2434 11.9213C21.2774 11.9213 21.2837 11.8544 21.2837 11.4867C21.2837 11.1192 21.2898 11.0523 21.3239 11.0523C21.3586 11.0523 21.3642 10.9587 21.3642 10.3795C21.3642 9.80021 21.3697 9.70669 21.4045 9.70669C21.4398 9.70669 21.4448 9.50889 21.4448 8.09488C21.4448 6.68069 21.4398 6.48289 21.4045 6.48289C21.3697 6.48289 21.3642 6.38786 21.3642 5.79531C21.3642 5.20982 21.3581 5.1052 21.3239 5.09141C21.2906 5.07812 21.2837 5.00311 21.2837 4.6578C21.2837 4.30543 21.2774 4.24034 21.2434 4.24034C21.21 4.24034 21.2031 4.18887 21.2031 3.946C21.2031 3.6969 21.1965 3.65166 21.1607 3.65166C21.1277 3.65166 21.1195 3.62289 21.1229 3.51844C21.1308 3.27675 21.1243 3.23117 21.0823 3.23117C21.05 3.23117 21.042 3.18912 21.042 3.02092C21.042 2.85273 21.0339 2.81068 21.0017 2.81068C20.9735 2.81068 20.9614 2.78108 20.9614 2.71262C20.9614 2.644 20.9492 2.61439 20.9212 2.61439C20.8862 2.61439 20.8614 2.46773 20.8773 2.35621C20.8789 2.34511 20.8612 2.34377 20.8382 2.35302C20.8116 2.36361 20.7982 2.35554 20.8015 2.33098C20.8131 2.24369 20.7981 2.19391 20.76 2.19391C20.7378 2.19391 20.7198 2.17507 20.7198 2.15186C20.7198 2.12881 20.7016 2.10981 20.6795 2.10981C20.6526 2.10981 20.6392 2.08189 20.6392 2.02571C20.6392 1.9697 20.6257 1.94161 20.5989 1.94161C20.5767 1.94161 20.5587 1.92277 20.5587 1.89956C20.5587 1.87652 20.5405 1.85751 20.5184 1.85751C20.4962 1.85751 20.4781 1.83868 20.4781 1.81547C20.4781 1.79242 20.4599 1.77342 20.4378 1.77342C20.4156 1.77342 20.3976 1.74869 20.3976 1.71825C20.3976 1.68074 20.3847 1.66829 20.3573 1.67923C20.3294 1.69033 20.317 1.67738 20.317 1.63718C20.317 1.59698 20.3044 1.58403 20.2767 1.59513C20.2511 1.60539 20.2364 1.59479 20.2364 1.5662C20.2364 1.54147 20.2182 1.52112 20.1962 1.52112C20.1739 1.52112 20.1559 1.50229 20.1559 1.47907C20.1559 1.45603 20.139 1.43703 20.1184 1.43703C20.0979 1.43703 20.074 1.41819 20.0655 1.39498C20.0571 1.37193 20.0196 1.35293 19.9822 1.35293C19.9397 1.35293 19.9142 1.33729 19.9142 1.31088C19.9142 1.28296 19.8873 1.26883 19.8337 1.26883C19.7799 1.26883 19.7531 1.25487 19.7531 1.22678C19.7531 1.19752 19.7248 1.18473 19.659 1.18473C19.5935 1.18473 19.5651 1.17212 19.5651 1.14268C19.5651 1.11476 19.5382 1.10063 19.4846 1.10063C19.4309 1.10063 19.404 1.08667 19.404 1.05859C19.404 1.0268 19.3711 1.01654 19.2698 1.01654C19.1683 1.01654 19.1354 1.00628 19.1354 0.974488C19.1354 0.940849 19.0952 0.932439 18.934 0.932439C18.7729 0.932439 18.7327 0.924029 18.7327 0.89039C18.7327 0.855237 18.6772 0.848341 18.3942 0.848341C18.1043 0.848341 18.0579 0.842286 18.0711 0.806293C18.0845 0.769962 18.022 0.764244 17.6041 0.764244C17.1931 0.764244 17.1216 0.75802 17.1216 0.722195C17.1216 0.685865 17.0217 0.680146 16.3832 0.680146C15.7447 0.680146 15.6448 0.674427 15.6448 0.638097C15.6448 0.601262 15.4523 0.596048 14.074 0.596048C13.0447 0.596048 12.5032 0.586461 12.5032 0.568128C12.5032 0.549794 12.0199 0.540039 11.1069 0.540039C10.1939 0.540039 9.71057 0.549794 9.71057 0.568128ZM9.35645 5.0534C9.47922 5.13043 9.58474 5.1935 9.59103 5.1935C9.59747 5.1935 9.72475 5.26919 9.87393 5.3617C10.0231 5.45421 10.1494 5.52989 10.1547 5.52989C10.1599 5.52989 10.3474 5.64343 10.5714 5.78219C10.7953 5.92095 10.9827 6.03448 10.988 6.03448C10.9932 6.03448 11.1615 6.1354 11.3619 6.25869C11.5625 6.38197 11.731 6.48289 11.7363 6.48289C11.7418 6.48289 11.8984 6.57758 12.0843 6.69313C12.2703 6.80885 12.4272 6.90338 12.433 6.90338C12.4388 6.90338 12.6268 7.01691 12.8507 7.15567C13.0747 7.29443 13.262 7.40797 13.2672 7.40797C13.2722 7.40797 13.4294 7.50266 13.6167 7.61821C13.8037 7.73393 13.9611 7.82845 13.9664 7.82845C13.9717 7.82845 14.0526 7.87538 14.1459 7.93273C14.3073 8.03197 14.3545 8.07251 14.3555 8.1127C14.356 8.13003 14.1296 8.27585 13.8591 8.43261C13.7853 8.4755 13.606 8.58416 13.4605 8.67414C13.3152 8.76413 13.1923 8.83763 13.1873 8.83763C13.1821 8.83763 13.0172 8.93619 12.8205 9.05662C12.6239 9.17704 12.2877 9.38056 12.0736 9.50889C11.8594 9.63723 11.5118 9.84781 11.301 9.97682C11.0905 10.1058 10.9136 10.2113 10.9079 10.2113C10.9025 10.2113 10.7148 10.3248 10.4908 10.4636C10.2669 10.6023 10.0784 10.7159 10.0721 10.7159C10.0658 10.7159 9.98494 10.7641 9.8923 10.823C9.79982 10.8819 9.63952 10.9784 9.53609 11.0376C9.43266 11.0967 9.29426 11.1801 9.22837 11.2228C9.16248 11.2655 9.09916 11.2945 9.0874 11.2869C9.06178 11.2704 9.05856 4.95853 9.08402 4.93179C9.11269 4.90202 9.12188 4.90606 9.35645 5.0534Z" fill="#FC0404"/>
</svg>
