<svg width="220" height="234" viewBox="0 0 220 234" fill="none" xmlns="http://www.w3.org/2000/svg">
<mask id="mask0_78_5" style="mask-type:alpha" maskUnits="userSpaceOnUse" x="0" y="0" width="220" height="234">
<rect width="220" height="234" fill="#D9D9D9" fill-opacity="0.87"/>
</mask>
<g mask="url(#mask0_78_5)">
<path d="M-71.8377 -45.4459C-71.8377 -13.5627 -59.5077 40.1987 -106.068 98.3161C-151.546 155.082 -88.9805 -24.6709 -26.1454 -35.7967C47.3047 -48.802 -79.2788 252.331 -85.8058 191.047C-89.4574 156.761 16.7868 -23.2003 46.6718 6.68469C84.6893 44.7022 -14.9995 261.853 -38.2771 258.282C-79.3421 251.982 67.5281 2.19789 109.202 23.7108C158.895 49.3637 76.9868 220.554 38.9799 229.736C8.57433 237.082 121.978 71.1794 197.865 109.149" stroke="black" stroke-width="5.48455" stroke-linecap="round"/>
<path d="M203.003 95.8071C203.744 94.4808 205.772 95.1652 205.557 96.6694L205.163 99.4405C205.034 100.343 205.805 101.117 206.708 100.992L217.482 99.4981C218.935 99.2965 219.647 101.211 218.415 102.008L210.409 107.184C209.48 107.784 209.608 109.181 210.63 109.603L216.08 111.853C217.333 112.37 217.156 114.197 215.827 114.464L212.26 115.181C211.454 115.343 210.971 116.172 211.228 116.953L212.24 120.034C212.626 121.211 211.377 122.257 210.286 121.669L205.937 119.324C204.821 118.722 203.556 119.828 204.003 121.014L206.395 127.366C206.914 128.744 205.192 129.86 204.147 128.823L197.385 122.116C196.949 121.684 196.278 121.594 195.744 121.896L188.121 126.209C186.851 126.927 185.486 125.428 186.321 124.231L190.811 117.796C191.222 117.207 191.109 116.401 190.552 115.948L182.725 109.576C181.724 108.762 182.3 107.142 183.59 107.142H189.62C190.302 107.142 190.88 106.641 190.977 105.966L191.923 99.4106C192.127 97.9926 194.096 97.7987 194.573 99.1495L196.105 103.485C196.498 104.598 198.019 104.727 198.594 103.697L203.003 95.8071Z" fill="#CD4631"/>
</g>
</svg>
