<svg width="55" height="55" viewBox="0 0 55 55" fill="none" xmlns="http://www.w3.org/2000/svg">
<path d="M48.2854 17.9346C48.5732 18.2503 48.6103 18.7145 48.3875 19.0858C48.1833 19.4293 48.0069 19.7264 47.8026 20.0049C45.6859 22.9386 44.5255 24.4704 42.4366 27.4226C41.9075 28.1653 40.6263 30.4399 40.1343 31.2197C40.125 31.229 40.125 31.2383 40.1157 31.2475C39.6701 31.916 38.5746 31.8696 38.2218 31.1361C38.2218 31.1361 38.2218 31.1269 38.2125 31.1269C37.6926 29.985 37.2749 28.8059 36.7921 27.6454C35.4645 24.4426 33.6171 21.6667 30.5442 19.8471C29.4301 19.188 29.4115 18.7052 30.2749 17.749C30.5999 17.3962 30.9248 17.0341 31.2776 16.7185C34.6847 13.6827 37.0335 9.93206 38.7881 5.75437C38.8995 5.49443 39.1223 5.29019 39.3637 5.08594C39.6794 4.826 40.1343 4.86313 40.4128 5.16021C40.6449 5.40159 40.8584 5.66154 40.9884 5.94933C41.2762 6.61776 41.3504 7.36974 41.5268 8.08459C42.4738 11.9745 44.5812 15.0753 47.7841 17.4612C47.9605 17.5912 48.1183 17.7583 48.2854 17.9346ZM39.7536 8.61377C38.6489 10.4519 37.7205 12.3458 36.4579 13.9983C35.1675 15.6787 33.5521 17.1084 32.076 18.6588C35.8266 20.9054 37.999 24.4611 39.308 28.8245C41.2297 24.851 43.8849 21.6946 46.8 18.7423C42.1953 15.2331 41.0998 13.6456 39.7536 8.61377Z" fill="black"/>
<path d="M13.2764 49.9727C12.4316 47.5775 11.6981 45.1359 10.7698 42.7778C9.85997 40.494 8.50454 38.4609 6.55495 36.8919C5.8401 36.3163 5.85867 35.7964 6.44355 35.1466C9.72999 31.5723 12.2552 27.5246 14.0655 23.022C14.2605 22.5392 14.7804 21.7687 15.1424 21.7687C16.1265 21.5366 16.4793 23.4583 16.5164 23.6347C17.3427 28.1652 20.1464 31.4609 23.2936 34.5431C24.3148 35.5458 24.3983 35.8521 23.3957 36.8176C19.6172 40.4383 17.1106 44.8945 14.9567 49.5828C14.279 51.2167 13.3785 50.2605 13.2764 49.9727ZM7.68757 35.7871C9.69286 37.059 11.0204 38.7579 11.9859 40.6797C12.9236 42.5643 13.6106 44.5603 14.3904 46.4727C16.1915 42.4436 18.6238 38.7208 22.3188 35.8893C18.7445 33.0763 15.9223 29.8641 15.0589 25.2594C13.5085 29.3999 11.0483 32.8442 7.68757 35.7871Z" fill="#81ADC8"/>
<path d="M38.649 39.9838C36.5972 42.7411 35.3439 45.8882 34.1928 49.0911C34.1185 49.2954 33.8771 50.4558 32.9952 50.4466C32.7445 50.4466 32.3267 50.0474 32.1689 49.7317C31.4726 48.3113 31.0363 46.7238 30.1543 45.4426C29.1145 43.9201 27.6848 42.6668 26.478 41.2649C26.3016 41.0607 26.2366 40.5965 26.348 40.3458C26.5615 39.8817 26.9421 39.5103 27.2392 39.0833C28.7525 36.8552 30.2379 34.6085 31.7975 32.4175C32.1225 31.9626 32.7631 31.4149 33.1437 31.4149C34.0906 31.4056 34.2763 32.1483 34.4434 32.6775C35.2047 35.1098 36.5137 37.143 38.4169 38.8233C39.0946 39.4546 38.7325 39.8724 38.649 39.9838ZM28.2233 40.6244C30.4328 42.1933 31.9368 44.4585 32.8466 46.993C34.1928 44.5235 35.5667 42.0076 36.9779 39.4082C35.084 38.0992 33.7657 35.6576 33.1623 33.8565C31.5098 36.1217 29.8758 38.3591 28.2233 40.6244Z" fill="#CD4631"/>
</svg>
