<svg width="55" height="54" viewBox="0 0 55 54" fill="none" xmlns="http://www.w3.org/2000/svg">
<path d="M37.3306 15.9468C37.0985 18.2399 36.9314 20.1523 36.6993 22.0555C36.5693 23.0953 36.1422 23.9958 34.9725 24.2465C33.9977 24.4507 32.9858 23.9122 32.4009 22.7146C31.8346 21.5635 31.4261 20.3287 30.999 19.1125C29.7643 15.6219 27.8611 12.5211 25.5031 9.68954C24.7696 8.80758 24.0455 7.92563 23.2007 6.90442C23.015 7.52643 22.8665 8.02775 22.7179 8.52907C21.1397 13.9786 20.6012 19.5303 20.8426 25.1841C20.9169 27.013 20.7034 28.879 20.4434 30.6987C20.2763 31.8684 19.84 33.0567 18.4288 33.3167C17.4169 33.5024 16.4143 32.6668 15.8015 31.1443C15.3931 30.1231 15.1238 29.0369 14.7525 27.9971C14.5482 27.4122 14.2512 26.8645 13.9819 26.2517C10.5748 30.3923 13.1742 44.0487 17.714 46.0447C17.7326 42.3869 19.4129 39.3604 21.3996 36.501C24.2126 32.4533 25.7444 27.9785 26.255 23.1138C26.2922 22.7518 26.3664 22.3804 26.4314 22.0276C26.7471 20.3751 27.4248 20.1059 28.6595 21.3314C29.4579 22.1205 30.1635 23.0953 30.6277 24.1072C32.9301 29.0647 33.8863 34.2079 32.3266 39.6111C32.1502 40.2052 31.751 41.0408 32.0481 41.4678C32.568 42.1177 33.385 41.0036 33.5614 40.5487C34.0255 39.3511 34.3133 38.0978 34.6847 36.8631C34.9168 36.0925 35.056 35.2477 35.4738 34.5793C35.7987 34.0594 36.5043 33.4188 36.9871 33.4652C37.4884 33.5116 38.1847 34.2265 38.3518 34.7835C39.5772 38.9333 39.0016 42.7304 35.1767 45.9519C33.2086 47.6136 30.7855 48.1521 28.3068 48.477C25.5123 48.8391 22.7551 48.9505 19.9514 48.3099C18.6145 48.0036 17.222 47.7993 16.4143 47.5022C15.6066 47.2052 14.9196 46.6017 14.5947 46.1004C10.4634 39.7225 9.78567 33.001 12.6915 25.9547C13.2949 24.4971 14.4554 24.1908 15.4766 25.3976C16.2286 26.2889 16.6556 27.4865 17.1291 28.6005C17.454 29.3804 17.6304 30.2252 17.8533 31.0422C18.1318 32.0634 18.5402 32.2212 18.8188 32.0448C19.1623 31.9427 19.3665 30.7079 19.3294 29.4732C19.2644 27.4401 19.3015 25.3976 19.088 23.3831C18.466 17.4786 19.905 11.9455 22.0031 6.52378C22.523 5.16835 23.1171 5.00125 24.2312 5.94819C28.7988 9.81951 32.0945 14.5357 33.5892 20.403C33.8213 21.2942 33.8956 22.2969 35.0282 23.0024C35.1396 22.139 35.2324 21.4242 35.3345 20.7186C35.5945 18.9733 35.7616 17.2094 36.1515 15.5012C36.3929 14.4707 37.1077 14.2571 37.8597 14.9998C38.8438 15.9746 39.8093 17.0516 40.4499 18.2677C42.8358 22.8168 43.6528 27.7557 43.6342 32.8432C43.6157 36.8445 42.873 40.7251 41.0348 44.2994C40.4128 45.5155 39.3637 46.5182 38.4725 47.5858C38.0733 48.0686 37.1634 47.9107 37.5812 46.8338C37.6183 46.741 37.6648 46.6296 37.7298 46.5367C41.1833 41.9041 41.5268 36.4824 41.5732 31.0236C41.6104 26.6695 40.9791 22.399 38.9459 18.4627C38.5189 17.655 37.9711 16.9309 37.3306 15.9468ZM36.8292 34.9878C36.2815 36.8074 35.8544 38.3113 35.3624 39.806C34.9725 40.9851 34.3783 42.0527 33.2086 42.6376C31.8531 43.3246 30.5349 42.5633 30.4606 41.0408C30.4327 40.4187 30.4606 39.7782 30.5813 39.1747C31.5282 34.3286 31.0826 29.631 29.1887 25.0727C28.8638 24.2929 28.3903 23.578 27.9168 22.7239C27.7497 23.0024 27.629 24.0144 27.6105 24.4507C27.4898 27.7557 27.1184 31.0236 25.3824 33.9387C24.3426 35.6747 23.1728 37.3365 22.0402 39.0262C20.7869 40.9108 19.6729 42.8604 19.2644 45.1256C18.9859 46.676 19.1066 46.7503 20.592 47.1309C23.7391 47.9293 26.8214 47.4187 29.8943 46.806C33.3942 46.1097 35.5759 43.8073 36.8757 40.6323C37.5905 38.8962 37.3863 37.0952 36.8292 34.9878Z" fill="#CD4631"/>
</svg>
