<svg width="55" height="54" viewBox="0 0 55 54" fill="none" xmlns="http://www.w3.org/2000/svg">
<path d="M20.9184 20.3187C19.99 19.6503 19.3123 19.1583 18.6346 18.6755C15.9051 16.7167 13.1572 14.7671 10.4463 12.7803C9.79644 12.3069 9.18371 11.722 8.72881 11.0721C8.46886 10.6822 8.38531 9.98593 8.5617 9.57745C8.66382 9.33607 9.49936 9.2061 9.89856 9.34535C10.8734 9.67028 11.8203 10.1159 12.7115 10.6265C15.4874 12.2326 18.2354 13.8944 21.104 15.6026C21.364 13.8944 21.5868 12.1955 21.9024 10.5151C22.1438 9.21538 22.478 7.91566 22.8401 6.64378C23.0722 5.81753 23.5642 5.10268 24.5576 5.24194C25.5881 5.38119 25.9223 6.19816 25.9037 7.11725C25.8666 9.85596 25.7738 12.5854 25.7181 15.3241C25.6995 15.9739 25.7181 16.6238 25.7181 17.2737C25.8202 17.3665 26.6929 16.5867 27.1013 16.1875C30.592 12.7711 34.0827 9.3732 37.6105 5.99392C38.1026 5.52045 38.7246 5.12125 39.3559 4.8613C39.6901 4.72205 40.3214 4.82417 40.5442 5.06555C40.767 5.30692 40.8134 5.93822 40.6556 6.26315C40.3585 6.88516 39.9129 7.45147 39.4394 7.96207C36.3294 11.3785 33.2008 14.7763 30.0814 18.1835C29.7379 18.5548 29.3944 18.9447 28.8838 19.5111C31.2233 19.3439 33.3307 19.1583 35.4382 19.0469C39.6808 18.8333 43.9328 18.657 48.1755 18.4713C48.4354 18.462 48.7139 18.462 48.9367 18.5084C50.3943 18.8148 50.2643 20.2723 49.1688 20.458C47.832 20.6901 46.4858 20.9779 45.1304 21.1171C40.275 21.5999 35.4196 22.027 30.5642 22.4819C30.4621 22.4911 30.3692 22.5283 30.0629 22.6118C31.3997 23.6609 32.6345 24.6264 33.8692 25.5826C36.1994 27.4022 38.5575 29.194 40.8506 31.0508C41.4633 31.5521 42.0018 32.2112 42.3917 32.8982C42.8094 33.6224 42.3731 34.2444 41.5747 34.0494C40.5999 33.7987 39.5973 33.3995 38.771 32.8332C34.7419 30.0852 30.7684 27.2537 26.7764 24.45C26.3308 24.1344 25.8852 23.8187 25.2353 23.3452C25.0961 25.4527 24.9846 27.3465 24.8361 29.2404C24.3905 34.8757 23.9449 40.5109 23.4807 46.1461C23.425 46.7681 23.3043 47.3994 23.1186 47.9936C22.868 48.8106 22.3109 49.349 21.4104 49.284C20.5656 49.219 20.0735 48.6527 19.925 47.8543C19.7858 47.0931 19.7115 46.3132 19.7208 45.5427C19.7765 40.5109 19.86 35.4884 19.9343 30.4566C19.9436 30.0852 19.9343 29.7232 19.9343 29.0826C19.5072 29.4911 19.2102 29.7603 18.9224 30.0481C15.7102 33.2603 12.498 36.4817 9.27655 39.6939C8.91448 40.056 8.506 40.4181 8.04181 40.6223C7.72616 40.7616 7.16914 40.7523 6.92776 40.5573C6.68638 40.3624 6.63068 39.8146 6.63068 39.4897C6.63997 38.4685 7.18771 38.0136 7.67046 37.4287C10.5113 33.9844 13.3985 30.568 16.3043 27.1701C17.3534 25.9447 18.4953 24.8028 19.8415 23.3731C17.3256 23.6609 15.1439 23.9394 12.9622 24.1436C10.8641 24.3386 8.76594 24.4593 6.65853 24.6078C6.43572 24.6264 6.20363 24.5893 5.99939 24.5614C4.93176 24.4314 5.5352 23.2988 5.84156 23.2246C7.94897 22.7047 10.075 22.2033 12.2102 21.8134C14.7447 21.3771 20.3428 20.5137 20.9184 20.3187Z" fill="black"/>
</svg>
