<svg width="146" height="95" viewBox="0 0 146 95" fill="none" xmlns="http://www.w3.org/2000/svg">
<path d="M120.911 48.9745C117.075 50.0304 113.848 51.006 110.582 51.7943C105.046 53.154 99.5195 54.2505 93.7464 53.1911C87.8902 52.1106 83.936 48.7735 82.4867 43.1271C81.6023 39.6589 81.6612 35.9595 81.4287 32.3627C81.3452 30.9558 81.6569 29.5024 81.8399 27.3971C79.5298 29.5201 77.7413 31.2161 75.8839 32.8355C71.3619 36.8119 66.9984 40.976 62.2355 44.6257C55.7341 49.6597 49.4274 48.6117 44.5953 41.8964C42.7024 39.2618 41.4353 36.1381 39.9109 33.2142C39.4578 32.3322 39.1366 31.3954 38.6775 30.3055C36.0556 35.3854 33.6356 40.2516 31.0431 44.9852C24.9846 56.0281 15.624 53.1991 10.2177 46.3079C8.77138 44.4651 7.74955 42.2295 6.73424 40.0839C6.10368 38.626 6.31222 36.9989 7.92967 36.3206C9.38755 35.69 10.4914 36.679 11.2892 37.9436C12.094 39.1806 12.8222 40.4866 13.7454 41.6063C14.827 42.9139 15.9362 44.2285 17.2545 45.3016C20.9678 48.312 24.0452 48.0355 26.8624 44.155C28.8566 41.4208 30.4574 38.3799 32.0718 35.4014C33.5744 32.6303 34.9526 29.7684 36.3309 26.9066C37.0583 25.4413 37.8411 23.99 39.6636 23.8946C41.7565 23.7797 42.5732 25.4325 43.3351 26.9533C44.3168 28.884 44.9999 30.9448 46.0858 32.8136C47.4257 35.1893 48.828 37.5515 50.5017 39.6586C52.7815 42.5098 54.858 42.9214 57.9915 41.0378C60.986 39.2366 63.9469 37.2205 66.6179 34.9537C72.315 30.0683 77.8189 25.0157 83.3298 19.9355C84.638 18.7361 85.9162 18.0008 87.5753 18.7776C89.1585 19.5055 89.3385 20.9959 89.1718 22.5748C88.8676 25.3862 88.4386 28.2247 88.2799 31.0438C88.1505 33.5165 88.0624 36.0588 88.3835 38.499C89.2259 45.0224 92.3997 47.8362 98.9306 48.3518C103.841 48.749 108.672 48.1827 113.424 47.0064C116.85 46.1703 120.215 45.1122 123.587 44.1442C125.37 43.626 127.215 43.0943 128.586 44.8882C129.859 46.5985 129.117 48.3548 128.305 50.0345C127.949 50.7395 127.488 51.3886 127.056 52.0448C126.163 53.35 125.339 54.7318 124.321 55.9464C116.817 65.0287 118.055 74.3945 123.47 83.7937C124.474 85.5236 126.026 86.9511 127.377 88.4747C128.038 89.233 128.95 89.8192 129.507 90.6394C129.92 91.2164 130.276 92.2503 130.003 92.7409C129.717 93.2869 128.69 93.6147 128.038 93.7433C126.616 93.9999 124.943 93.3962 123.852 92.5874C121.698 90.9769 119.565 89.1656 117.989 87.0243C114.478 82.2967 112.605 76.8077 111.704 70.9768C110.938 66.0057 112.351 61.5021 114.969 57.3644C116.713 54.6844 118.651 52.1716 120.911 48.9745Z" fill="black"/>
</svg>
