<svg width="54" height="55" viewBox="0 0 54 55" fill="none" xmlns="http://www.w3.org/2000/svg">
<path d="M13.8871 25.6028C12.6895 26.689 11.5291 27.636 10.415 28.8057C8.78106 30.5139 7.25853 32.3242 5.68957 34.0882C5.28109 34.5431 4.95616 35.2115 4.17632 34.8587C3.66572 34.6266 3.66572 34.0417 4.15776 33.0762C4.44555 32.5192 4.77048 31.9808 5.15112 31.4794C7.30495 28.6293 9.84869 26.1691 12.7824 24.1267C13.2837 23.7832 13.8314 23.4676 14.407 23.2726C15.5025 22.9105 16.3473 23.5418 16.2452 24.693C16.1802 25.4357 15.9203 26.1784 15.6975 26.9025C15.2704 28.2765 14.7784 29.6227 14.3699 31.006C14.2585 31.3866 14.1192 32.0457 14.3513 32.3335C14.7505 32.7606 15.9388 31.5351 16.468 30.9688C18.0927 29.2513 19.6616 27.4781 21.2677 25.7421C22.8738 23.9967 24.647 22.4278 26.7173 21.2487C27.3207 20.9052 27.9706 20.6082 28.639 20.4318C29.7159 20.144 30.57 20.8588 30.4958 21.9822C30.4586 22.5206 30.3008 23.0776 30.0687 23.5697C29.4745 24.8044 28.7968 25.9927 28.1748 27.2089C27.525 28.4808 26.8472 29.7527 26.6059 31.4794C27.0608 31.0709 27.3578 30.8389 27.6085 30.5603C29.2424 28.7964 30.8392 27.0047 32.4918 25.2593C33.9957 23.6718 35.6018 22.1864 37.5421 21.1466C38.2755 20.7567 39.1018 20.4503 39.9188 20.3389C41.0514 20.1904 41.8312 21.0538 41.6084 22.1771C41.4413 23.0034 41.0885 23.8018 40.7357 24.563C40.058 26.002 39.3153 27.4039 38.619 28.8243C38.4612 29.1399 37.9785 29.8826 38.4148 29.9569C38.879 29.4649 39.3432 28.9635 39.8166 28.4808C41.0699 27.1718 42.2954 25.8442 43.5858 24.5723C44.7463 23.4211 46.0367 22.4278 47.6893 22.0564C49.0818 21.7408 50.0659 22.6042 49.8431 24.0153C49.7317 24.693 49.5089 25.3893 49.1932 26.002C47.8192 28.7036 46.3988 31.3773 44.9877 34.0603C44.8299 34.3481 44.6535 34.6545 44.4028 34.8587C44.1707 35.0444 43.7808 35.2579 43.558 35.1744C43.3352 35.0908 42.9267 34.7937 42.9731 34.2088C43.0195 33.6704 43.1774 33.2712 43.3909 32.7884C44.375 30.5603 45.4147 28.3601 46.4359 26.1506C46.7145 25.5564 47.0115 24.9715 47.2993 24.3774C47.4015 24.201 47.3736 24.1731 47.3179 24.1081C47.0487 23.9689 46.306 24.5352 45.9996 24.8323C44.245 26.5219 42.5182 28.2301 40.8007 29.9476C40.123 30.6253 39.501 31.368 38.8233 32.0457C38.2663 32.6028 37.5793 32.9184 36.8087 32.5471C36.0382 32.1757 35.8246 31.3959 35.9546 30.6532C36.1403 29.567 36.3724 28.4622 36.818 27.4688C37.4864 25.9556 38.3591 24.5259 39.1389 23.0591C39.2689 22.8084 39.3803 22.5392 39.5938 22.0564C39.1111 22.2607 38.814 22.3442 38.5448 22.4928C36.7808 23.4768 35.2862 24.8044 33.94 26.2805C32.3247 28.0537 30.8114 29.9198 29.2146 31.7208C28.5833 32.4357 27.9334 33.1691 27.1815 33.7447C25.7239 34.8773 24.2664 34.2738 24.0807 32.4449C23.9971 31.5816 24.1271 30.6717 24.3313 29.8269C24.8419 27.6824 26.0024 25.8163 27.0979 23.9317C27.33 23.5325 27.5621 23.1333 27.7106 22.6784C25.9189 23.3376 24.4706 24.4702 23.1616 25.7514C21.1284 27.7381 19.2067 29.8455 17.22 31.8693C16.7094 32.3892 16.1431 32.8906 15.5211 33.2712C14.4627 33.9118 13.3115 33.4197 13.0516 32.2128C12.8566 31.3309 12.8473 30.3561 12.9866 29.4649C13.1816 28.1558 14.0357 25.7514 13.9985 25.6028C13.9985 25.4636 13.8871 25.6028 13.8871 25.6028Z" fill="#81ADC8"/>
</svg>
